<svg width="1920" height="1145" viewBox="0 0 1920 1145" fill="none" xmlns="http://www.w3.org/2000/svg">
<g clip-path="url(#clip0_442_214)">
<g clip-path="url(#clip1_442_214)">
<path fill-rule="evenodd" clip-rule="evenodd" d="M-274.174 1135.04C-273.545 1125.23 -273.464 1125.14 -249.888 1108.36C-179.033 1057.92 -18.2061 946.612 -13.3596 944.649C-7.00983 942.077 -59.5253 986.515 -153.214 1062.99C-264.714 1154.01 -252.355 1144.89 -264.182 1144.89H-274.808L-274.174 1135.04ZM3.28952 1141.09C5.54294 1137.98 155.952 999.141 185.439 972.956C196.369 963.251 198.892 963.281 191.185 973.026C184.051 982.046 185.789 980.539 217.885 949.855C319.338 852.865 403.419 773.645 420.538 758.919C430.304 750.517 412.005 771.477 337.82 853.657C230.738 972.275 100.791 1113.6 76.8856 1137.44L69.4141 1144.89H34.9819C3.59259 1144.89 0.791656 1144.55 3.28952 1141.09ZM269.672 1139.62C280.125 1125.56 341.003 1050.41 341.934 1050.41C342.52 1050.41 342.115 1051.74 341.034 1053.37C339.952 1054.99 325.859 1076.24 309.711 1100.6C281.323 1143.42 280.116 1144.89 273.055 1144.89H265.754L269.672 1139.62ZM337.622 1141.93C340.054 1137.26 417.439 1026.42 461.288 964.798C496.986 914.628 506.425 902.214 501.698 911.657C500.061 914.928 456.93 988.262 438.15 1019.71C431.558 1030.75 420.137 1049.88 412.775 1062.22C405.411 1074.56 391.128 1098.21 381.027 1114.77L362.664 1144.89H349.374C339.292 1144.89 336.454 1144.17 337.622 1141.93ZM476.194 1142.71C476.194 1139.77 565.763 977.44 570.113 972.5C573.014 969.207 557.211 1004.69 508.588 1110.64L493.415 1143.71L484.805 1144.43C479.836 1144.85 476.194 1144.12 476.194 1142.71ZM595.495 1142.97C595.495 1137.63 673.864 919.964 675.223 921.527C676.086 922.519 668.697 950.66 648.517 1023.25C640.573 1051.83 631.041 1086.37 627.339 1100.01C614.903 1145.81 616.01 1143.6 605.068 1144.43C599.804 1144.82 595.495 1144.17 595.495 1142.97ZM755.931 1141.29C755.931 1137.25 765.889 1081.23 776.493 1025.61C779.962 1007.43 785.478 978.201 788.751 960.665C801.719 891.195 828.562 741.227 830.659 735.632C832.815 729.874 832.849 729.903 831.93 736.813C831.409 740.711 829.112 759.841 826.827 779.325C817.891 855.399 798.813 993.6 795.943 1016.17C794.291 1029.16 790.559 1059.45 787.648 1083.48C779.661 1149.39 781.57 1143.58 767.673 1144.41C757.958 1145 755.931 1144.46 755.931 1141.29ZM824.801 1131.31C825.607 1123.84 828.408 1102.85 831.023 1084.66C833.643 1066.47 844.678 968.151 845.478 960.665C846.277 953.178 847.873 946.38 849.029 945.561C850.385 944.6 850.706 946.919 849.936 952.087C849.276 956.496 839.463 1059.21 838.202 1085.84C835.371 1145.49 835.469 1144.89 828.674 1144.89C823.373 1144.89 823.346 1144.78 824.801 1131.31ZM926.054 1143.11C924.38 1139.58 932.577 883.098 934.831 868.553L936.476 857.926L936.708 868.72C936.835 874.656 938.729 922.484 940.916 975.001C943.106 1027.52 945.519 1087.23 946.276 1107.69L947.655 1144.89H937.275C931.568 1144.89 926.518 1144.09 926.054 1143.11ZM1035.62 1138.39C1035.6 1134.82 1034.26 1114.89 1032.64 1094.11C1026.39 1013.62 1021.58 946.784 1020.57 926.418L1019.52 905.162L1023.22 927.599C1029.87 967.934 1054.18 1134.51 1054.18 1139.76C1054.18 1144.26 1053.05 1144.89 1044.92 1144.89C1036.21 1144.89 1035.67 1144.51 1035.62 1138.39ZM1186.75 1142.34C1185.42 1139.86 1182.3 1126.6 1149.86 985.464C1127.86 889.739 1103.53 778.482 1103.65 774.163C1103.83 767.879 1157.22 944.319 1196.17 1079.94C1205.5 1112.41 1213.56 1140.31 1214.09 1141.93C1215.33 1145.71 1188.78 1146.11 1186.75 1142.34ZM1281.88 1115.95C1273.4 1089.89 1225.17 937.972 1221.7 926.418L1220.28 921.695L1223.31 926.418C1226.01 930.627 1306.75 1130.5 1309.89 1140.75C1310.99 1144.32 1309.8 1144.89 1301.22 1144.89H1291.29L1281.88 1115.95ZM1369 1139.57C1367.99 1136.65 1359.22 1112.56 1349.5 1086.05C1339.79 1059.53 1332.16 1037.47 1332.56 1037.01C1333.53 1035.9 1381.22 1139.17 1381.22 1142.37C1381.22 1147.42 1370.9 1145.05 1369 1139.57ZM1562.12 1135.94C1559.22 1131.12 1549.58 1114.95 1540.69 1100.01C1531.8 1085.07 1520.67 1066.47 1515.96 1058.68C1487.73 1011.92 1442.36 934.959 1401.81 865.012C1350.49 776.5 1351.79 778.804 1353.15 778.804C1356.14 778.804 1593 1124.31 1602.09 1141.93C1603.26 1144.21 1599.44 1144.86 1585.49 1144.8L1567.37 1144.71L1562.12 1135.94ZM1631.1 1113.59C1607.68 1081.02 1562.56 1016.85 1550.13 998.454C1545.98 992.292 1552.25 998.248 1565.07 1012.62C1590.08 1040.68 1671.91 1139.32 1672.96 1142.68C1673.34 1143.9 1669.13 1144.89 1663.62 1144.89H1653.59L1631.1 1113.59ZM1805.94 1073.6C1692.39 957.807 1548.99 807.991 1514.95 769.602C1504.64 757.976 1503.45 756.03 1509.78 761.163C1558.6 800.742 1923.84 1135.48 1925.96 1142.59C1926.38 1144 1916.83 1144.89 1901.25 1144.89H1875.85L1805.94 1073.6ZM1913.54 1092.51C1815.29 997.353 1781.69 962.982 1808.03 984.566C1813.69 989.2 1838.22 1009.3 1862.54 1029.23C1926.82 1081.89 1995.93 1140.05 1997.33 1142.64C1998.05 1143.98 1992.32 1144.89 1983.08 1144.89H1967.62L1913.54 1092.51ZM2102.13 1081.98C1988.26 994.892 1869.69 901.702 1778.72 827.825C1743.52 799.234 1734.83 791.355 1745.81 797.954C1762.74 808.141 1904.4 902.895 1945.84 931.756C1961.68 942.786 1985.28 958.95 1998.29 967.679C2021.56 983.291 2084.75 1027.23 2149.47 1072.81C2167.58 1085.55 2184.91 1097.69 2188.02 1099.77C2193.49 1103.44 2193.66 1104.19 2193.69 1124.22C2193.69 1144.13 2193.52 1144.89 2189.04 1144.89C2186.36 1144.89 2149.24 1118.02 2102.13 1081.98ZM-274.571 932.661V911.74L-214.407 878.491C-56.5941 791.272 148.986 682.657 142.978 689.671C137.276 696.329 -268.865 953.579 -273.672 953.579C-274.168 953.579 -274.571 944.165 -274.571 932.661ZM2174.16 903.894C2165.11 898.804 2117.44 872.219 2068.23 844.819C1985.9 798.978 1804.46 694.268 1743.24 657.265C1729.1 648.716 1700.87 632.062 1680.5 620.252C1660.14 608.442 1638.85 595.887 1633.19 592.35C1627.54 588.814 1611.1 578.673 1596.66 569.814C1570.55 553.8 1563.64 547.942 1580.94 556.491C1585.92 558.955 1597.87 564.735 1607.48 569.339C1655.19 592.174 1801.71 664.089 1841.97 684.419C1965.58 746.85 2074.78 803.184 2177.75 857.643L2193.69 866.075V889.751C2193.69 902.774 2193 913.365 2192.15 913.289C2191.32 913.213 2183.2 908.986 2174.16 903.894ZM-274.129 856.125L-273.543 831.985L-228.291 808.791C-43.3601 713.992 340.147 529.694 343.786 533.871C345.316 535.628 24.0813 718.939 -70.9389 770.531C-90.7364 781.28 -119.893 797.194 -135.731 805.892C-151.569 814.593 -169.618 824.413 -175.84 827.718C-182.062 831.022 -202.888 842.231 -222.12 852.628C-241.352 863.022 -261.053 873.495 -265.901 875.898L-274.715 880.265L-274.129 856.125ZM2115.86 813.887C2074.74 790.507 2041.45 770.973 2041.88 770.477C2042.81 769.414 2057.1 775.385 2103.19 796.086C2121.86 804.472 2149.86 817.02 2165.41 823.971L2193.69 836.612V846.679C2193.69 852.215 2193 856.668 2192.15 856.57C2191.32 856.472 2156.97 837.267 2115.86 813.887ZM-274.186 752.235L-273.543 744.558L-216.978 722.801C-135.272 691.375 -136.124 693.054 -223.967 736.576C-249.872 749.409 -271.914 759.912 -272.948 759.912C-273.985 759.912 -274.542 756.456 -274.186 752.235ZM2183.42 653.628C2180.59 652.536 2142.17 638.172 2098.05 621.704C2023.83 594.008 1900.96 546.837 1832.92 519.925C1817.19 513.705 1805.19 508.284 1806.25 507.881C1809.6 506.595 2102.32 591.766 2174.67 615.078L2193.69 621.208V638.6C2193.69 657.009 2193.37 657.48 2183.42 653.628ZM-274.571 534.296C-274.571 519.849 -273.97 516.75 -270.971 515.682C-266.38 514.052 -143.465 486.568 -63.7398 469.35C47.6178 445.298 111.655 432.657 113.19 434.414C114.61 436.049 2.02347 471.073 -113.105 504.811C-176.945 523.52 -265.677 549.308 -270.971 550.689C-274.147 551.52 -274.571 549.586 -274.571 534.296ZM2149.47 449.159C2126.85 443.535 2102.55 437.714 2095.48 436.215C2088.41 434.72 2082.63 432.747 2082.63 431.831C2082.63 430.262 2185.62 442.389 2191.12 444.603C2193.83 445.696 2194.81 460.167 2192.15 459.674C2191.32 459.515 2172.11 454.783 2149.47 449.159ZM-274.571 445.063C-274.571 439.723 -273.709 439.5 -232.919 434.267C-210.009 431.327 -188.953 428.328 -186.125 427.605C-182.671 426.718 -181.659 427.067 -183.039 428.668C-184.171 429.98 -196.204 433.407 -209.779 436.284C-223.355 439.158 -241.867 443.53 -250.917 445.994C-272.446 451.862 -274.571 451.779 -274.571 445.063ZM2141.25 323.893C2122.02 322.138 2090.54 319.058 2071.31 317.049C2052.08 315.043 2010.89 310.8 1979.78 307.623C1852.91 294.671 1681.59 274.295 1679.7 271.934C1678.2 270.067 1810.77 272.447 1893.39 275.769C2118.9 284.841 2188.87 287.896 2191.12 288.766C2192.91 289.451 2193.69 295.661 2193.69 308.732V327.698L2184.96 327.393C2180.15 327.222 2160.48 325.648 2141.25 323.893ZM-274.571 217.685V197.297L-224.691 198.788C-58.8854 203.739 29.5683 206.873 113.153 210.754C126.728 211.382 153.109 212.475 171.775 213.181C190.44 213.89 211.266 215.146 218.053 215.977C228.939 217.309 229.628 217.676 223.89 219.11C220.311 220.005 198.097 221.454 174.524 222.329C150.953 223.207 96.9539 225.443 54.5321 227.3C-24.2895 230.756 -132.783 234.452 -223.663 236.776L-274.571 238.079V217.685ZM2112.1 225.198C2085.89 223.771 2063.76 221.804 2062.91 220.826C2062.06 219.851 2064.97 219.056 2069.36 219.056C2073.76 219.056 2094.5 218.02 2115.47 216.757C2136.43 215.493 2162.61 214.117 2173.65 213.697L2193.69 212.934V220.718V228.503L2176.73 228.151C2167.4 227.958 2138.31 226.631 2112.1 225.198ZM1781.29 76.205C1785.82 74.4818 1809.88 68.7627 1834.77 63.4933C1859.66 58.2239 1903.16 48.9901 1931.44 42.9728C1994.28 29.6086 2031 22.181 2117.59 5.33887C2154.36 -1.81494 2186.58 -8.23303 2189.17 -8.92236C2193.81 -10.1615 2193.86 -9.89758 2193.27 8.17151L2192.66 26.5242L2172.11 29.5084C2139.4 34.2572 2030.32 48.6919 1979.78 54.9561C1876.13 67.8046 1777.06 79.6975 1775.12 79.5215C1773.99 79.4213 1776.77 77.9255 1781.29 76.205ZM-227.777 18.8619L-274.571 12.8545V6.13074C-274.571 2.43286 -274.339 -0.585571 -274.057 -0.575806C-273.775 -0.56604 -250.053 4.70825 -221.341 11.1436C-148.249 27.5287 -149.407 28.9193 -227.777 18.8619ZM228.338 12.4756C151.491 -5.44678 97.4134 -18.3418 74.0725 -24.3103C59.364 -28.0718 32.0588 -34.8931 13.3933 -39.4733C-23.6345 -48.5531 -53.332 -56.0686 -94.5932 -66.8054C-109.3 -70.6329 -131.514 -76.3936 -143.958 -79.6075C-168.473 -85.9402 -217.204 -98.8694 -252.459 -108.399L-274.571 -114.37V-135.347C-274.571 -151.102 -273.931 -156.068 -272 -155.298C-270.585 -154.734 -251.38 -148.86 -229.319 -142.244C-207.259 -135.631 -179.029 -127.023 -166.584 -123.12C-105.036 -103.802 113.124 -33.1432 138.865 -24.188C149.612 -20.4486 180.62 -9.79736 207.771 -0.51709C269.318 20.5215 273.113 22.9167 228.338 12.4756ZM2125.53 -21.8124C2128.2 -23.1517 2143.35 -27.5096 2159.19 -31.4958C2175.04 -35.4822 2189.29 -39.3047 2190.85 -39.9939C2192.78 -40.8494 2193.69 -39.4269 2193.69 -35.531C2193.69 -29.9731 2192.93 -29.6946 2166.44 -25.7278C2123.81 -19.3365 2119.84 -18.9578 2125.53 -21.8124ZM1640.41 -55.5896C1640.99 -56.3301 1663.67 -66.9448 1690.81 -79.1823C1803.69 -130.085 1830.23 -141.892 1869.74 -158.779C1881.05 -163.618 1902.8 -172.949 1918.07 -179.516C2036.22 -230.334 2068.69 -244.087 2135.08 -271.414C2158.83 -281.195 2181.74 -290.639 2185.99 -292.404L2193.69 -295.608V-273.413V-251.216L2123.25 -224.967C2084.5 -210.529 2047.71 -196.738 2041.49 -194.318C2009.88 -182.022 1853.91 -126.468 1773.06 -98.7056C1658.85 -59.4855 1638.21 -52.7764 1640.41 -55.5896ZM370.263 -135.012C363.476 -140.074 339.411 -157.965 316.784 -174.773C213.277 -251.654 62.512 -367.852 -93.5647 -491.032C-116.719 -509.308 -186.894 -565.791 -238.061 -607.338L-274.571 -636.982V-663.884V-690.784L-268.915 -686.607C-256.719 -677.595 -137.105 -578.828 -37.9238 -495.868C-2.27075 -466.048 184.308 -305.722 221.14 -273.254C335.191 -172.724 386.934 -125.691 383.371 -125.791C382.95 -125.801 377.053 -129.951 370.263 -135.012ZM88.4706 -151.752C82.8125 -154.184 49.4924 -166.971 14.4223 -180.167C-48.1464 -203.711 -206.325 -265.414 -250.917 -283.671L-273.543 -292.937L-274.143 -310.908C-274.474 -320.794 -274.036 -328.884 -273.17 -328.884C-266.068 -328.884 103.898 -151.349 103.898 -147.942C103.898 -146.104 98.5231 -147.431 88.4706 -151.752ZM1461.44 -252.238C1461.44 -258.013 1672.35 -520.184 1804.75 -678.993L1857.39 -742.146L1883.02 -742.173L1908.64 -742.202L1899.47 -731.36C1858.82 -683.307 1642.94 -444.364 1555.04 -350.14C1478.02 -267.572 1461.44 -250.239 1461.44 -252.238ZM1600.28 -255.07C1604.57 -260.301 1694.43 -331.956 1801.86 -415.808C1923.6 -510.831 2188.78 -711.497 2192.61 -711.497C2193.2 -711.497 2193.69 -700.02 2193.69 -685.991V-660.482L2125.3 -611.801C2087.69 -585.028 2035.16 -548.003 2008.58 -529.528C1981.99 -511.049 1949.6 -488.497 1936.59 -479.415C1825.71 -401.999 1594.03 -247.447 1600.28 -255.07ZM-213.37 -339.061L-274.553 -365.494L-274.563 -374.271L-274.571 -383.05L-255.545 -372.826C-245.079 -367.2 -226.841 -357.406 -215.012 -351.057C-174.748 -329.444 -146.007 -312.709 -149.101 -312.67C-150.798 -312.651 -179.72 -324.526 -213.37 -339.061ZM755.117 -371.988C750.799 -385.491 728.284 -466.007 709.382 -535.543C700.908 -566.72 690.364 -605.512 685.95 -621.748C681.539 -637.987 672.432 -671.466 665.716 -696.146L653.505 -741.022L666.908 -741.723C674.28 -742.112 680.747 -741.933 681.272 -741.327C682.225 -740.237 691.574 -697.441 704.303 -635.919C707.932 -618.383 713.568 -591.283 716.829 -575.694C725.31 -535.159 742.824 -449.238 750.772 -409.187C754.509 -390.35 758.224 -372.017 759.028 -368.444C761.284 -358.428 758.708 -360.76 755.117 -371.988ZM402.146 -417.971C317.691 -525.009 158.655 -731.377 154.556 -739.25C153.368 -741.533 157.587 -742.175 173.195 -742.085L193.37 -741.968L224.224 -696.735C305.255 -577.933 363.146 -492.234 401.713 -433.984C424.937 -398.912 444.829 -368.889 445.92 -367.263C447.01 -365.641 447.093 -364.362 446.105 -364.421C445.12 -364.48 425.338 -388.576 402.146 -417.971ZM609.534 -382.253C588.715 -415.077 542.532 -503.797 460.462 -668.623C440.831 -708.046 424.771 -740.726 424.771 -741.249C424.771 -741.775 432.937 -742.202 442.911 -742.202H461.053L480.753 -699.098C539.762 -569.983 609.081 -408.871 615.915 -384.956C619.958 -370.8 617.465 -369.744 609.534 -382.253ZM1087.11 -381.041C1087.12 -386.779 1088.07 -403.695 1089.23 -418.633C1090.39 -433.571 1093.6 -480.867 1096.37 -523.733C1099.14 -566.6 1103.73 -631.432 1106.58 -667.805C1109.42 -704.177 1111.75 -735.796 1111.76 -738.069C1111.77 -741.579 1113.79 -742.202 1125.14 -742.202C1132.5 -742.202 1138.51 -741.806 1138.51 -741.325C1138.51 -737.793 1116.88 -571.361 1108.84 -513.106C1092.31 -393.195 1089.41 -373.276 1088.31 -372.01C1087.64 -371.24 1087.1 -375.304 1087.11 -381.041ZM1227.1 -384.968C1227.03 -386.589 1232.38 -404.125 1239 -423.939C1263.28 -496.621 1283.3 -555.695 1301.22 -607.578C1311.31 -636.806 1325.81 -679.013 1333.43 -701.376L1347.29 -742.034L1362.2 -742.117C1370.4 -742.163 1377.11 -741.789 1377.11 -741.283C1377.11 -740.249 1342.88 -657.033 1303.65 -562.704C1287.2 -523.159 1250.93 -437.198 1236.88 -404.462C1231.58 -392.122 1227.18 -383.35 1227.1 -384.968ZM1973.68 -419.547C1978.01 -424.252 2190.27 -569.79 2192.81 -569.79C2193.3 -569.79 2193.69 -563.335 2193.69 -555.445V-541.103L2089.31 -482.135C2031.9 -449.705 1982.47 -421.62 1979.46 -419.721C1972.57 -415.365 1969.76 -415.28 1973.68 -419.547ZM894.2 -552.666C891.71 -577.024 887.799 -619.8 885.509 -647.729C883.219 -675.657 880.433 -706.292 879.318 -715.801C876.134 -742.928 875.943 -742.202 886.257 -742.202H895.227L896.522 -705.003C898.421 -650.437 900.662 -508.382 899.621 -508.382C899.13 -508.382 896.691 -528.311 894.2 -552.666ZM1459.45 -511.251C1459.35 -513.952 1470.73 -535.047 1561.12 -699.69C1572.17 -719.824 1582.35 -737.683 1583.73 -739.379C1585.4 -741.406 1590.3 -742.214 1598.05 -741.74L1609.85 -741.022L1582.65 -698.507C1558.9 -661.389 1468.91 -523.14 1462.02 -513.185C1460.65 -511.193 1459.49 -510.323 1459.45 -511.251ZM1786.35 -528.118C1788 -530.53 1804.67 -547.368 1823.38 -565.539C1842.09 -583.709 1860.17 -601.46 1863.57 -604.979C1866.96 -608.501 1900.5 -640.856 1938.09 -676.879L2006.45 -742.373L2026.22 -741.696L2046 -741.022L2005.18 -706.634C1962.55 -670.725 1946.78 -657.591 1920.3 -635.919C1911.56 -628.775 1878.56 -601.782 1846.97 -575.934C1815.37 -550.09 1788.13 -527.771 1786.43 -526.336C1783.71 -524.039 1783.7 -524.247 1786.35 -528.118ZM99.7842 -547.905C36.3163 -607.744 -99.7352 -739.509 -99.7352 -741.139C-99.7352 -741.721 -92.5629 -742.197 -83.7945 -742.19L-67.8535 -742.178L14.6618 -649.489C87.6567 -567.5 112.234 -538.975 109.768 -539.133C109.365 -539.155 104.873 -543.105 99.7842 -547.905ZM983.309 -613.482C983.864 -645.957 984.893 -688.205 985.597 -707.364L986.877 -742.202H994.911C1002.84 -742.202 1002.93 -742.102 1001.79 -734.525C1001.15 -730.302 998.795 -708.252 996.546 -685.519C994.298 -662.787 990.174 -623.992 987.381 -599.312L982.302 -554.438L983.309 -613.482ZM809.821 -647.978C808.462 -657.583 805.6 -677.134 803.469 -691.422C801.333 -705.712 798.933 -722.982 798.133 -729.801C796.723 -741.858 796.823 -742.202 801.753 -742.202C807.648 -742.202 807.736 -741.604 811.637 -675.652C814.23 -631.808 813.56 -621.599 809.821 -647.978ZM1675.96 -645.16C1677.8 -648.293 1695.13 -671.41 1714.47 -696.53C1748.8 -741.1 1749.84 -742.202 1757.65 -742.202H1765.65L1736.45 -709.664C1688.99 -656.796 1672.41 -639.109 1675.96 -645.16ZM587.358 -655.511C585.797 -658.375 579.034 -672.409 572.327 -686.7C565.621 -700.988 556.905 -719.323 552.956 -727.44L545.775 -742.202H551.743C557.084 -742.202 558.218 -740.768 562.512 -728.62C565.151 -721.151 569.839 -708.665 572.924 -700.87C584.912 -670.603 591.662 -651.986 590.944 -651.165C590.533 -650.693 588.92 -652.649 587.358 -655.511ZM1266.12 -719.309C1265.9 -724.541 1270.89 -742.202 1272.59 -742.202C1273.67 -742.202 1273.9 -739.88 1273.12 -737.04C1270.93 -729.124 1266.21 -717.168 1266.12 -719.309ZM276.388 -729.801C268.687 -740.479 267.392 -742.982 270.095 -741.955C271.569 -741.396 274.668 -737.505 276.982 -733.306C281.533 -725.052 281.206 -723.126 276.388 -729.801Z" fill="#FAFAFC"/>
</g>
</g>
<defs>
<clipPath id="clip0_442_214">
<rect width="1920" height="1144.53" fill="white" transform="translate(0 0.4375)"/>
</clipPath>
<clipPath id="clip1_442_214">
<rect width="2470.96" height="1114.5" fill="white" transform="matrix(1 0 0 -1 -276.03 1145.5)"/>
</clipPath>
</defs>
</svg>
