<svg width="1920" height="2474" viewBox="0 0 1920 2474" fill="none" xmlns="http://www.w3.org/2000/svg">
<g clip-path="url(#clip0_1_8)">
<rect width="1920" height="2473.33" transform="translate(0 0.222656)" fill="#05051E"/>
<g clip-path="url(#clip1_1_8)">
<mask id="mask0_1_8" style="mask-type:alpha" maskUnits="userSpaceOnUse" x="0" y="0" width="2096" height="1040">
<path d="M2096 0.22168H0V1039.69H2096V0.22168Z" fill="#D9D9D9"/>
</mask>
<g mask="url(#mask0_1_8)">
<path fill-rule="evenodd" clip-rule="evenodd" d="M1150.1 -71.5762V1.47049H1078.6V2.77798L1150.1 2.778V97.774H1078.6V99.0815H1150.1V194.078H1078.6V195.385H1150.1V290.381H1078.6V291.688H1150.1V386.684H1078.6V387.991H1150.1V482.988H1078.6V484.296H1150.1V579.291H1078.6V580.599H1150.1V675.594H1078.6V676.902H1150.1V749.951H1151.43V676.902H1248.31V749.951H1249.64V676.902H1346.51V749.951H1347.84V676.902H1444.71V749.951H1446.04V676.902H1542.92V749.951H1544.25V676.902H1641.13V749.951H1642.47V676.902H1739.33V749.951H1740.67V676.902H1837.53V749.951H1838.87V676.902H1916.36V675.594H1838.87V580.599H1916.36V579.291H1838.87V484.296H1916.36V482.988H1838.87V387.991H1916.36V386.684H1838.87V291.688H1916.36V290.381H1838.87V195.385H1916.36V194.078H1838.87V99.0815H1916.36V97.774H1838.87V2.77803H1916.36V1.47052L1838.87 1.47051V-71.5762H1837.53V1.47051H1740.67V-71.5762H1739.33V1.47051H1642.47V-71.5762H1641.13V1.47051L1544.25 1.4705V-71.5762H1542.92V1.4705L1446.04 1.4705V-71.5762H1444.71V1.4705H1347.84V-71.5762H1346.51V1.4705L1249.64 1.47049V-71.5762H1248.31V1.47049H1151.43V-71.5762H1150.1ZM1837.53 675.594V580.599H1740.67V675.594H1837.53ZM1739.33 675.594V580.599H1642.47V675.594H1739.33ZM1641.13 675.594V580.599H1544.25V675.594H1641.13ZM1542.92 675.594V580.599H1446.04V675.594H1542.92ZM1444.71 675.594V580.599H1347.84V675.594H1444.71ZM1346.51 675.594V580.599H1249.64V675.594H1346.51ZM1248.31 675.594V580.599H1151.43V675.594H1248.31ZM1248.31 579.291H1151.43V484.296H1248.31V579.291ZM1346.51 579.291H1249.64V484.296H1346.51V579.291ZM1444.71 579.291H1347.84V484.296H1444.71V579.291ZM1542.92 579.291H1446.04V484.296H1542.92V579.291ZM1641.13 579.291H1544.25V484.296H1641.13V579.291ZM1739.33 579.291H1642.47V484.296H1739.33V579.291ZM1837.53 579.291H1740.67V484.296H1837.53V579.291ZM1837.53 482.988V387.991H1740.67V482.988H1837.53ZM1739.33 482.988V387.991H1642.47V482.988H1739.33ZM1641.13 482.988V387.991H1544.25V482.988H1641.13ZM1542.92 482.988V387.991H1446.04V482.988H1542.92ZM1444.71 482.988V387.991H1347.84V482.988H1444.71ZM1346.51 482.988V387.991H1249.64V482.988H1346.51ZM1248.31 482.988V387.991H1151.43V482.988H1248.31ZM1248.31 386.684H1151.43V291.688H1248.31V386.684ZM1346.51 386.684H1249.64V291.688H1346.51V386.684ZM1444.71 386.684H1347.84V291.688H1444.71V386.684ZM1542.92 386.684H1446.04V291.688H1542.92V386.684ZM1641.13 386.684H1544.25V291.688H1641.13V386.684ZM1739.33 386.684H1642.47V291.688H1739.33V386.684ZM1837.53 386.684H1740.67V291.688H1837.53V386.684ZM1837.53 290.381V195.385H1740.67V290.381H1837.53ZM1739.33 290.381V195.385H1642.47V290.381H1739.33ZM1641.13 290.381V195.385H1544.25V290.381H1641.13ZM1542.92 290.381V195.385H1446.04V290.381H1542.92ZM1444.71 290.381V195.385H1347.84V290.381H1444.71ZM1346.51 290.381V195.385H1249.64V290.381H1346.51ZM1248.31 290.381V195.385H1151.43V290.381H1248.31ZM1248.31 194.078H1151.43V99.0815H1248.31V194.078ZM1346.51 194.078H1249.64V99.0815H1346.51V194.078ZM1444.71 194.078H1347.84V99.0815H1444.71V194.078ZM1542.92 194.078H1446.04V99.0815H1542.92V194.078ZM1641.13 194.078H1544.25V99.0815H1641.13V194.078ZM1739.33 194.078H1642.47V99.0815H1739.33V194.078ZM1837.53 194.078H1740.67V99.0815H1837.53V194.078ZM1837.53 97.774V2.77803H1740.67V97.774H1837.53ZM1739.33 97.774V2.77803L1642.47 2.77802V97.774H1739.33ZM1641.13 97.774V2.77802H1544.25V97.774H1641.13ZM1542.92 97.774V2.77802L1446.04 2.778V97.774H1542.92ZM1444.71 97.774V2.778H1347.84V97.774H1444.71ZM1346.51 97.774V2.778H1249.64V97.774H1346.51ZM1248.31 97.774V2.778H1151.43V97.774H1248.31Z" fill="url(#paint0_radial_1_8)"/>
<path fill-rule="evenodd" clip-rule="evenodd" d="M656.766 328.521V401.567H585.271V402.875H656.766V497.87H585.271V499.178H656.766V594.175H585.271V595.482H656.766V690.478H585.271V691.785H656.766V786.781H585.271V788.088H656.766V883.085H585.271V884.393H656.766V979.388H585.271V980.696H656.766V1075.69H585.271V1077H656.766V1150.05H658.099V1077H754.974V1150.05H756.307V1077H853.171V1150.05H854.504V1077H951.38V1150.05H952.714V1077H1049.59V1150.05H1050.92V1077H1147.8V1150.05H1149.13V1077H1245.99V1150.05H1247.33V1077H1344.2V1150.05H1345.53V1077H1423.03V1075.69H1345.53V980.696H1423.03V979.388H1345.53V884.393H1423.03V883.085H1345.53V788.088H1423.03V786.781H1345.53V691.785H1423.03V690.478H1345.53V595.482H1423.03V594.175H1345.53V499.178H1423.03V497.87H1345.53V402.875H1423.03V401.567H1345.53V328.521H1344.2V401.567H1247.33V328.521H1245.99V401.567H1149.13V328.521H1147.8V401.567H1050.92V328.521H1049.59V401.567H952.714V328.521H951.38V401.567H854.504V328.521H853.171V401.567H756.307V328.521H754.974V401.567H658.099V328.521H656.766ZM1344.2 1075.69V980.696H1247.33V1075.69H1344.2ZM1245.99 1075.69V980.696H1149.13V1075.69H1245.99ZM1147.8 1075.69V980.696H1050.92V1075.69H1147.8ZM1049.59 1075.69V980.696H952.714V1075.69H1049.59ZM951.38 1075.69V980.696H854.504V1075.69H951.38ZM853.171 1075.69V980.696H756.307V1075.69H853.171ZM754.974 1075.69V980.696H658.099V1075.69H754.974ZM754.974 979.388H658.099V884.393H754.974V979.388ZM853.171 979.388H756.307V884.393H853.171V979.388ZM951.38 979.388H854.504V884.393H951.38V979.388ZM1049.59 979.388H952.714V884.393H1049.59V979.388ZM1147.8 979.388H1050.92V884.393H1147.8V979.388ZM1245.99 979.388H1149.13V884.393H1245.99V979.388ZM1344.2 979.388H1247.33V884.393H1344.2V979.388ZM1344.2 883.085V788.088H1247.33V883.085H1344.2ZM1245.99 883.085V788.088H1149.13V883.085H1245.99ZM1147.8 883.085V788.088H1050.92V883.085H1147.8ZM1049.59 883.085V788.088H952.714V883.085H1049.59ZM951.38 883.085V788.088H854.504V883.085H951.38ZM853.171 883.085V788.088H756.307V883.085H853.171ZM754.974 883.085V788.088H658.099V883.085H754.974ZM754.974 786.781H658.099V691.785H754.974V786.781ZM853.171 786.781H756.307V691.785H853.171V786.781ZM951.38 786.781H854.504V691.785H951.38V786.781ZM1049.59 786.781H952.714V691.785H1049.59V786.781ZM1147.8 786.781H1050.92V691.785H1147.8V786.781ZM1245.99 786.781H1149.13V691.785H1245.99V786.781ZM1344.2 786.781H1247.33V691.785H1344.2V786.781ZM1344.2 690.478V595.482H1247.33V690.478H1344.2ZM1245.99 690.478V595.482H1149.13V690.478H1245.99ZM1147.8 690.478V595.482H1050.92V690.478H1147.8ZM1049.59 690.478V595.482H952.714V690.478H1049.59ZM951.38 690.478V595.482H854.504V690.478H951.38ZM853.171 690.478V595.482H756.307V690.478H853.171ZM754.974 690.478V595.482H658.099V690.478H754.974ZM754.974 594.175H658.099V499.178H754.974V594.175ZM853.171 594.175H756.307V499.178H853.171V594.175ZM951.38 594.175H854.504V499.178H951.38V594.175ZM1049.59 594.175H952.714V499.178H1049.59V594.175ZM1147.8 594.175H1050.92V499.178H1147.8V594.175ZM1245.99 594.175H1149.13V499.178H1245.99V594.175ZM1344.2 594.175H1247.33V499.178H1344.2V594.175ZM1344.2 497.87V402.875H1247.33V497.87H1344.2ZM1245.99 497.87V402.875H1149.13V497.87H1245.99ZM1147.8 497.87V402.875H1050.92V497.87H1147.8ZM1049.59 497.87V402.875H952.714V497.87H1049.59ZM951.38 497.87V402.875H854.504V497.87H951.38ZM853.171 497.87V402.875H756.307V497.87H853.171ZM754.974 497.87V402.875H658.099V497.87H754.974Z" fill="url(#paint1_radial_1_8)" fill-opacity="0.23"/>
<g opacity="0.4" filter="url(#filter0_f_1_8)">
<path d="M1598.48 -198.171C1409.62 -275.63 1196.1 -196.785 1121.59 -22.0667C1047.07 152.652 1139.77 357.082 1328.64 434.541C1517.5 511.999 1731.02 433.155 1805.53 258.436C1880.05 83.7174 1787.35 -120.713 1598.48 -198.171Z" fill="url(#paint2_linear_1_8)" fill-opacity="0.23"/>
</g>
<g opacity="0.4" filter="url(#filter1_f_1_8)">
<path d="M656.635 -31.0921C841.083 158.549 1082.12 226.69 1195.01 121.105C1307.9 15.5201 1249.89 -223.808 1065.44 -413.449C880.994 -603.091 639.954 -671.232 527.065 -565.647C414.177 -460.062 472.187 -220.733 656.635 -31.0921Z" fill="#8244FF"/>
</g>
</g>
</g>
<g filter="url(#filter2_f_1_8)">
<ellipse cx="960" cy="687.96" rx="880" ry="41.071" fill="url(#paint3_linear_1_8)" fill-opacity="0.3"/>
</g>
</g>
<defs>
<filter id="filter0_f_1_8" x="837.17" y="-486.62" width="1252.78" height="1209.61" filterUnits="userSpaceOnUse" color-interpolation-filters="sRGB">
<feFlood flood-opacity="0" result="BackgroundImageFix"/>
<feBlend mode="normal" in="SourceGraphic" in2="BackgroundImageFix" result="shape"/>
<feGaussianBlur stdDeviation="129.333" result="effect1_foregroundBlur_1_8"/>
</filter>
<filter id="filter1_f_1_8" x="64.0899" y="-1020.68" width="1593.9" height="1596.83" filterUnits="userSpaceOnUse" color-interpolation-filters="sRGB">
<feFlood flood-opacity="0" result="BackgroundImageFix"/>
<feBlend mode="normal" in="SourceGraphic" in2="BackgroundImageFix" result="shape"/>
<feGaussianBlur stdDeviation="202.667" result="effect1_foregroundBlur_1_8"/>
</filter>
<filter id="filter2_f_1_8" x="-120" y="446.889" width="2160" height="482.142" filterUnits="userSpaceOnUse" color-interpolation-filters="sRGB">
<feFlood flood-opacity="0" result="BackgroundImageFix"/>
<feBlend mode="normal" in="SourceGraphic" in2="BackgroundImageFix" result="shape"/>
<feGaussianBlur stdDeviation="100" result="effect1_foregroundBlur_1_8"/>
</filter>
<radialGradient id="paint0_radial_1_8" cx="0" cy="0" r="1" gradientUnits="userSpaceOnUse" gradientTransform="translate(1497.48 339.187) rotate(90) scale(311.504 317.657)">
<stop stop-color="#8244FF" stop-opacity="0.29"/>
<stop offset="1" stop-color="#8244FF" stop-opacity="0"/>
</radialGradient>
<radialGradient id="paint1_radial_1_8" cx="0" cy="0" r="1" gradientUnits="userSpaceOnUse" gradientTransform="translate(1004 738.888) rotate(135.553) scale(586.454 598.039)">
<stop stop-color="#8244FF" stop-opacity="0.23"/>
<stop offset="1" stop-color="#BB1BFF" stop-opacity="0.32"/>
</radialGradient>
<linearGradient id="paint2_linear_1_8" x1="1027.16" y1="264.76" x2="1428.28" y2="-315.772" gradientUnits="userSpaceOnUse">
<stop stop-color="#F926AE"/>
<stop offset="0.21875" stop-color="#F926AE"/>
<stop offset="1" stop-color="#F926AE" stop-opacity="0"/>
</linearGradient>
<linearGradient id="paint3_linear_1_8" x1="1840" y1="729.031" x2="1297.66" y2="-125.72" gradientUnits="userSpaceOnUse">
<stop stop-color="#5E17EB"/>
<stop offset="1" stop-color="#BB1BFF"/>
</linearGradient>
<clipPath id="clip0_1_8">
<rect width="1920" height="2473.33" fill="white" transform="translate(0 0.222656)"/>
</clipPath>
<clipPath id="clip1_1_8">
<rect width="1920" height="1080" fill="white" transform="translate(0 0.222656)"/>
</clipPath>
</defs>
</svg>
