<svg width="91" height="134" viewBox="0 0 91 134" fill="none" xmlns="http://www.w3.org/2000/svg">
<path d="M0.790076 81.3567C5.65246 99.0012 11.3553 116.404 18.243 133.371C18.5073 134.021 19.3629 133.975 19.8075 133.616C33.5054 122.671 47.0472 111.532 60.4147 100.183C60.736 100.264 61.0535 100.338 61.3749 100.418C62.848 100.773 63.5157 98.5126 62.0373 98.1558C59.8413 97.6236 57.644 97.0966 55.4481 96.5645C54.1547 96.2516 49.6542 95.9283 48.8589 94.9732C46.837 92.5538 49.6613 85.8734 50.4316 83.1454C52.7787 74.8475 56.2866 66.9168 60.4674 59.3912C68.7384 44.4676 79.4742 31.087 90.3318 17.9864C91.1518 17.0032 90.2374 15.6114 89.0059 16.1583C74.7443 22.5568 60.2941 28.5055 45.6657 34.0074C41.298 22.7409 35.9902 11.9197 29.7606 1.55968C29.0611 0.394108 27.5166 1.14392 27.6697 2.37669C31.172 30.4049 28.3082 58.6948 19.0923 85.3895C13.4589 83.5877 7.81751 81.795 2.17854 80.0142C1.38066 79.7611 0.56265 80.5482 0.784836 81.3553L0.790076 81.3567ZM30.5128 7.27025C35.7519 16.3755 40.2379 25.8579 43.9698 35.7004C44.164 36.2133 44.6992 36.7334 45.3116 36.504C58.9262 31.45 72.3688 25.9677 85.6531 20.1113C67.3495 42.3922 49.6102 66.3645 45.4667 95.6326C45.3994 96.1149 45.859 96.6653 46.3129 96.7756C50.5197 97.796 54.728 98.8112 58.9349 99.8316C45.9505 110.485 32.8293 120.978 19.5662 131.286C13.4233 115.379 7.96381 99.2495 3.49245 82.7891C8.82928 84.5227 14.1637 86.2444 19.5061 87.9569C20.1271 88.1571 20.7372 87.7472 20.9418 87.1724C29.9815 61.5548 33.2975 34.263 30.5114 7.27549L30.5128 7.27025Z" fill="#00B8AD"/>
</svg>
