<svg width="306" height="620" viewBox="0 0 306 620" fill="none" xmlns="http://www.w3.org/2000/svg">
<path d="M166.206 619.671C138.53 600.593 124.699 566.242 121.963 532.746C119.226 499.25 126.036 465.811 131.735 432.69C137.434 399.569 142.03 365.416 134.959 332.55C124.699 284.87 91.4863 246.042 61.1656 207.845C30.8448 169.647 1.15342 126.563 0.234184 77.8006C-0.310281 49.0001 12.0429 17.6399 38.1705 5.51306C64.694 -6.79767 95.8563 3.95741 122.267 16.5086C223.341 64.5494 310.032 137.622 395.479 209.888C416.536 227.693 438.421 246.651 448.165 272.446C457.124 296.169 454.55 322.672 449.169 347.456C434.426 415.359 399.078 478.652 348.986 526.82C298.895 574.989 234.279 607.855 165.839 619.939" fill="url(#paint0_linear_1090_11419)" fill-opacity="0.1"/>
<defs>
<linearGradient id="paint0_linear_1090_11419" x1="371.133" y1="504.773" x2="-47.3329" y2="86.3071" gradientUnits="userSpaceOnUse">
<stop stop-color="#8E64DA"/>
<stop offset="1" stop-color="#643CBC"/>
</linearGradient>
</defs>
</svg>
