<svg width="34" height="29" viewBox="0 0 34 29" fill="none" xmlns="http://www.w3.org/2000/svg">
<path d="M31.7764 0.636421C30.3152 -0.127027 28.6854 1.34534 27.73 2.21785C25.5383 4.29007 23.6838 6.68947 21.6043 8.87075C19.3001 11.2702 17.1645 13.6696 14.8041 16.0145C13.4553 17.3233 11.9941 18.7411 11.0949 20.3771C9.07174 18.4684 7.32955 16.3962 5.08156 14.7058C3.45177 13.5061 0.754189 12.6336 0.810389 15.5237C0.922788 19.2865 4.35097 23.3219 6.87995 25.8848C7.94775 26.9755 9.35274 28.1206 10.9825 28.1752C12.9495 28.2842 14.9727 25.9939 16.1529 24.7397C18.2324 22.5584 19.9184 20.1043 21.8291 17.8686C24.3019 14.9239 26.8308 12.0336 29.2474 9.03435C30.7648 7.18026 35.5418 2.59948 31.7764 0.636421Z" fill="#24B36B"/>
</svg>
