<svg width="598" height="481" viewBox="0 0 598 481" fill="none" xmlns="http://www.w3.org/2000/svg">
<rect y="0.300781" width="598" height="480" rx="8.97588" fill="#E6E6E6"/>
<path d="M100.729 253.801V228.668H104.858V253.801H100.729ZM103.565 253.801V250.031H117.639V253.801H103.565ZM103.565 242.778V239.152H116.419V242.778H103.565ZM103.565 232.438V228.668H117.46V232.438H103.565ZM121.368 253.801V236.567H125.317V253.801H121.368ZM132.821 253.801V243.532C132.821 242.383 132.462 241.498 131.744 240.876C131.026 240.229 130.14 239.906 129.087 239.906C128.369 239.906 127.723 240.05 127.148 240.337C126.598 240.624 126.155 241.043 125.82 241.594C125.485 242.12 125.317 242.766 125.317 243.532L123.773 242.671C123.773 241.354 124.06 240.217 124.635 239.26C125.209 238.302 125.987 237.56 126.969 237.034C127.95 236.483 129.051 236.208 130.272 236.208C131.492 236.208 132.593 236.471 133.575 236.998C134.556 237.525 135.334 238.267 135.909 239.224C136.483 240.181 136.77 241.33 136.77 242.671V253.801H132.821ZM144.274 253.801V243.532C144.274 242.383 143.915 241.498 143.197 240.876C142.479 240.229 141.593 239.906 140.54 239.906C139.846 239.906 139.212 240.05 138.637 240.337C138.063 240.624 137.608 241.043 137.273 241.594C136.938 242.12 136.77 242.766 136.77 243.532L134.544 242.671C134.664 241.354 135.047 240.217 135.693 239.26C136.339 238.302 137.165 237.56 138.17 237.034C139.2 236.483 140.325 236.208 141.545 236.208C142.79 236.208 143.915 236.471 144.92 236.998C145.926 237.525 146.727 238.267 147.326 239.224C147.924 240.181 148.223 241.33 148.223 242.671V253.801H144.274ZM161.52 254.16C160.203 254.16 159.03 253.885 158.001 253.334C156.972 252.76 156.158 251.982 155.56 251C154.985 250.019 154.698 248.906 154.698 247.661V242.707C154.698 241.462 154.997 240.349 155.595 239.368C156.194 238.386 157.008 237.62 158.037 237.07C159.066 236.495 160.227 236.208 161.52 236.208C163.075 236.208 164.476 236.615 165.72 237.429C166.989 238.219 167.982 239.296 168.7 240.66C169.442 242 169.813 243.52 169.813 245.22C169.813 246.895 169.442 248.415 168.7 249.78C167.982 251.12 166.989 252.185 165.72 252.975C164.476 253.765 163.075 254.16 161.52 254.16ZM160.873 250.426C161.831 250.426 162.668 250.21 163.386 249.78C164.128 249.325 164.703 248.702 165.11 247.913C165.541 247.123 165.756 246.213 165.756 245.184C165.756 244.155 165.541 243.245 165.11 242.455C164.703 241.665 164.128 241.055 163.386 240.624C162.668 240.169 161.831 239.942 160.873 239.942C159.916 239.942 159.066 240.169 158.324 240.624C157.582 241.055 157.008 241.665 156.601 242.455C156.194 243.245 155.99 244.155 155.99 245.184C155.99 246.213 156.194 247.123 156.601 247.913C157.008 248.702 157.582 249.325 158.324 249.78C159.066 250.21 159.916 250.426 160.873 250.426ZM152.292 253.801V227.95H156.242V240.804L155.56 244.969L156.242 249.169V253.801H152.292ZM181.126 254.16C179.402 254.16 177.846 253.777 176.458 253.011C175.094 252.221 174.005 251.144 173.191 249.78C172.401 248.415 172.006 246.883 172.006 245.184C172.006 243.485 172.401 241.965 173.191 240.624C173.981 239.26 175.046 238.183 176.386 237.393C177.751 236.603 179.259 236.208 180.91 236.208C182.514 236.208 183.926 236.579 185.147 237.321C186.391 238.063 187.361 239.08 188.055 240.373C188.773 241.665 189.132 243.137 189.132 244.789C189.132 245.076 189.108 245.375 189.06 245.687C189.036 245.974 188.989 246.297 188.917 246.656H174.771V243.425H186.87L185.398 244.717C185.35 243.664 185.147 242.778 184.788 242.06C184.429 241.342 183.914 240.792 183.244 240.409C182.598 240.026 181.796 239.834 180.838 239.834C179.833 239.834 178.959 240.05 178.217 240.481C177.475 240.911 176.901 241.522 176.494 242.312C176.087 243.078 175.884 243.999 175.884 245.076C175.884 246.153 176.099 247.099 176.53 247.913C176.961 248.726 177.571 249.361 178.361 249.815C179.151 250.246 180.061 250.462 181.09 250.462C181.975 250.462 182.789 250.306 183.531 249.995C184.297 249.684 184.943 249.229 185.47 248.631L187.983 251.18C187.145 252.161 186.128 252.903 184.931 253.406C183.735 253.908 182.466 254.16 181.126 254.16ZM199.515 254.16C197.959 254.16 196.547 253.765 195.278 252.975C194.033 252.185 193.04 251.12 192.298 249.78C191.58 248.415 191.221 246.895 191.221 245.22C191.221 243.52 191.58 242 192.298 240.66C193.04 239.296 194.033 238.219 195.278 237.429C196.547 236.615 197.959 236.208 199.515 236.208C200.831 236.208 201.992 236.495 202.997 237.07C204.027 237.62 204.84 238.386 205.439 239.368C206.037 240.349 206.336 241.462 206.336 242.707V247.661C206.336 248.906 206.037 250.019 205.439 251C204.864 251.982 204.062 252.76 203.033 253.334C202.004 253.885 200.831 254.16 199.515 254.16ZM200.161 250.426C201.142 250.426 201.992 250.21 202.71 249.78C203.452 249.325 204.027 248.702 204.433 247.913C204.84 247.123 205.044 246.213 205.044 245.184C205.044 244.155 204.84 243.245 204.433 242.455C204.027 241.665 203.452 241.055 202.71 240.624C201.992 240.169 201.142 239.942 200.161 239.942C199.204 239.942 198.354 240.169 197.612 240.624C196.894 241.055 196.319 241.665 195.888 242.455C195.482 243.245 195.278 244.155 195.278 245.184C195.278 246.213 195.482 247.123 195.888 247.913C196.319 248.702 196.894 249.325 197.612 249.78C198.354 250.21 199.204 250.426 200.161 250.426ZM208.742 253.801H204.793V249.169L205.475 244.969L204.793 240.804V227.95H208.742V253.801ZM232.412 254.16C230.617 254.16 228.941 253.825 227.386 253.155C225.83 252.484 224.465 251.563 223.293 250.39C222.12 249.193 221.198 247.817 220.528 246.261C219.882 244.681 219.559 242.994 219.559 241.199C219.559 239.403 219.882 237.728 220.528 236.172C221.198 234.616 222.108 233.252 223.257 232.079C224.43 230.882 225.782 229.961 227.314 229.315C228.87 228.644 230.545 228.309 232.34 228.309C234.136 228.309 235.799 228.644 237.331 229.315C238.887 229.961 240.251 230.882 241.424 232.079C242.597 233.252 243.506 234.628 244.153 236.208C244.823 237.764 245.158 239.439 245.158 241.235C245.158 243.03 244.823 244.717 244.153 246.297C243.506 247.853 242.597 249.217 241.424 250.39C240.275 251.563 238.923 252.484 237.367 253.155C235.835 253.825 234.183 254.16 232.412 254.16ZM232.34 250.21C234.04 250.21 235.524 249.827 236.792 249.062C238.085 248.296 239.09 247.242 239.808 245.902C240.55 244.538 240.921 242.97 240.921 241.199C240.921 239.882 240.706 238.685 240.275 237.608C239.868 236.507 239.282 235.562 238.516 234.772C237.75 233.958 236.84 233.336 235.787 232.905C234.758 232.474 233.609 232.259 232.34 232.259C230.665 232.259 229.181 232.642 227.888 233.408C226.62 234.15 225.614 235.191 224.872 236.531C224.154 237.872 223.795 239.427 223.795 241.199C223.795 242.515 223.999 243.736 224.406 244.861C224.837 245.962 225.423 246.907 226.165 247.697C226.931 248.487 227.84 249.109 228.894 249.564C229.947 249.995 231.096 250.21 232.34 250.21ZM251.188 253.801V235.095C251.188 233.707 251.487 232.486 252.085 231.433C252.684 230.356 253.521 229.506 254.599 228.884C255.7 228.261 256.956 227.95 258.368 227.95C259.805 227.95 260.965 228.261 261.851 228.884C262.761 229.506 263.419 230.356 263.826 231.433C264.257 232.486 264.472 233.707 264.472 235.095L261.6 235.059C261.6 233.958 261.324 233.096 260.774 232.474C260.247 231.852 259.446 231.541 258.368 231.541C257.291 231.541 256.478 231.852 255.927 232.474C255.4 233.072 255.137 233.898 255.137 234.951V253.801H251.188ZM247.059 240.157V236.567H270.755V240.157H247.059ZM261.6 253.801V234.305C261.6 232.989 261.887 231.828 262.461 230.823C263.06 229.817 263.874 229.027 264.903 228.453C265.956 227.878 267.165 227.591 268.529 227.591C269.582 227.591 270.48 227.771 271.222 228.13C271.964 228.489 272.658 229.003 273.304 229.674L270.755 232.223C270.468 231.936 270.157 231.708 269.822 231.541C269.487 231.373 269.056 231.289 268.529 231.289C267.572 231.289 266.83 231.553 266.303 232.079C265.8 232.582 265.549 233.312 265.549 234.269V253.801H261.6ZM280.842 254.16C279.119 254.16 277.563 253.777 276.175 253.011C274.81 252.221 273.721 251.144 272.907 249.78C272.118 248.415 271.723 246.883 271.723 245.184C271.723 243.485 272.118 241.965 272.907 240.624C273.697 239.26 274.762 238.183 276.103 237.393C277.467 236.603 278.975 236.208 280.627 236.208C282.23 236.208 283.643 236.579 284.863 237.321C286.108 238.063 287.077 239.08 287.771 240.373C288.49 241.665 288.849 243.137 288.849 244.789C288.849 245.076 288.825 245.375 288.777 245.687C288.753 245.974 288.705 246.297 288.633 246.656H274.487V243.425H286.587L285.115 244.717C285.067 243.664 284.863 242.778 284.504 242.06C284.145 241.342 283.631 240.792 282.96 240.409C282.314 240.026 281.512 239.834 280.555 239.834C279.55 239.834 278.676 240.05 277.934 240.481C277.192 240.911 276.617 241.522 276.211 242.312C275.804 243.078 275.6 243.999 275.6 245.076C275.6 246.153 275.816 247.099 276.246 247.913C276.677 248.726 277.288 249.361 278.078 249.815C278.867 250.246 279.777 250.462 280.806 250.462C281.692 250.462 282.506 250.306 283.248 249.995C284.014 249.684 284.66 249.229 285.186 248.631L287.7 251.18C286.862 252.161 285.845 252.903 284.648 253.406C283.451 253.908 282.182 254.16 280.842 254.16ZM292.015 253.801V236.567H295.964V253.801H292.015ZM295.964 244.215L294.6 243.532C294.6 241.354 295.078 239.595 296.036 238.255C297.017 236.89 298.489 236.208 300.452 236.208C301.314 236.208 302.091 236.364 302.786 236.675C303.48 236.986 304.126 237.489 304.724 238.183L302.139 240.84C301.828 240.505 301.481 240.265 301.098 240.122C300.715 239.978 300.272 239.906 299.77 239.906C298.669 239.906 297.759 240.253 297.041 240.947C296.323 241.641 295.964 242.731 295.964 244.215ZM326.41 254.16C324.591 254.16 322.904 253.837 321.348 253.19C319.816 252.52 318.475 251.599 317.327 250.426C316.178 249.229 315.292 247.853 314.67 246.297C314.047 244.717 313.736 243.03 313.736 241.235C313.736 239.439 314.047 237.764 314.67 236.208C315.292 234.628 316.178 233.252 317.327 232.079C318.475 230.906 319.816 229.985 321.348 229.315C322.904 228.644 324.591 228.309 326.41 228.309C328.445 228.309 330.204 228.644 331.688 229.315C333.172 229.985 334.488 230.894 335.637 232.043L332.837 234.844C332.095 234.03 331.185 233.396 330.108 232.941C329.055 232.486 327.822 232.259 326.41 232.259C325.165 232.259 324.029 232.474 322.999 232.905C321.97 233.336 321.072 233.958 320.307 234.772C319.564 235.562 318.99 236.507 318.583 237.608C318.176 238.709 317.973 239.918 317.973 241.235C317.973 242.551 318.176 243.76 318.583 244.861C318.99 245.962 319.564 246.919 320.307 247.733C321.072 248.523 321.97 249.133 322.999 249.564C324.029 249.995 325.165 250.21 326.41 250.21C327.942 250.21 329.235 249.983 330.288 249.528C331.365 249.05 332.274 248.403 333.016 247.589L335.817 250.39C334.668 251.563 333.316 252.484 331.76 253.155C330.204 253.825 328.421 254.16 326.41 254.16ZM345.653 254.16C344.097 254.16 342.685 253.765 341.417 252.975C340.172 252.185 339.179 251.12 338.437 249.78C337.719 248.415 337.36 246.895 337.36 245.22C337.36 243.52 337.719 242 338.437 240.66C339.179 239.296 340.172 238.219 341.417 237.429C342.685 236.615 344.097 236.208 345.653 236.208C346.97 236.208 348.131 236.495 349.136 237.07C350.165 237.62 350.979 238.386 351.577 239.368C352.176 240.349 352.475 241.462 352.475 242.707V247.661C352.475 248.906 352.176 250.019 351.577 251C351.003 251.982 350.201 252.76 349.172 253.334C348.143 253.885 346.97 254.16 345.653 254.16ZM346.3 250.426C347.76 250.426 348.932 249.935 349.818 248.954C350.728 247.972 351.182 246.716 351.182 245.184C351.182 244.155 350.979 243.245 350.572 242.455C350.165 241.665 349.591 241.055 348.849 240.624C348.131 240.169 347.281 239.942 346.3 239.942C345.342 239.942 344.492 240.169 343.75 240.624C343.032 241.055 342.458 241.665 342.027 242.455C341.62 243.245 341.417 244.155 341.417 245.184C341.417 246.213 341.62 247.123 342.027 247.913C342.458 248.702 343.032 249.325 343.75 249.78C344.492 250.21 345.342 250.426 346.3 250.426ZM350.931 253.801V249.169L351.613 244.969L350.931 240.804V236.567H354.88V253.801H350.931ZM359.264 253.801V236.567H363.213V253.801H359.264ZM370.717 253.801V243.532C370.717 242.383 370.358 241.498 369.64 240.876C368.922 240.229 368.036 239.906 366.983 239.906C366.265 239.906 365.618 240.05 365.044 240.337C364.493 240.624 364.051 241.043 363.716 241.594C363.38 242.12 363.213 242.766 363.213 243.532L361.669 242.671C361.669 241.354 361.956 240.217 362.531 239.26C363.105 238.302 363.883 237.56 364.864 237.034C365.846 236.483 366.947 236.208 368.168 236.208C369.388 236.208 370.489 236.471 371.471 236.998C372.452 237.525 373.23 238.267 373.804 239.224C374.379 240.181 374.666 241.33 374.666 242.671V253.801H370.717ZM382.17 253.801V243.532C382.17 242.383 381.811 241.498 381.093 240.876C380.375 240.229 379.489 239.906 378.436 239.906C377.742 239.906 377.108 240.05 376.533 240.337C375.959 240.624 375.504 241.043 375.169 241.594C374.834 242.12 374.666 242.766 374.666 243.532L372.44 242.671C372.56 241.354 372.943 240.217 373.589 239.26C374.235 238.302 375.061 237.56 376.066 237.034C377.096 236.483 378.221 236.208 379.441 236.208C380.686 236.208 381.811 236.471 382.816 236.998C383.822 237.525 384.623 238.267 385.222 239.224C385.82 240.181 386.119 241.33 386.119 242.671V253.801H382.17ZM397.405 254.16C395.849 254.16 394.437 253.765 393.168 252.975C391.924 252.185 390.93 251.12 390.188 249.78C389.47 248.415 389.111 246.895 389.111 245.22C389.111 243.52 389.47 242 390.188 240.66C390.93 239.296 391.924 238.219 393.168 237.429C394.437 236.615 395.849 236.208 397.405 236.208C398.721 236.208 399.882 236.495 400.887 237.07C401.917 237.62 402.731 238.386 403.329 239.368C403.927 240.349 404.227 241.462 404.227 242.707V247.661C404.227 248.906 403.927 250.019 403.329 251C402.754 251.982 401.953 252.76 400.923 253.334C399.894 253.885 398.721 254.16 397.405 254.16ZM398.051 250.426C399.511 250.426 400.684 249.935 401.57 248.954C402.479 247.972 402.934 246.716 402.934 245.184C402.934 244.155 402.731 243.245 402.324 242.455C401.917 241.665 401.342 241.055 400.6 240.624C399.882 240.169 399.032 239.942 398.051 239.942C397.094 239.942 396.244 240.169 395.502 240.624C394.784 241.055 394.209 241.665 393.779 242.455C393.372 243.245 393.168 244.155 393.168 245.184C393.168 246.213 393.372 247.123 393.779 247.913C394.209 248.702 394.784 249.325 395.502 249.78C396.244 250.21 397.094 250.426 398.051 250.426ZM402.683 253.801V249.169L403.365 244.969L402.683 240.804V236.567H406.632V253.801H402.683ZM420.242 254.16C418.926 254.16 417.753 253.885 416.724 253.334C415.694 252.76 414.881 251.982 414.282 251C413.708 250.019 413.421 248.906 413.421 247.661V242.707C413.421 241.462 413.72 240.349 414.318 239.368C414.917 238.386 415.73 237.62 416.76 237.07C417.789 236.495 418.95 236.208 420.242 236.208C421.798 236.208 423.198 236.615 424.443 237.429C425.712 238.219 426.705 239.296 427.423 240.66C428.165 242 428.536 243.52 428.536 245.22C428.536 246.895 428.165 248.415 427.423 249.78C426.705 251.12 425.712 252.185 424.443 252.975C423.198 253.765 421.798 254.16 420.242 254.16ZM419.596 250.426C420.553 250.426 421.391 250.21 422.109 249.78C422.851 249.325 423.426 248.702 423.833 247.913C424.263 247.123 424.479 246.213 424.479 245.184C424.479 244.155 424.263 243.245 423.833 242.455C423.426 241.665 422.851 241.055 422.109 240.624C421.391 240.169 420.553 239.942 419.596 239.942C418.639 239.942 417.789 240.169 417.047 240.624C416.305 241.055 415.73 241.665 415.323 242.455C414.917 243.245 414.713 244.155 414.713 245.184C414.713 246.213 414.917 247.123 415.323 247.913C415.73 248.702 416.305 249.325 417.047 249.78C417.789 250.21 418.639 250.426 419.596 250.426ZM411.015 260.981V236.567H414.964V241.199L414.282 245.399L414.964 249.564V260.981H411.015ZM439.059 254.16C437.503 254.16 436.091 253.765 434.822 252.975C433.577 252.185 432.584 251.12 431.842 249.78C431.124 248.415 430.765 246.895 430.765 245.22C430.765 243.52 431.124 242 431.842 240.66C432.584 239.296 433.577 238.219 434.822 237.429C436.091 236.615 437.503 236.208 439.059 236.208C440.375 236.208 441.536 236.495 442.541 237.07C443.57 237.62 444.384 238.386 444.983 239.368C445.581 240.349 445.88 241.462 445.88 242.707V247.661C445.88 248.906 445.581 250.019 444.983 251C444.408 251.982 443.606 252.76 442.577 253.334C441.548 253.885 440.375 254.16 439.059 254.16ZM439.705 250.426C441.165 250.426 442.338 249.935 443.223 248.954C444.133 247.972 444.588 246.716 444.588 245.184C444.588 244.155 444.384 243.245 443.977 242.455C443.57 241.665 442.996 241.055 442.254 240.624C441.536 240.169 440.686 239.942 439.705 239.942C438.747 239.942 437.898 240.169 437.156 240.624C436.438 241.055 435.863 241.665 435.432 242.455C435.025 243.245 434.822 244.155 434.822 245.184C434.822 246.213 435.025 247.123 435.432 247.913C435.863 248.702 436.438 249.325 437.156 249.78C437.898 250.21 438.747 250.426 439.705 250.426ZM444.336 253.801V249.169L445.019 244.969L444.336 240.804V236.567H448.286V253.801H444.336ZM452.705 253.801V236.567H456.654V253.801H452.705ZM454.679 233.408C454.009 233.408 453.447 233.18 452.992 232.725C452.561 232.271 452.346 231.708 452.346 231.038C452.346 230.368 452.561 229.805 452.992 229.35C453.447 228.896 454.009 228.668 454.679 228.668C455.374 228.668 455.936 228.896 456.367 229.35C456.798 229.805 457.013 230.368 457.013 231.038C457.013 231.708 456.798 232.271 456.367 232.725C455.936 233.18 455.374 233.408 454.679 233.408ZM468.264 261.341C466.445 261.341 464.854 261.005 463.489 260.335C462.125 259.689 461.024 258.767 460.186 257.571L462.771 254.986C463.465 255.847 464.255 256.494 465.141 256.924C466.026 257.355 467.092 257.571 468.336 257.571C469.892 257.571 471.125 257.164 472.034 256.35C472.944 255.56 473.399 254.471 473.399 253.083V248.846L474.081 245.04L473.399 241.199V236.567H477.348V253.083C477.348 254.734 476.965 256.17 476.199 257.391C475.433 258.636 474.368 259.605 473.004 260.299C471.639 260.993 470.06 261.341 468.264 261.341ZM468.085 253.442C466.553 253.442 465.165 253.071 463.92 252.329C462.699 251.563 461.73 250.522 461.012 249.205C460.318 247.889 459.971 246.417 459.971 244.789C459.971 243.161 460.318 241.701 461.012 240.409C461.73 239.116 462.699 238.099 463.92 237.357C465.165 236.591 466.553 236.208 468.085 236.208C469.449 236.208 470.646 236.483 471.675 237.034C472.704 237.584 473.506 238.35 474.081 239.332C474.655 240.289 474.942 241.414 474.942 242.707V246.943C474.942 248.212 474.643 249.337 474.045 250.318C473.47 251.3 472.669 252.065 471.639 252.616C470.61 253.166 469.425 253.442 468.085 253.442ZM468.875 249.708C469.832 249.708 470.67 249.504 471.388 249.097C472.106 248.691 472.657 248.128 473.04 247.41C473.446 246.668 473.65 245.806 473.65 244.825C473.65 243.844 473.446 242.994 473.04 242.276C472.657 241.534 472.106 240.959 471.388 240.552C470.67 240.145 469.832 239.942 468.875 239.942C467.917 239.942 467.068 240.145 466.326 240.552C465.608 240.959 465.045 241.534 464.638 242.276C464.231 242.994 464.028 243.844 464.028 244.825C464.028 245.782 464.231 246.632 464.638 247.374C465.045 248.116 465.608 248.691 466.326 249.097C467.068 249.504 467.917 249.708 468.875 249.708ZM493.547 253.801V243.856C493.547 242.707 493.176 241.761 492.434 241.019C491.716 240.277 490.783 239.906 489.634 239.906C488.868 239.906 488.186 240.074 487.587 240.409C486.989 240.744 486.522 241.211 486.187 241.809C485.852 242.407 485.685 243.09 485.685 243.856L484.141 242.994C484.141 241.677 484.428 240.516 485.002 239.511C485.577 238.482 486.367 237.68 487.372 237.106C488.401 236.507 489.55 236.208 490.819 236.208C492.111 236.208 493.26 236.543 494.266 237.213C495.271 237.86 496.061 238.709 496.635 239.763C497.21 240.792 497.497 241.869 497.497 242.994V253.801H493.547ZM481.735 253.801V236.567H485.685V253.801H481.735Z" fill="#1F2B57"/>
</svg>
