<svg width="667" height="468" viewBox="0 0 667 468" fill="none" xmlns="http://www.w3.org/2000/svg">
<rect x="0.333344" y="0.852051" width="666.667" height="466.667" rx="8.97588" fill="#E6E6E6"/>
<path d="M231.395 247.686V222.553H235.524V247.686H231.395ZM240.967 247.686V222.553H243.84L254.288 239.751H252.421L262.868 222.553H265.741V247.686H261.612V229.806L262.545 230.057L254.79 242.803H251.918L244.163 230.057L245.096 229.806V247.686H240.967ZM269.324 247.686L279.664 222.553H282.536L292.805 247.686H288.353L280.31 227.328H281.818L273.704 247.686H269.324ZM274.422 242.839V239.248H287.742V242.839H274.422ZM305.958 248.045C304.234 248.045 302.607 247.709 301.075 247.039C299.543 246.369 298.203 245.448 297.054 244.275C295.905 243.078 294.995 241.702 294.325 240.146C293.679 238.566 293.356 236.879 293.356 235.083C293.356 233.288 293.679 231.613 294.325 230.057C294.995 228.501 295.905 227.137 297.054 225.964C298.226 224.767 299.591 223.846 301.147 223.199C302.726 222.529 304.426 222.194 306.245 222.194C308.232 222.194 310.075 222.577 311.774 223.343C313.474 224.109 314.898 225.198 316.047 226.61L313.246 229.411C312.504 228.357 311.511 227.556 310.266 227.005C309.021 226.431 307.681 226.143 306.245 226.143C304.522 226.143 303.002 226.526 301.685 227.292C300.393 228.034 299.387 229.076 298.669 230.416C297.951 231.756 297.592 233.312 297.592 235.083C297.592 236.855 297.951 238.422 298.669 239.787C299.411 241.127 300.405 242.18 301.649 242.946C302.894 243.712 304.306 244.095 305.886 244.095C307.561 244.095 308.998 243.796 310.194 243.198C311.415 242.575 312.349 241.666 312.995 240.469C313.641 239.248 313.964 237.752 313.964 235.981L316.549 237.848H305.814V234.078H318.237V234.653C318.237 237.645 317.698 240.134 316.621 242.121C315.568 244.107 314.12 245.591 312.277 246.573C310.434 247.554 308.327 248.045 305.958 248.045ZM322.346 247.686V222.553H326.475V247.686H322.346ZM325.183 247.686V243.916H339.257V247.686H325.183ZM325.183 236.663V233.037H338.036V236.663H325.183ZM325.183 226.323V222.553H339.077V226.323H325.183ZM350.711 247.686V222.553H354.84V247.686H350.711ZM366.689 247.686V222.553H370.817V247.686H366.689ZM353.548 236.555V232.786H367.586V236.555H353.548ZM376.272 247.686V222.553H380.401V247.686H376.272ZM379.108 247.686V243.916H393.182V247.686H379.108ZM379.108 236.663V233.037H391.962V236.663H379.108ZM379.108 226.323V222.553H393.003V226.323H379.108ZM400.286 237.022V233.611H406.64C407.909 233.611 408.89 233.288 409.585 232.642C410.303 231.972 410.662 231.05 410.662 229.877C410.662 228.824 410.315 227.939 409.62 227.221C408.926 226.502 407.945 226.143 406.676 226.143H400.286V222.553H406.856C408.436 222.553 409.824 222.876 411.021 223.522C412.217 224.145 413.139 225.006 413.785 226.108C414.455 227.185 414.791 228.417 414.791 229.806C414.791 231.266 414.455 232.534 413.785 233.611C413.139 234.688 412.217 235.526 411.021 236.125C409.824 236.723 408.436 237.022 406.856 237.022H400.286ZM397.449 247.686V222.553H401.578V247.686H397.449ZM411.236 247.686L402.44 236.771L406.281 235.371L416.442 247.686H411.236ZM419.503 247.686V222.553H423.632V247.686H419.503ZM422.34 247.686V243.916H436.414V247.686H422.34ZM422.34 236.663V233.037H435.193V236.663H422.34ZM422.34 226.323V222.553H436.234V226.323H422.34Z" fill="#1F2B57"/>
</svg>
