<svg width="1620" height="721" viewBox="0 0 1620 721" fill="none" xmlns="http://www.w3.org/2000/svg">
<g opacity="0.1">
<rect y="0.103516" width="1620" height="720" rx="30" fill="url(#paint0_linear_411_174)"/>
</g>
<path d="M707.729 374.104V348.971H711.858V374.104H707.729ZM717.301 374.104V348.971H720.173L730.621 366.169H728.754L739.202 348.971H742.074V374.104H737.945V356.224L738.879 356.475L731.123 369.221H728.251L720.496 356.475L721.43 356.224V374.104H717.301ZM745.657 374.104L755.997 348.971H758.87L769.138 374.104H764.686L756.644 353.746H758.152L750.037 374.104H745.657ZM750.755 369.257V365.666H764.076V369.257H750.755ZM782.291 374.463C780.568 374.463 778.94 374.127 777.408 373.457C775.876 372.787 774.536 371.866 773.387 370.693C772.238 369.496 771.328 368.12 770.658 366.564C770.012 364.984 769.689 363.297 769.689 361.501C769.689 359.706 770.012 358.031 770.658 356.475C771.328 354.919 772.238 353.555 773.387 352.382C774.56 351.185 775.924 350.264 777.48 349.617C779.06 348.947 780.759 348.612 782.578 348.612C784.565 348.612 786.408 348.995 788.107 349.761C789.807 350.527 791.231 351.616 792.38 353.028L789.579 355.829C788.837 354.775 787.844 353.974 786.599 353.423C785.355 352.849 784.014 352.561 782.578 352.561C780.855 352.561 779.335 352.944 778.019 353.71C776.726 354.452 775.721 355.494 775.003 356.834C774.285 358.174 773.926 359.73 773.926 361.501C773.926 363.273 774.285 364.84 775.003 366.205C775.745 367.545 776.738 368.598 777.983 369.364C779.227 370.13 780.639 370.513 782.219 370.513C783.895 370.513 785.331 370.214 786.528 369.616C787.748 368.993 788.682 368.084 789.328 366.887C789.974 365.666 790.298 364.17 790.298 362.399L792.883 364.266H782.147V360.496H794.57V361.071C794.57 364.062 794.031 366.552 792.954 368.538C791.901 370.525 790.453 372.009 788.61 372.991C786.767 373.972 784.661 374.463 782.291 374.463ZM798.68 374.104V348.971H802.809V374.104H798.68ZM801.516 374.104V370.334H815.59V374.104H801.516ZM801.516 363.081V359.455H814.369V363.081H801.516ZM801.516 352.741V348.971H815.411V352.741H801.516ZM827.045 374.104V348.971H831.174V374.104H827.045ZM843.022 374.104V348.971H847.151V374.104H843.022ZM829.881 362.973V359.204H843.919V362.973H829.881ZM852.605 374.104V348.971H856.734V374.104H852.605ZM855.441 374.104V370.334H869.516V374.104H855.441ZM855.441 363.081V359.455H868.295V363.081H855.441ZM855.441 352.741V348.971H869.336V352.741H855.441ZM876.619 363.44V360.029H882.974C884.242 360.029 885.224 359.706 885.918 359.06C886.636 358.39 886.995 357.468 886.995 356.295C886.995 355.242 886.648 354.357 885.954 353.639C885.26 352.92 884.278 352.561 883.01 352.561H876.619V348.971H883.189C884.769 348.971 886.157 349.294 887.354 349.94C888.551 350.563 889.472 351.424 890.119 352.525C890.789 353.603 891.124 354.835 891.124 356.224C891.124 357.684 890.789 358.952 890.119 360.029C889.472 361.106 888.551 361.944 887.354 362.543C886.157 363.141 884.769 363.44 883.189 363.44H876.619ZM873.782 374.104V348.971H877.911V374.104H873.782ZM887.569 374.104L878.773 363.189L882.615 361.789L892.775 374.104H887.569ZM895.837 374.104V348.971H899.965V374.104H895.837ZM898.673 374.104V370.334H912.747V374.104H898.673ZM898.673 363.081V359.455H911.526V363.081H898.673ZM898.673 352.741V348.971H912.568V352.741H898.673Z" fill="white"/>
<defs>
<linearGradient id="paint0_linear_411_174" x1="810" y1="0.103516" x2="810" y2="720.104" gradientUnits="userSpaceOnUse">
<stop stop-color="white" stop-opacity="0"/>
<stop offset="1" stop-color="white"/>
</linearGradient>
</defs>
</svg>
