<svg width="667" height="734" viewBox="0 0 667 734" fill="none" xmlns="http://www.w3.org/2000/svg">
<mask id="mask0_103_617" style="mask-type:alpha" maskUnits="userSpaceOnUse" x="66" y="70" width="534" height="664">
<path d="M66.3333 70.8894H506.333C557.88 70.8894 599.667 112.676 599.667 164.223V640.223C599.667 691.769 557.88 733.556 506.333 733.556H159.667C108.12 733.556 66.3333 691.769 66.3333 640.223V70.8894Z" fill="#9595C9"/>
</mask>
<g mask="url(#mask0_103_617)">
<rect x="-167" y="68.8894" width="1000" height="666.667" fill="#9595C9"/>
</g>
<rect x="516" y="61.8894" width="114.667" height="114.667" rx="57.3333" fill="#640EF1"/>
<path d="M585.345 137.061H561.322C560.249 137.061 559.048 136.217 558.69 135.195L548.11 105.602C546.602 101.36 548.366 100.056 551.995 102.663L561.961 109.793C563.622 110.943 565.513 110.355 566.229 108.49L570.727 96.5042C572.158 92.6708 574.535 92.6708 575.966 96.5042L580.463 108.49C581.179 110.355 583.07 110.943 584.706 109.793L594.059 103.123C598.046 100.261 599.962 101.717 598.327 106.343L588.002 135.246C587.619 136.217 586.418 137.061 585.345 137.061Z" stroke="white" stroke-width="4" stroke-linecap="round" stroke-linejoin="round"/>
<path d="M559.278 144.779H587.389" stroke="white" stroke-width="4" stroke-linecap="round" stroke-linejoin="round"/>
<path d="M566.944 124.334H579.722" stroke="white" stroke-width="4" stroke-linecap="round" stroke-linejoin="round"/>
<rect y="0.556152" width="174.667" height="213.333" rx="34.6667" fill="white"/>
<path d="M74.2488 73.6062V68.3162" stroke="#640EF1" stroke-width="4" stroke-linecap="round"/>
<path d="M87.3333 73.6061V63.0261" stroke="#640EF1" stroke-width="4" stroke-linecap="round"/>
<path d="M100.418 73.606V57.7104" stroke="#640EF1" stroke-width="4" stroke-linecap="round"/>
<path d="M100.418 42.1726L99.2422 43.5526C92.7255 51.1682 83.9855 56.5604 74.2488 58.9882" stroke="#640EF1" stroke-width="4" stroke-linecap="round"/>
<path d="M92.93 42.1726H100.418V49.6348" stroke="#640EF1" stroke-width="4" stroke-linecap="round" stroke-linejoin="round"/>
<path d="M79.6667 83.4449H95C107.778 83.4449 112.889 78.3337 112.889 65.556V50.2226C112.889 37.4449 107.778 32.3337 95 32.3337H79.6667C66.8889 32.3337 61.7778 37.4449 61.7778 50.2226V65.556C61.7778 78.3337 66.8889 83.4449 79.6667 83.4449Z" stroke="#640EF1" stroke-width="4" stroke-linecap="round" stroke-linejoin="round"/>
<path d="M31.89 127.279H24.402V130.591C24.722 130.239 25.17 129.951 25.746 129.727C26.322 129.503 26.946 129.391 27.618 129.391C28.818 129.391 29.81 129.663 30.594 130.207C31.394 130.751 31.978 131.455 32.346 132.319C32.714 133.183 32.898 134.119 32.898 135.127C32.898 136.999 32.37 138.487 31.314 139.591C30.258 140.679 28.77 141.223 26.85 141.223C25.57 141.223 24.458 141.007 23.514 140.575C22.57 140.127 21.842 139.511 21.33 138.727C20.818 137.943 20.538 137.039 20.49 136.015H24.498C24.594 136.511 24.826 136.927 25.194 137.263C25.562 137.583 26.066 137.743 26.706 137.743C27.458 137.743 28.018 137.503 28.386 137.023C28.754 136.543 28.938 135.903 28.938 135.103C28.938 134.319 28.746 133.719 28.362 133.303C27.978 132.887 27.418 132.679 26.682 132.679C26.138 132.679 25.69 132.815 25.338 133.087C24.986 133.343 24.754 133.687 24.642 134.119H20.682V123.679H31.89V127.279ZM44.7154 118.423L38.2834 145.711H34.3234L40.7554 118.423H44.7154ZM58.3744 127.279H50.8864V130.591C51.2064 130.239 51.6544 129.951 52.2304 129.727C52.8064 129.503 53.4304 129.391 54.1024 129.391C55.3024 129.391 56.2944 129.663 57.0784 130.207C57.8784 130.751 58.4624 131.455 58.8304 132.319C59.1984 133.183 59.3824 134.119 59.3824 135.127C59.3824 136.999 58.8544 138.487 57.7984 139.591C56.7424 140.679 55.2544 141.223 53.3344 141.223C52.0544 141.223 50.9424 141.007 49.9984 140.575C49.0544 140.127 48.3264 139.511 47.8144 138.727C47.3024 137.943 47.0224 137.039 46.9744 136.015H50.9824C51.0784 136.511 51.3104 136.927 51.6784 137.263C52.0464 137.583 52.5504 137.743 53.1904 137.743C53.9424 137.743 54.5024 137.503 54.8704 137.023C55.2384 136.543 55.4224 135.903 55.4224 135.103C55.4224 134.319 55.2304 133.719 54.8464 133.303C54.4624 132.887 53.9024 132.679 53.1664 132.679C52.6224 132.679 52.1744 132.815 51.8224 133.087C51.4704 133.343 51.2384 133.687 51.1264 134.119H47.1664V123.679H58.3744V127.279ZM78.3257 129.703C78.0217 129.143 77.5817 128.719 77.0057 128.431C76.4457 128.127 75.7817 127.975 75.0137 127.975C73.6857 127.975 72.6217 128.415 71.8217 129.295C71.0217 130.159 70.6217 131.319 70.6217 132.775C70.6217 134.327 71.0377 135.543 71.8697 136.423C72.7177 137.287 73.8777 137.719 75.3497 137.719C76.3577 137.719 77.2057 137.463 77.8937 136.951C78.5977 136.439 79.1097 135.703 79.4297 134.743H74.2217V131.719H83.1497V135.535C82.8457 136.559 82.3257 137.511 81.5897 138.391C80.8697 139.271 79.9497 139.983 78.8297 140.527C77.7097 141.071 76.4457 141.343 75.0377 141.343C73.3737 141.343 71.8857 140.983 70.5737 140.263C69.2777 139.527 68.2617 138.511 67.5257 137.215C66.8057 135.919 66.4457 134.439 66.4457 132.775C66.4457 131.111 66.8057 129.631 67.5257 128.335C68.2617 127.023 69.2777 126.007 70.5737 125.287C71.8697 124.551 73.3497 124.183 75.0137 124.183C77.0297 124.183 78.7257 124.671 80.1017 125.647C81.4937 126.623 82.4137 127.975 82.8617 129.703H78.3257ZM89.5269 130.063C90.0069 129.327 90.6069 128.751 91.3269 128.335C92.0469 127.903 92.8469 127.687 93.7269 127.687V132.031H92.5989C91.5749 132.031 90.8069 132.255 90.2949 132.703C89.7829 133.135 89.5269 133.903 89.5269 135.007V141.223H85.4229V127.831H89.5269V130.063ZM101.785 141.415C100.473 141.415 99.2886 141.135 98.2326 140.575C97.1926 140.015 96.3686 139.215 95.7606 138.175C95.1686 137.135 94.8726 135.919 94.8726 134.527C94.8726 133.151 95.1766 131.943 95.7846 130.903C96.3926 129.847 97.2246 129.039 98.2806 128.479C99.3366 127.919 100.521 127.639 101.833 127.639C103.145 127.639 104.329 127.919 105.385 128.479C106.441 129.039 107.273 129.847 107.881 130.903C108.489 131.943 108.793 133.151 108.793 134.527C108.793 135.903 108.481 137.119 107.857 138.175C107.249 139.215 106.409 140.015 105.337 140.575C104.281 141.135 103.097 141.415 101.785 141.415ZM101.785 137.863C102.569 137.863 103.233 137.575 103.777 136.999C104.337 136.423 104.617 135.599 104.617 134.527C104.617 133.455 104.345 132.631 103.801 132.055C103.273 131.479 102.617 131.191 101.833 131.191C101.033 131.191 100.369 131.479 99.8406 132.055C99.3126 132.615 99.0486 133.439 99.0486 134.527C99.0486 135.599 99.3046 136.423 99.8166 136.999C100.345 137.575 101.001 137.863 101.785 137.863ZM130.194 127.831L126.57 141.223H122.034L119.922 132.535L117.738 141.223H113.226L109.578 127.831H113.682L115.578 137.407L117.834 127.831H122.178L124.458 137.359L126.33 127.831H130.194ZM139.223 137.743V141.223H137.135C135.647 141.223 134.487 140.863 133.655 140.143C132.823 139.407 132.407 138.215 132.407 136.567V131.239H130.775V127.831H132.407V124.567H136.511V127.831H139.199V131.239H136.511V136.615C136.511 137.015 136.607 137.303 136.799 137.479C136.991 137.655 137.311 137.743 137.759 137.743H139.223ZM149.741 127.687C151.277 127.687 152.509 128.199 153.437 129.223C154.365 130.231 154.829 131.623 154.829 133.399V141.223H150.749V133.951C150.749 133.055 150.517 132.359 150.053 131.863C149.589 131.367 148.965 131.119 148.181 131.119C147.397 131.119 146.773 131.367 146.309 131.863C145.845 132.359 145.613 133.055 145.613 133.951V141.223H141.509V123.463H145.613V129.631C146.029 129.039 146.597 128.567 147.317 128.215C148.037 127.863 148.845 127.687 149.741 127.687Z" fill="#080C2E"/>
<path d="M34 153.889L36.6942 162.181H45.4127L38.3593 167.306L41.0534 175.598L34 170.473L26.9466 175.598L29.6407 167.306L22.5873 162.181H31.3058L34 153.889Z" fill="#FF961A"/>
<path d="M60.6667 153.889L63.3609 162.181H72.0794L65.0259 167.306L67.7201 175.598L60.6667 170.473L53.6133 175.598L56.3074 167.306L49.254 162.181H57.9725L60.6667 153.889Z" fill="#FF961A"/>
<path d="M87.3333 153.889L90.0275 162.181H98.746L91.6926 167.306L94.3867 175.598L87.3333 170.473L80.2799 175.598L82.9741 167.306L75.9206 162.181H84.6391L87.3333 153.889Z" fill="#FF961A"/>
<path d="M114 153.889L116.694 162.181H125.413L118.359 167.306L121.053 175.598L114 170.473L106.947 175.598L109.641 167.306L102.587 162.181H111.306L114 153.889Z" fill="#FF961A"/>
<path d="M140.667 153.889L143.361 162.181H152.079L145.026 167.306L147.72 175.598L140.667 170.473L133.613 175.598L136.307 167.306L129.254 162.181H137.973L140.667 153.889Z" fill="#FF961A"/>
<rect x="307" y="525.556" width="360" height="128" rx="34.6667" fill="white"/>
<path d="M355.389 607.369H354.111C343.889 607.369 338.778 604.813 338.778 592.035V579.257C338.778 569.035 343.889 563.924 354.111 563.924H374.556C384.778 563.924 389.889 569.035 389.889 579.257V592.035C389.889 602.257 384.778 607.369 374.556 607.369H373.278C372.486 607.369 371.719 607.752 371.233 608.391L367.4 613.502C365.713 615.751 362.953 615.751 361.267 613.502L357.433 608.391C357.024 607.829 356.105 607.369 355.389 607.369Z" stroke="#640EF1" stroke-width="4" stroke-miterlimit="10" stroke-linecap="round" stroke-linejoin="round"/>
<path d="M354.111 581.123L349 586.234L354.111 591.345" stroke="#640EF1" stroke-width="4" stroke-miterlimit="10" stroke-linecap="round" stroke-linejoin="round"/>
<path d="M374.556 581.123L379.667 586.234L374.556 591.345" stroke="#640EF1" stroke-width="4" stroke-miterlimit="10" stroke-linecap="round" stroke-linejoin="round"/>
<path d="M366.889 580.28L361.778 592.189" stroke="#640EF1" stroke-width="4" stroke-miterlimit="10" stroke-linecap="round" stroke-linejoin="round"/>
<path d="M434.973 577.916H427.987L426.867 581.223H422.093L428.867 562.503H434.147L440.92 581.223H436.093L434.973 577.916ZM433.8 574.396L431.48 567.543L429.187 574.396H433.8ZM447.541 562.503V581.223H442.981V562.503H447.541ZM468.15 577.916H461.164L460.044 581.223H455.27L462.044 562.503H467.324L474.097 581.223H469.27L468.15 577.916ZM466.977 574.396L464.657 567.543L462.364 574.396H466.977ZM490.852 566.343V581.223H486.292V579.196C485.83 579.854 485.199 580.387 484.399 580.796C483.616 581.187 482.745 581.383 481.785 581.383C480.647 581.383 479.643 581.134 478.772 580.636C477.901 580.121 477.225 579.383 476.745 578.423C476.265 577.463 476.025 576.334 476.025 575.036V566.343H480.559V574.423C480.559 575.418 480.816 576.192 481.332 576.743C481.847 577.294 482.541 577.57 483.412 577.57C484.301 577.57 485.003 577.294 485.519 576.743C486.034 576.192 486.292 575.418 486.292 574.423V566.343H490.852ZM502.421 577.356V581.223H500.101C498.447 581.223 497.158 580.823 496.234 580.023C495.309 579.205 494.847 577.881 494.847 576.05V570.13H493.034V566.343H494.847V562.716H499.407V566.343H502.394V570.13H499.407V576.103C499.407 576.547 499.514 576.867 499.727 577.063C499.941 577.258 500.296 577.356 500.794 577.356H502.421ZM511.734 581.436C510.276 581.436 508.961 581.125 507.787 580.503C506.632 579.881 505.716 578.992 505.041 577.836C504.383 576.681 504.054 575.33 504.054 573.783C504.054 572.254 504.392 570.912 505.067 569.756C505.743 568.583 506.667 567.685 507.841 567.063C509.014 566.441 510.329 566.13 511.787 566.13C513.245 566.13 514.561 566.441 515.734 567.063C516.907 567.685 517.832 568.583 518.507 569.756C519.183 570.912 519.521 572.254 519.521 573.783C519.521 575.312 519.174 576.663 518.481 577.836C517.805 578.992 516.872 579.881 515.681 580.503C514.507 581.125 513.192 581.436 511.734 581.436ZM511.734 577.49C512.605 577.49 513.343 577.17 513.947 576.53C514.569 575.89 514.881 574.974 514.881 573.783C514.881 572.592 514.578 571.676 513.974 571.036C513.387 570.396 512.658 570.076 511.787 570.076C510.898 570.076 510.161 570.396 509.574 571.036C508.987 571.658 508.694 572.574 508.694 573.783C508.694 574.974 508.978 575.89 509.547 576.53C510.134 577.17 510.863 577.49 511.734 577.49ZM540.926 566.183C542.775 566.183 544.242 566.743 545.326 567.863C546.429 568.983 546.98 570.538 546.98 572.53V581.223H542.446V573.143C542.446 572.183 542.189 571.445 541.673 570.93C541.175 570.396 540.482 570.13 539.593 570.13C538.704 570.13 538.002 570.396 537.486 570.93C536.989 571.445 536.74 572.183 536.74 573.143V581.223H532.206V573.143C532.206 572.183 531.949 571.445 531.433 570.93C530.935 570.396 530.242 570.13 529.353 570.13C528.464 570.13 527.762 570.396 527.246 570.93C526.749 571.445 526.5 572.183 526.5 573.143V581.223H521.94V566.343H526.5V568.21C526.962 567.587 527.566 567.098 528.313 566.743C529.06 566.37 529.904 566.183 530.846 566.183C531.966 566.183 532.962 566.423 533.833 566.903C534.722 567.383 535.415 568.067 535.913 568.956C536.429 568.138 537.131 567.472 538.02 566.956C538.909 566.441 539.878 566.183 540.926 566.183ZM549.262 573.756C549.262 572.227 549.547 570.885 550.116 569.73C550.702 568.574 551.493 567.685 552.489 567.063C553.484 566.441 554.596 566.13 555.822 566.13C556.871 566.13 557.787 566.343 558.569 566.77C559.369 567.196 559.982 567.756 560.409 568.45V566.343H564.969V581.223H560.409V579.116C559.964 579.81 559.342 580.37 558.542 580.796C557.76 581.223 556.844 581.436 555.796 581.436C554.587 581.436 553.484 581.125 552.489 580.503C551.493 579.863 550.702 578.965 550.116 577.81C549.547 576.636 549.262 575.285 549.262 573.756ZM560.409 573.783C560.409 572.645 560.089 571.747 559.449 571.09C558.827 570.432 558.062 570.103 557.156 570.103C556.249 570.103 555.476 570.432 554.836 571.09C554.213 571.73 553.902 572.618 553.902 573.756C553.902 574.894 554.213 575.801 554.836 576.476C555.476 577.134 556.249 577.463 557.156 577.463C558.062 577.463 558.827 577.134 559.449 576.476C560.089 575.818 560.409 574.921 560.409 573.783ZM576.561 577.356V581.223H574.241C572.588 581.223 571.299 580.823 570.375 580.023C569.45 579.205 568.988 577.881 568.988 576.05V570.13H567.175V566.343H568.988V562.716H573.548V566.343H576.535V570.13H573.548V576.103C573.548 576.547 573.655 576.867 573.868 577.063C574.081 577.258 574.437 577.356 574.935 577.356H576.561ZM581.395 564.796C580.595 564.796 579.937 564.565 579.421 564.103C578.923 563.623 578.675 563.036 578.675 562.343C578.675 561.632 578.923 561.045 579.421 560.583C579.937 560.103 580.595 559.863 581.395 559.863C582.177 559.863 582.817 560.103 583.315 560.583C583.83 561.045 584.088 561.632 584.088 562.343C584.088 563.036 583.83 563.623 583.315 564.103C582.817 564.565 582.177 564.796 581.395 564.796ZM583.661 566.343V581.223H579.101V566.343H583.661ZM593.739 581.436C592.281 581.436 590.966 581.125 589.792 580.503C588.637 579.881 587.721 578.992 587.046 577.836C586.388 576.681 586.059 575.33 586.059 573.783C586.059 572.254 586.397 570.912 587.072 569.756C587.748 568.583 588.672 567.685 589.846 567.063C591.019 566.441 592.335 566.13 593.792 566.13C595.25 566.13 596.566 566.441 597.739 567.063C598.912 567.685 599.837 568.583 600.512 569.756C601.188 570.912 601.526 572.254 601.526 573.783C601.526 575.312 601.179 576.663 600.486 577.836C599.81 578.992 598.877 579.881 597.686 580.503C596.512 581.125 595.197 581.436 593.739 581.436ZM593.739 577.49C594.61 577.49 595.348 577.17 595.952 576.53C596.575 575.89 596.886 574.974 596.886 573.783C596.886 572.592 596.584 571.676 595.979 571.036C595.392 570.396 594.664 570.076 593.792 570.076C592.904 570.076 592.166 570.396 591.579 571.036C590.992 571.658 590.699 572.574 590.699 573.783C590.699 574.974 590.984 575.89 591.552 576.53C592.139 577.17 592.868 577.49 593.739 577.49ZM613.012 566.183C614.754 566.183 616.141 566.752 617.172 567.89C618.221 569.01 618.745 570.556 618.745 572.53V581.223H614.212V573.143C614.212 572.147 613.954 571.374 613.438 570.823C612.923 570.272 612.229 569.996 611.358 569.996C610.487 569.996 609.794 570.272 609.278 570.823C608.763 571.374 608.505 572.147 608.505 573.143V581.223H603.945V566.343H608.505V568.316C608.967 567.658 609.589 567.143 610.372 566.77C611.154 566.378 612.034 566.183 613.012 566.183Z" fill="#080C2E"/>
<path d="M442.573 603.063L438.179 617.889H435.427L432.312 606.668L429.005 617.889L426.275 617.911L422.072 603.063H424.653L427.725 615.137L431.053 603.063H433.784L436.877 615.073L439.971 603.063H442.573ZM449.678 618.081C448.568 618.081 447.566 617.833 446.67 617.335C445.774 616.823 445.07 616.112 444.558 615.201C444.046 614.277 443.79 613.21 443.79 612.001C443.79 610.807 444.053 609.747 444.579 608.823C445.105 607.898 445.824 607.187 446.734 606.689C447.644 606.192 448.661 605.943 449.784 605.943C450.908 605.943 451.925 606.192 452.835 606.689C453.745 607.187 454.464 607.898 454.99 608.823C455.516 609.747 455.779 610.807 455.779 612.001C455.779 613.196 455.509 614.256 454.968 615.18C454.428 616.105 453.688 616.823 452.75 617.335C451.825 617.833 450.801 618.081 449.678 618.081ZM449.678 615.969C450.304 615.969 450.887 615.82 451.427 615.521C451.982 615.223 452.43 614.775 452.771 614.177C453.112 613.58 453.283 612.855 453.283 612.001C453.283 611.148 453.12 610.43 452.792 609.847C452.465 609.249 452.032 608.801 451.491 608.503C450.951 608.204 450.368 608.055 449.742 608.055C449.116 608.055 448.533 608.204 447.992 608.503C447.466 608.801 447.047 609.249 446.734 609.847C446.421 610.43 446.264 611.148 446.264 612.001C446.264 613.267 446.584 614.249 447.224 614.945C447.879 615.628 448.696 615.969 449.678 615.969ZM460.615 607.841C460.971 607.244 461.44 606.782 462.023 606.455C462.621 606.113 463.325 605.943 464.135 605.943V608.46H463.517C462.564 608.46 461.838 608.702 461.341 609.185C460.857 609.669 460.615 610.508 460.615 611.703V617.889H458.183V606.135H460.615V607.841ZM471.021 612.023L476.44 617.889H473.155L468.803 612.833V617.889H466.371V602.103H468.803V611.276L473.069 606.135H476.44L471.021 612.023ZM479.421 604.577C478.98 604.577 478.61 604.428 478.311 604.129C478.013 603.831 477.863 603.461 477.863 603.02C477.863 602.579 478.013 602.209 478.311 601.911C478.61 601.612 478.98 601.463 479.421 601.463C479.847 601.463 480.21 601.612 480.509 601.911C480.807 602.209 480.957 602.579 480.957 603.02C480.957 603.461 480.807 603.831 480.509 604.129C480.21 604.428 479.847 604.577 479.421 604.577ZM480.615 606.135V617.889H478.183V606.135H480.615ZM489.739 605.943C490.663 605.943 491.488 606.135 492.214 606.519C492.953 606.903 493.529 607.472 493.942 608.225C494.354 608.979 494.56 609.889 494.56 610.956V617.889H492.15V611.319C492.15 610.266 491.887 609.463 491.36 608.908C490.834 608.339 490.116 608.055 489.206 608.055C488.295 608.055 487.57 608.339 487.03 608.908C486.503 609.463 486.24 610.266 486.24 611.319V617.889H483.808V606.135H486.24V607.479C486.639 606.995 487.143 606.618 487.755 606.348C488.381 606.078 489.042 605.943 489.739 605.943ZM502.398 605.943C503.309 605.943 504.112 606.128 504.809 606.497C505.52 606.853 506.075 607.301 506.473 607.841V606.135H508.926V618.081C508.926 619.162 508.699 620.122 508.244 620.961C507.789 621.815 507.127 622.483 506.26 622.967C505.406 623.45 504.382 623.692 503.188 623.692C501.595 623.692 500.272 623.315 499.22 622.561C498.167 621.822 497.57 620.812 497.428 619.532H499.838C500.023 620.144 500.414 620.634 501.012 621.004C501.623 621.388 502.349 621.58 503.188 621.58C504.169 621.58 504.958 621.281 505.556 620.684C506.167 620.087 506.473 619.219 506.473 618.081V616.119C506.061 616.673 505.499 617.143 504.788 617.527C504.091 617.897 503.294 618.081 502.398 618.081C501.374 618.081 500.436 617.825 499.582 617.313C498.743 616.787 498.075 616.062 497.577 615.137C497.094 614.199 496.852 613.139 496.852 611.959C496.852 610.778 497.094 609.733 497.577 608.823C498.075 607.913 498.743 607.209 499.582 606.711C500.436 606.199 501.374 605.943 502.398 605.943ZM506.473 612.001C506.473 611.191 506.302 610.487 505.961 609.889C505.634 609.292 505.2 608.837 504.66 608.524C504.119 608.211 503.536 608.055 502.91 608.055C502.285 608.055 501.702 608.211 501.161 608.524C500.621 608.823 500.18 609.271 499.838 609.868C499.511 610.451 499.348 611.148 499.348 611.959C499.348 612.769 499.511 613.481 499.838 614.092C500.18 614.704 500.621 615.173 501.161 615.5C501.716 615.813 502.299 615.969 502.91 615.969C503.536 615.969 504.119 615.813 504.66 615.5C505.2 615.187 505.634 614.732 505.961 614.135C506.302 613.523 506.473 612.812 506.473 612.001ZM526.388 603.063V605.047H520.094V609.42H525.001V611.404H520.094V617.889H517.662V603.063H526.388ZM527.831 611.959C527.831 610.778 528.073 609.733 528.556 608.823C529.054 607.913 529.723 607.209 530.562 606.711C531.415 606.199 532.354 605.943 533.378 605.943C534.302 605.943 535.106 606.128 535.788 606.497C536.485 606.853 537.04 607.301 537.452 607.841V606.135H539.906V617.889H537.452V616.14C537.04 616.695 536.478 617.157 535.767 617.527C535.056 617.897 534.245 618.081 533.335 618.081C532.325 618.081 531.401 617.825 530.562 617.313C529.723 616.787 529.054 616.062 528.556 615.137C528.073 614.199 527.831 613.139 527.831 611.959ZM537.452 612.001C537.452 611.191 537.282 610.487 536.94 609.889C536.613 609.292 536.179 608.837 535.639 608.524C535.099 608.211 534.515 608.055 533.89 608.055C533.264 608.055 532.681 608.211 532.14 608.524C531.6 608.823 531.159 609.271 530.818 609.868C530.491 610.451 530.327 611.148 530.327 611.959C530.327 612.769 530.491 613.481 530.818 614.092C531.159 614.704 531.6 615.173 532.14 615.5C532.695 615.813 533.278 615.969 533.89 615.969C534.515 615.969 535.099 615.813 535.639 615.5C536.179 615.187 536.613 614.732 536.94 614.135C537.282 613.523 537.452 612.812 537.452 612.001ZM547.367 618.081C546.442 618.081 545.61 617.918 544.871 617.591C544.145 617.249 543.569 616.794 543.143 616.225C542.716 615.642 542.488 614.995 542.46 614.284H544.977C545.02 614.782 545.255 615.201 545.681 615.543C546.122 615.87 546.67 616.033 547.324 616.033C548.007 616.033 548.533 615.905 548.903 615.649C549.287 615.379 549.479 615.038 549.479 614.625C549.479 614.185 549.265 613.857 548.839 613.644C548.426 613.431 547.765 613.196 546.855 612.94C545.973 612.698 545.255 612.464 544.7 612.236C544.145 612.009 543.662 611.66 543.249 611.191C542.851 610.721 542.652 610.103 542.652 609.335C542.652 608.709 542.837 608.14 543.207 607.628C543.576 607.102 544.103 606.689 544.785 606.391C545.482 606.092 546.279 605.943 547.175 605.943C548.512 605.943 549.585 606.284 550.396 606.967C551.221 607.635 551.662 608.553 551.719 609.719H549.287C549.244 609.193 549.031 608.773 548.647 608.46C548.263 608.147 547.744 607.991 547.089 607.991C546.449 607.991 545.959 608.112 545.617 608.353C545.276 608.595 545.105 608.915 545.105 609.313C545.105 609.626 545.219 609.889 545.447 610.103C545.674 610.316 545.952 610.487 546.279 610.615C546.606 610.729 547.089 610.878 547.729 611.063C548.583 611.29 549.28 611.525 549.82 611.767C550.375 611.994 550.851 612.336 551.249 612.791C551.648 613.246 551.854 613.85 551.868 614.604C551.868 615.273 551.683 615.87 551.313 616.396C550.944 616.922 550.417 617.335 549.735 617.633C549.066 617.932 548.277 618.081 547.367 618.081ZM557.333 608.119V614.625C557.333 615.066 557.433 615.386 557.632 615.585C557.845 615.77 558.201 615.863 558.698 615.863H560.192V617.889H558.272C557.177 617.889 556.338 617.633 555.754 617.121C555.171 616.609 554.88 615.777 554.88 614.625V608.119H553.493V606.135H554.88V603.212H557.333V606.135H560.192V608.119H557.333ZM573.207 611.724C573.207 612.165 573.178 612.563 573.121 612.919H564.14C564.211 613.857 564.56 614.611 565.185 615.18C565.811 615.749 566.579 616.033 567.489 616.033C568.798 616.033 569.722 615.486 570.263 614.391H572.887C572.531 615.472 571.884 616.361 570.945 617.057C570.021 617.74 568.869 618.081 567.489 618.081C566.366 618.081 565.356 617.833 564.46 617.335C563.578 616.823 562.881 616.112 562.369 615.201C561.872 614.277 561.623 613.21 561.623 612.001C561.623 610.793 561.864 609.733 562.348 608.823C562.846 607.898 563.536 607.187 564.417 606.689C565.313 606.192 566.337 605.943 567.489 605.943C568.599 605.943 569.587 606.185 570.455 606.668C571.322 607.152 571.998 607.834 572.481 608.716C572.965 609.584 573.207 610.586 573.207 611.724ZM570.668 610.956C570.654 610.06 570.334 609.342 569.708 608.801C569.082 608.261 568.307 607.991 567.383 607.991C566.544 607.991 565.825 608.261 565.228 608.801C564.631 609.328 564.275 610.046 564.161 610.956H570.668ZM578.032 607.841C578.388 607.244 578.857 606.782 579.44 606.455C580.037 606.113 580.741 605.943 581.552 605.943V608.46H580.933C579.98 608.46 579.255 608.702 578.757 609.185C578.274 609.669 578.032 610.508 578.032 611.703V617.889H575.6V606.135H578.032V607.841Z" fill="#5D5D7C"/>
</svg>
