<svg width="156" height="22" viewBox="0 0 156 22" fill="none" xmlns="http://www.w3.org/2000/svg">
<path d="M0.904 20.5V0.899999H5.44V16.468H12.72V20.5H0.904ZM31.5979 18.064C29.6939 20.0613 27.1552 21.06 23.9819 21.06C20.8086 21.06 18.2699 20.0613 16.3659 18.064C14.4619 16.048 13.5099 13.5933 13.5099 10.7C13.5099 7.80667 14.4619 5.36133 16.3659 3.364C18.2699 1.348 20.8086 0.339999 23.9819 0.339999C27.1552 0.339999 29.6939 1.348 31.5979 3.364C33.5019 5.36133 34.4539 7.80667 34.4539 10.7C34.4539 13.5933 33.5019 16.048 31.5979 18.064ZM23.9819 17C25.7739 17 27.1739 16.4027 28.1819 15.208C29.2086 13.9947 29.7219 12.492 29.7219 10.7C29.7219 8.908 29.2086 7.41467 28.1819 6.22C27.1739 5.00667 25.7739 4.4 23.9819 4.4C22.1712 4.4 20.7526 5.00667 19.7259 6.22C18.7179 7.41467 18.2232 8.908 18.2419 10.7C18.2232 12.492 18.7179 13.9947 19.7259 15.208C20.7526 16.4027 22.1712 17 23.9819 17ZM58.1885 10.196V13.612H56.3405C55.8365 15.9827 54.7258 17.8213 53.0085 19.128C51.3098 20.416 49.1165 21.06 46.4285 21.06C43.3298 21.06 40.8192 20.0987 38.8965 18.176C36.9925 16.2347 36.0498 13.7707 36.0685 10.784C36.0685 7.816 37.0112 5.33333 38.8965 3.336C40.8005 1.33867 43.3952 0.339999 46.6805 0.339999C49.2752 0.339999 51.4218 0.965332 53.1205 2.216C54.8378 3.46667 55.7805 5.05333 55.9485 6.976H50.9925C50.8058 6.136 50.3298 5.45467 49.5645 4.932C48.8178 4.40933 47.8658 4.148 46.7085 4.148C44.7858 4.148 43.3112 4.75467 42.2845 5.968C41.2765 7.18133 40.7818 8.75867 40.8005 10.7C40.7818 12.5667 41.2952 14.1067 42.3405 15.32C43.4045 16.5147 44.8045 17.112 46.5405 17.112C49.2845 17.112 50.9925 15.9453 51.6645 13.612H48.1645V10.196H58.1885ZM77.9182 18.064C76.0142 20.0613 73.4756 21.06 70.3022 21.06C67.1289 21.06 64.5902 20.0613 62.6862 18.064C60.7822 16.048 59.8302 13.5933 59.8302 10.7C59.8302 7.80667 60.7822 5.36133 62.6862 3.364C64.5902 1.348 67.1289 0.339999 70.3022 0.339999C73.4756 0.339999 76.0142 1.348 77.9182 3.364C79.8222 5.36133 80.7742 7.80667 80.7742 10.7C80.7742 13.5933 79.8222 16.048 77.9182 18.064ZM70.3022 17C72.0942 17 73.4942 16.4027 74.5022 15.208C75.5289 13.9947 76.0422 12.492 76.0422 10.7C76.0422 8.908 75.5289 7.41467 74.5022 6.22C73.4942 5.00667 72.0942 4.4 70.3022 4.4C68.4916 4.4 67.0729 5.00667 66.0462 6.22C65.0382 7.41467 64.5436 8.908 64.5622 10.7C64.5436 12.492 65.0382 13.9947 66.0462 15.208C67.0729 16.4027 68.4916 17 70.3022 17ZM90.2087 20.5V0.899999H94.7447V8.824H101.521V0.899999H106.057V20.5H101.521V12.716H94.7447V20.5H90.2087ZM109.869 20.5V0.899999H121.853V4.54H114.405V8.992H121.853V12.548H114.405V16.86H121.853V20.5H109.869ZM140.799 7.984C140.799 9.40267 140.473 10.672 139.819 11.792C139.166 12.8933 138.27 13.724 137.131 14.284L140.575 20.5H135.423L132.343 15.068H129.963V20.5H125.427V0.899999H133.771C135.806 0.899999 137.486 1.572 138.811 2.916C140.137 4.24133 140.799 5.93067 140.799 7.984ZM129.963 4.596V11.372H133.071C133.986 11.372 134.733 11.0547 135.311 10.42C135.909 9.78533 136.207 8.97333 136.207 7.984C136.207 6.99467 135.909 6.18267 135.311 5.548C134.733 4.91333 133.986 4.596 133.071 4.596H129.963ZM143.638 20.5V0.899999H155.622V4.54H148.174V8.992H155.622V12.548H148.174V16.86H155.622V20.5H143.638Z" fill="white"/>
</svg>
