<svg width="540" height="1553" viewBox="0 0 540 1553" fill="none" xmlns="http://www.w3.org/2000/svg">
<rect y="0.769531" width="540" height="1551.33" rx="8.97588" fill="#E6E6E6"/>
<path d="M167.729 789.937V764.804H171.858V789.937H167.729ZM177.301 789.937V764.804H180.173L190.621 782.002H188.754L199.202 764.804H202.074V789.937H197.945V772.057L198.879 772.308L191.123 785.054H188.251L180.496 772.308L181.43 772.057V789.937H177.301ZM205.657 789.937L215.997 764.804H218.87L229.138 789.937H224.686L216.644 769.579H218.152L210.037 789.937H205.657ZM210.755 785.09V781.499H224.076V785.09H210.755ZM242.291 790.296C240.568 790.296 238.94 789.96 237.408 789.29C235.876 788.62 234.536 787.699 233.387 786.526C232.238 785.329 231.328 783.953 230.658 782.397C230.012 780.817 229.689 779.13 229.689 777.334C229.689 775.539 230.012 773.864 230.658 772.308C231.328 770.752 232.238 769.388 233.387 768.215C234.56 767.018 235.924 766.097 237.48 765.45C239.06 764.78 240.759 764.445 242.578 764.445C244.565 764.445 246.408 764.828 248.107 765.594C249.807 766.36 251.231 767.449 252.38 768.861L249.579 771.662C248.837 770.608 247.844 769.807 246.599 769.256C245.355 768.682 244.014 768.394 242.578 768.394C240.855 768.394 239.335 768.777 238.019 769.543C236.726 770.285 235.721 771.327 235.003 772.667C234.285 774.007 233.926 775.563 233.926 777.334C233.926 779.106 234.285 780.673 235.003 782.038C235.745 783.378 236.738 784.431 237.983 785.197C239.227 785.963 240.639 786.346 242.219 786.346C243.895 786.346 245.331 786.047 246.528 785.449C247.748 784.826 248.682 783.917 249.328 782.72C249.974 781.499 250.298 780.003 250.298 778.232L252.883 780.099H242.147V776.329H254.57V776.904C254.57 779.896 254.031 782.385 252.954 784.371C251.901 786.358 250.453 787.842 248.61 788.824C246.767 789.805 244.661 790.296 242.291 790.296ZM258.68 789.937V764.804H262.809V789.937H258.68ZM261.516 789.937V786.167H275.59V789.937H261.516ZM261.516 778.914V775.288H274.369V778.914H261.516ZM261.516 768.574V764.804H275.411V768.574H261.516ZM287.045 789.937V764.804H291.174V789.937H287.045ZM303.022 789.937V764.804H307.151V789.937H303.022ZM289.881 778.806V775.037H303.919V778.806H289.881ZM312.605 789.937V764.804H316.734V789.937H312.605ZM315.441 789.937V786.167H329.516V789.937H315.441ZM315.441 778.914V775.288H328.295V778.914H315.441ZM315.441 768.574V764.804H329.336V768.574H315.441ZM336.619 779.273V775.862H342.974C344.242 775.862 345.224 775.539 345.918 774.893C346.636 774.223 346.995 773.301 346.995 772.128C346.995 771.075 346.648 770.19 345.954 769.472C345.26 768.753 344.278 768.394 343.01 768.394H336.619V764.804H343.189C344.769 764.804 346.157 765.127 347.354 765.773C348.551 766.396 349.472 767.257 350.119 768.359C350.789 769.436 351.124 770.668 351.124 772.057C351.124 773.517 350.789 774.785 350.119 775.862C349.472 776.939 348.551 777.777 347.354 778.376C346.157 778.974 344.769 779.273 343.189 779.273H336.619ZM333.782 789.937V764.804H337.911V789.937H333.782ZM347.569 789.937L338.773 779.022L342.615 777.622L352.775 789.937H347.569ZM355.837 789.937V764.804H359.965V789.937H355.837ZM358.673 789.937V786.167H372.747V789.937H358.673ZM358.673 778.914V775.288H371.526V778.914H358.673ZM358.673 768.574V764.804H372.568V768.574H358.673Z" fill="#1F2B57"/>
</svg>
