<svg width="735" height="562" viewBox="0 0 735 562" fill="none" xmlns="http://www.w3.org/2000/svg">
<g opacity="0.15">
<mask id="mask0_1487_906" style="mask-type:luminance" maskUnits="userSpaceOnUse" x="0" y="-368" width="930" height="931">
<path d="M465 562.001C721.595 562.001 929.607 353.99 929.607 97.3943C929.607 -159.201 721.595 -367.213 465 -367.213C208.405 -367.213 0.392944 -159.201 0.392944 97.3943C0.392944 353.99 208.405 562.001 465 562.001Z" fill="white"/>
</mask>
<g mask="url(#mask0_1487_906)">
<path d="M1451.2 993.381C1404.23 960.42 1349.48 959.922 1298.95 936.269C1237.72 907.608 1246.82 849.159 1221.51 795.823C1212.68 777.178 1196.73 761.419 1181.92 747.311C1154.96 721.64 1130.52 728.3 1098.32 716.867C1049.99 699.718 1083.22 627.344 1031.82 616.934C1002.61 611.008 942.902 637.046 918.62 614.757C898.009 595.825 922.632 524.998 924.363 506.538C927.903 469.014 921.95 459.128 890.116 443.447C869.663 433.378 847.452 428.002 825.19 423.492C781.031 414.576 732.363 412.164 691.351 392.156C668.433 380.985 659.622 374.089 653.329 346.66C645.095 310.631 658.337 264.375 627.08 238.074C596.269 212.14 546.342 210.986 509.211 198.268C465.026 183.112 438.647 151.278 411.192 114.908C380.748 74.5514 354.316 30.8912 321.616 -7.70802C287.082 -48.4837 241.507 -58.5268 190.924 -70.2482C142.728 -81.3927 83.675 -85.5096 46.99 -122.273C22.1574 -147.132 10.2787 -181.588 1.49425 -214.733C-7.65734 -249.321 -10.9089 -288.89 -27.7961 -320.829C-53.9397 -370.31 -122.904 -354.472 -168.138 -379.619" stroke="#383838" stroke-width="1.31112" stroke-miterlimit="10"/>
<path d="M2314.98 21.0604C2276.44 -17.0144 2226.85 -26.7166 2183.82 -57.0296C2139.01 -88.6013 2112.31 -134.622 2075.34 -173.588C2013.87 -238.409 1935.26 -283.014 1875 -349.645C1843.48 -384.494 1814.45 -410.507 1773.65 -433.582C1738.28 -453.59 1706.5 -479.235 1677.44 -507.503C1620.17 -563.278 1568.49 -626.998 1508.28 -679.338C1478.02 -705.639 1442.41 -724.283 1409.69 -747.149C1375.26 -771.195 1345.7 -801.193 1315.94 -830.641C1259.41 -886.625 1195.16 -939.306 1145.68 -1001.48C1094.55 -1065.75 1033.32 -1115.91 964.797 -1160.81C922.081 -1188.81 880.65 -1217.76 842.392 -1251.77C823.721 -1268.37 805.785 -1283.24 792.045 -1304.24C773.453 -1332.64 760.945 -1359.26 735.326 -1382.33" stroke="#383838" stroke-width="1.31112" stroke-miterlimit="10"/>
<path d="M2304.26 33.1218C2265.14 -5.03165 2215.03 -11.6659 2171.23 -41.1661C2125.11 -72.2395 2099.75 -120.069 2062.96 -159.901C2001.89 -225.981 1921.1 -268.776 1861.36 -336.928C1829.79 -372.931 1801.53 -397.921 1759.44 -420.551C1723.67 -439.772 1691.92 -464.997 1663.07 -493.422C1606.09 -549.564 1555.27 -614.963 1494.83 -667.04C1464.2 -693.42 1427.7 -711.304 1394.4 -733.829C1359.39 -757.507 1330.02 -787.663 1300.34 -817.478C1244.56 -873.515 1179.87 -926.353 1132.28 -989.339C1083.01 -1054.55 1022.43 -1103.2 953.469 -1146.52C910.098 -1173.76 868.273 -1202.19 829.779 -1236.17C810.662 -1253.03 793.041 -1267.9 779.668 -1289.74C761.679 -1319.19 750.377 -1346.43 724.601 -1370.3" stroke="#383838" stroke-width="1.31112" stroke-miterlimit="10"/>
<path d="M2293.48 45.2614C2253.7 7.02921 2203.12 3.5941 2158.46 -25.0407C2110.97 -55.511 2086.96 -105.333 2050.4 -146.004C1989.78 -213.422 1906.68 -254.276 1847.52 -324.08C1815.92 -361.342 1788.44 -385.23 1744.96 -407.388C1708.78 -425.823 1677.07 -450.577 1648.41 -479.185C1591.77 -535.72 1541.77 -602.876 1481.11 -654.639C1450.12 -681.097 1412.78 -698.325 1378.77 -720.378C1343.13 -743.506 1313.97 -774.003 1284.37 -804.185C1229.38 -860.222 1164.19 -913.296 1118.64 -977.095C1071.26 -1043.49 1011.32 -1090.03 941.984 -1132.04C898.035 -1158.68 855.765 -1186.32 816.956 -1220.31C797.342 -1237.48 780.087 -1252.27 767.133 -1275.06C749.774 -1305.56 739.679 -1333.51 713.797 -1358.18" stroke="#383838" stroke-width="1.31112" stroke-miterlimit="10"/>
<path d="M2282.65 57.454C2242.11 19.1694 2191.11 19.0383 2145.59 -8.67872C2096.71 -38.4411 2074 -90.4662 2037.71 -131.95C1977.56 -200.757 1891.99 -239.566 1833.49 -311.075C1801.89 -349.726 1775.17 -372.356 1730.25 -394.068C1693.65 -411.768 1662.02 -435.945 1633.52 -464.764C1607.66 -490.933 1584.82 -519.909 1558.68 -545.817C1527.45 -576.759 1500.65 -613.864 1467.22 -642.105C1435.86 -668.616 1397.57 -685.136 1362.93 -706.743C1326.61 -729.373 1297.72 -760.132 1268.16 -790.707C1214.04 -846.744 1148.2 -900.106 1104.85 -964.692C1059.51 -1032.24 1000.22 -1076.98 930.367 -1117.36C885.737 -1143.16 843.073 -1170.2 803.976 -1204.15C783.811 -1221.67 767.002 -1236.36 754.468 -1260.11C737.791 -1291.68 728.901 -1320.32 702.941 -1345.91" stroke="#383838" stroke-width="1.31112" stroke-miterlimit="10"/>
<path d="M2271.77 69.7288C2230.37 31.418 2179.05 34.6695 2132.56 7.92276C2082.26 -21.0005 2060.79 -75.4643 2024.89 -117.708C1965.21 -187.932 1877.1 -224.564 1819.28 -297.934C1787.68 -338.028 1761.75 -359.373 1715.33 -380.64C1678.28 -397.606 1646.76 -421.127 1618.42 -450.234C1593.06 -476.272 1570.95 -505.274 1545.28 -531.025C1513.81 -562.57 1487.15 -601.065 1453.14 -629.516C1421.35 -656.079 1382.13 -671.812 1346.86 -693.026C1309.88 -715.263 1281.25 -746.126 1251.75 -777.147C1198.49 -833.132 1131.94 -886.888 1090.93 -952.26C1047.79 -1021.07 989.053 -1063.89 918.672 -1102.59C873.334 -1127.53 830.277 -1153.94 790.891 -1187.84C770.123 -1205.73 753.813 -1220.28 741.724 -1245.03C725.781 -1277.71 718.072 -1307.07 692.059 -1333.61" stroke="#383838" stroke-width="1.31112" stroke-miterlimit="10"/>
<path d="M2260.84 82.0257C2218.51 43.6886 2166.88 50.4014 2119.39 24.6773C2067.71 -3.30192 2047.39 -60.414 2011.93 -103.366C1952.75 -175.058 1861.94 -209.383 1804.93 -284.72C1773.42 -326.361 1748.19 -346.342 1700.23 -367.163C1662.73 -383.447 1631.32 -406.26 1603.1 -435.656C1578.24 -461.563 1556.9 -490.591 1531.7 -516.184C1500.02 -548.359 1473.48 -588.296 1438.87 -616.904C1406.64 -643.546 1366.47 -658.467 1330.57 -679.261C1292.89 -701.104 1264.57 -732.02 1235.07 -763.513C1182.76 -819.393 1115.31 -873.673 1076.85 -939.78C1036.04 -1009.92 977.804 -1050.75 906.872 -1087.73C860.826 -1111.72 817.375 -1137.52 777.649 -1171.4C756.251 -1189.68 740.465 -1204.07 728.849 -1229.88C713.666 -1263.63 707.163 -1293.75 681.124 -1321.31" stroke="#383838" stroke-width="1.31112" stroke-miterlimit="10"/>
<path d="M2249.85 94.3749C2206.5 56.0641 2154.64 66.2646 2106.1 41.6418C2053.05 14.7377 2033.78 -45.3115 1998.85 -88.893C1940.19 -162.079 1846.55 -193.966 1790.41 -271.4C1759.05 -314.667 1734.42 -333.206 1684.86 -353.607C1646.89 -369.236 1615.61 -391.236 1587.53 -421.025C1563.19 -446.801 1542.61 -475.856 1517.88 -501.291C1486.02 -534.096 1459.56 -575.501 1424.4 -604.24C1391.72 -630.935 1350.55 -645.016 1314.03 -665.443C1275.61 -686.893 1247.66 -717.835 1218.16 -749.853C1166.79 -805.575 1098.37 -860.511 1062.58 -927.299C1024.24 -998.834 966.397 -1037.64 894.915 -1072.83C848.161 -1095.86 804.291 -1121.03 764.249 -1154.88C742.17 -1173.55 726.961 -1187.79 715.843 -1214.67C701.447 -1249.49 696.124 -1280.44 670.111 -1309.02" stroke="#383838" stroke-width="1.31112" stroke-miterlimit="10"/>
<path d="M2238.84 106.779C2194.41 68.5205 2142.34 82.235 2092.72 58.7922C2038.37 33.0681 2020.04 -30.1015 1985.71 -74.2599C1927.6 -148.967 1831.03 -178.31 1775.83 -257.921C1744.68 -302.866 1720.55 -319.963 1669.42 -339.918C1631 -354.891 1599.82 -376.053 1571.84 -406.234C1548.03 -431.906 1528.21 -460.96 1503.98 -486.265C1471.96 -519.698 1445.56 -562.598 1409.82 -591.469C1376.7 -618.216 1334.56 -631.484 1297.38 -651.466C1258.23 -672.522 1230.64 -703.491 1201.11 -736.006C1171.74 -768.365 1143.61 -801.982 1112.95 -833.16C1087.23 -859.304 1064.57 -881.278 1048.24 -914.659C1012.52 -987.609 954.912 -1024.37 882.931 -1057.75C835.443 -1079.78 791.206 -1104.3 750.771 -1138.15C727.984 -1157.24 713.378 -1171.32 702.784 -1199.28C689.201 -1235.17 685.031 -1266.96 659.098 -1296.61" stroke="#383838" stroke-width="1.31112" stroke-miterlimit="10"/>
<path d="M2227.77 119.211C2182.2 81.0573 2129.91 98.3116 2079.25 76.0488C2023.6 51.6358 2006.14 -14.9426 1972.47 -59.5468C1941.58 -100.48 1898.18 -118.888 1858.74 -149.07C1822.69 -176.682 1786.26 -206.366 1761.14 -244.362C1749.95 -261.275 1741.53 -279.054 1726.03 -292.794C1705.97 -310.573 1678.28 -317.129 1653.79 -326.175C1614.9 -340.545 1583.85 -360.815 1555.98 -391.416C1532.72 -416.957 1513.66 -446.038 1489.9 -471.211C1457.75 -505.274 1431.4 -549.668 1395.08 -578.67C1361.49 -605.469 1318.35 -617.899 1280.57 -637.461C1240.66 -658.124 1213.46 -689.066 1183.94 -722.132C1154.73 -754.858 1126.67 -788.632 1096.25 -820.283C1070.89 -846.662 1048.84 -867.955 1033.79 -901.991C1000.85 -976.41 943.321 -1011.13 870.843 -1042.62C822.594 -1063.6 777.99 -1087.46 737.188 -1121.31C713.666 -1140.82 699.664 -1154.77 689.647 -1183.8C676.876 -1220.78 673.887 -1253.4 648.058 -1284.18" stroke="#383838" stroke-width="1.31112" stroke-miterlimit="10"/>
<path d="M2216.7 131.692C2169.92 93.6957 2117.48 114.464 2065.69 93.4861C2008.81 70.4629 1992.11 0.292 1959.15 -44.7055C1928.49 -86.5825 1884.7 -103.942 1844.71 -134.071C1808.16 -161.605 1770.82 -191.76 1746.35 -230.674C1735.71 -247.614 1728.1 -265.629 1712.76 -279.238C1692.41 -297.279 1662.86 -303.651 1638.03 -312.357C1598.7 -326.15 1567.7 -345.476 1539.96 -376.523C1517.22 -401.958 1498.95 -431.065 1475.69 -456.108C1443.46 -490.8 1417.08 -536.715 1380.24 -565.795C1346.2 -592.647 1302.07 -604.237 1263.65 -623.38C1223.01 -643.623 1196.1 -674.539 1166.63 -708.183C1137.63 -741.275 1109.73 -775.39 1079.44 -807.329C1054.32 -833.814 1032.95 -854.634 1019.29 -889.248C989.315 -965.161 931.679 -997.808 858.728 -1027.41C809.745 -1047.29 764.774 -1070.55 723.578 -1104.38C699.323 -1124.3 685.949 -1138.12 676.509 -1168.25C664.604 -1206.3 662.743 -1239.79 637.045 -1271.73" stroke="#383838" stroke-width="1.31112" stroke-miterlimit="10"/>
<path d="M2205.59 144.227C2157.55 106.44 2104.92 130.696 2052.03 111.055C1993.97 89.5005 1977.92 15.5537 1945.72 -29.7585C1915.28 -72.6057 1871.12 -88.8899 1830.55 -118.993C1793.53 -146.448 1755.24 -177.128 1731.49 -216.881C1721.36 -233.847 1714.57 -252.098 1699.39 -265.602C1678.81 -283.931 1647.23 -290.094 1622.09 -298.459C1582.28 -311.701 1551.36 -330.03 1523.73 -361.576C1501.52 -386.933 1484.05 -416.039 1461.29 -440.951C1429.01 -476.272 1402.58 -523.682 1365.21 -552.815C1330.7 -579.719 1285.6 -590.47 1246.56 -609.167C1205.13 -629.017 1178.67 -659.881 1149.17 -694.075C1120.35 -727.508 1092.66 -761.991 1062.45 -794.192C1037.51 -820.807 1016.82 -841.156 1004.6 -876.346C977.751 -953.728 919.8 -984.382 846.456 -1012.02C796.712 -1030.77 751.374 -1053.4 709.759 -1087.25C684.743 -1107.6 671.973 -1121.34 663.162 -1152.52C652.096 -1191.59 651.388 -1225.99 625.874 -1259.11" stroke="#383838" stroke-width="1.31112" stroke-miterlimit="10"/>
<path d="M2194.41 156.762C2145.06 119.212 2092.28 146.981 2038.26 128.705C1979.08 108.671 1963.61 30.8166 1932.22 -14.7316C1901.98 -58.6015 1857.46 -73.7581 1816.29 -103.809C1778.82 -131.133 1739.51 -162.363 1716.54 -202.955C1706.92 -219.947 1700.96 -238.46 1685.94 -251.913C1665.14 -270.504 1631.42 -276.509 1606.06 -284.533C1565.84 -297.251 1534.92 -314.558 1507.42 -346.654C1485.76 -371.932 1469.08 -401.039 1446.79 -425.871C1414.51 -461.796 1388 -510.727 1350.13 -539.912C1315.15 -566.843 1269.08 -576.755 1229.43 -595.058C1187.24 -614.515 1161.2 -645.326 1131.68 -680.097C1103.02 -713.845 1075.53 -748.668 1045.46 -781.184C1020.7 -807.931 1000.64 -827.807 989.945 -863.574C966.344 -942.425 907.921 -971.086 834.21 -996.784C783.732 -1014.38 738 -1036.38 695.966 -1070.26C670.189 -1091.03 658.049 -1104.69 649.841 -1136.92C639.64 -1177.04 640.06 -1212.36 614.755 -1246.66" stroke="#383838" stroke-width="1.31112" stroke-miterlimit="10"/>
<path d="M2183.24 169.349C2132.56 132.113 2079.59 163.317 2024.47 146.456C1964.21 128.022 1949.26 46.0775 1918.69 0.371949C1888.64 -44.5469 1843.77 -58.5497 1801.95 -88.548C1764.05 -115.741 1723.72 -147.574 1701.57 -188.927C1692.47 -205.945 1687.33 -224.747 1672.41 -238.146C1651.46 -257 1615.48 -262.848 1589.91 -270.531C1549.24 -282.751 1518.3 -299.008 1490.95 -331.655C1469.81 -356.855 1453.95 -386.014 1432.13 -410.742C1399.88 -447.269 1373.26 -497.695 1334.9 -526.88C1299.45 -553.863 1252.43 -562.936 1212.21 -580.793C1169.25 -599.857 1143.61 -630.616 1114.08 -665.911C1085.58 -700 1058.23 -735.059 1028.33 -767.968C1003.79 -794.977 984.307 -814.224 975.155 -850.621C954.938 -930.914 895.859 -957.661 821.833 -981.366C770.621 -997.754 724.522 -1019.15 682.042 -1053.06C655.479 -1074.24 643.967 -1087.85 636.415 -1121.13C627.08 -1162.27 628.601 -1198.54 603.533 -1234.02" stroke="#383838" stroke-width="1.31112" stroke-miterlimit="10"/>
<path d="M2172.05 181.959C2120 145.117 2066.82 179.704 2010.6 164.285C1949.29 147.477 1934.87 61.3623 1905.1 15.5257C1875.26 -30.442 1830 -43.2647 1787.55 -73.2368C1749.26 -100.246 1707.86 -132.709 1686.62 -174.822C1677.99 -191.893 1673.67 -210.956 1658.88 -224.356C1637.77 -243.446 1599.43 -249.162 1573.73 -256.505C1532.67 -268.252 1501.62 -283.461 1474.43 -316.659C1453.82 -341.806 1438.77 -370.991 1417.39 -395.64C1385.22 -432.745 1358.42 -484.639 1319.64 -513.824C1283.74 -540.833 1235.75 -549.093 1194.98 -566.531C1151.29 -585.201 1126.06 -615.881 1096.51 -651.754C1068.19 -686.157 1041.03 -721.557 1011.24 -754.729C986.798 -781.947 967.918 -800.696 960.392 -837.644C943.715 -919.352 883.771 -944.237 809.456 -965.949C757.51 -981.132 711.044 -1001.95 668.118 -1035.88C640.794 -1057.49 629.886 -1071.1 623.016 -1105.37C614.572 -1147.51 617.168 -1184.75 592.388 -1221.43" stroke="#383838" stroke-width="1.31112" stroke-miterlimit="10"/>
<path d="M2160.85 194.572C2107.41 158.149 2053.99 196.092 1996.7 182.168C1934.42 167.012 1920.42 76.6497 1891.49 30.7607C1861.84 -16.3084 1816.21 -27.8986 1773.07 -57.8445C1734.42 -84.6699 1691.99 -117.789 1671.62 -160.61C1663.49 -177.733 1659.92 -197.111 1645.21 -210.511C1624 -229.863 1583.2 -235.422 1557.4 -242.45C1515.94 -253.751 1484.73 -267.911 1457.72 -301.686C1437.64 -326.807 1423.37 -356.019 1402.47 -380.589C1370.43 -418.244 1343.42 -471.58 1304.25 -500.713C1267.9 -527.749 1219 -535.196 1177.64 -552.214C1133.22 -570.491 1108.42 -601.092 1078.86 -637.489C1050.7 -672.181 1023.75 -707.922 994.061 -741.356C969.701 -768.784 951.424 -787.087 945.524 -824.559C932.465 -907.631 871.524 -930.733 797.001 -950.452C744.346 -964.376 697.487 -984.62 654.089 -1018.63C625.979 -1040.66 615.7 -1054.27 609.485 -1089.54C601.907 -1132.67 605.604 -1170.85 581.112 -1208.74" stroke="#383838" stroke-width="1.31112" stroke-miterlimit="10"/>
<path d="M2149.63 207.213C2094.8 171.262 2041.09 212.51 1982.75 200.08C1919.53 186.628 1905.94 91.9394 1877.86 46.0241C1848.38 -2.14633 1802.39 -12.5041 1758.55 -42.4238C1719.55 -69.0394 1676.1 -102.866 1656.65 -146.317C1648.96 -163.492 1646.18 -183.185 1631.55 -196.663C1610.23 -216.278 1566.94 -221.68 1541.06 -228.419C1499.26 -239.275 1467.82 -252.386 1440.99 -286.79C1421.41 -311.911 1407.98 -341.148 1387.5 -365.692C1374.76 -380.98 1361.31 -393.908 1349.45 -410.297C1330.52 -436.467 1315.21 -468.3 1288.85 -487.705C1252.06 -514.793 1202.27 -521.401 1160.39 -537.999C1115.29 -555.883 1090.87 -586.432 1061.3 -623.353C1033.29 -658.334 1006.54 -694.389 976.938 -728.085C952.656 -755.75 934.93 -773.607 930.708 -811.577C921.373 -895.96 859.279 -917.358 784.545 -935.11C731.183 -947.776 683.956 -967.469 640.086 -1001.53C611.216 -1023.95 601.539 -1037.61 596.007 -1073.83C589.294 -1117.93 594.066 -1157.08 569.889 -1196.18" stroke="#383838" stroke-width="1.31112" stroke-miterlimit="10"/>
<path d="M2138.38 219.878C2082.13 184.478 2028.14 228.952 1968.77 218.069C1904.63 206.295 1891.47 107.28 1864.2 61.3648C1834.91 12.0668 1788.49 2.99381 1743.97 -26.8996C1704.63 -53.3055 1660.24 -87.814 1641.7 -131.894C1634.44 -149.148 1632.42 -169.182 1617.84 -182.713C1596.44 -202.589 1550.58 -207.86 1524.67 -214.284C1482.53 -224.747 1450.78 -236.809 1424.19 -271.842C1405.1 -296.963 1392.46 -326.28 1372.4 -350.771C1359.76 -366.216 1346.31 -379.275 1334.48 -395.795C1315.47 -422.358 1300.13 -455.058 1273.36 -474.541C1236.15 -501.655 1185.48 -507.476 1143.11 -523.681C1097.33 -541.172 1073.31 -571.668 1043.73 -609.061C1015.85 -644.33 989.315 -680.674 959.815 -714.632C935.533 -742.533 918.358 -759.997 915.867 -798.439C913.533 -834.599 907.738 -858.855 878.264 -881.957C846.954 -906.475 809.64 -911.719 772.063 -919.638C718.019 -931.045 670.399 -950.214 626.057 -984.355C596.426 -1007.17 587.327 -1020.91 582.502 -1058.04C576.628 -1103.09 582.476 -1143.21 558.64 -1183.51" stroke="#383838" stroke-width="1.31112" stroke-miterlimit="10"/>
<path d="M2127.13 232.542C2069.47 197.719 2015.16 245.391 1954.74 236.03C1889.71 225.96 1876.99 122.566 1850.51 76.703C1821.4 26.2512 1774.57 18.4894 1729.34 -11.3779C1689.69 -37.5477 1644.4 -72.7643 1626.78 -117.395C1619.94 -134.754 1618.62 -155.129 1604.1 -168.764C1582.65 -188.903 1534.16 -194.016 1508.23 -200.178C1465.77 -210.248 1433.65 -221.314 1407.3 -256.95C1388.71 -282.097 1376.86 -311.466 1357.19 -335.958C1344.65 -351.586 1331.2 -364.724 1319.43 -381.349C1300.36 -408.253 1285 -441.765 1257.83 -461.353C1220.2 -488.493 1168.73 -493.528 1125.88 -509.34C1079.47 -526.463 1055.79 -556.881 1026.24 -594.746C998.519 -630.251 972.166 -666.91 942.745 -701.077C918.463 -729.266 901.811 -746.337 901.051 -785.198C900.343 -821.464 895.859 -845.798 866.097 -868.9C834.709 -893.234 797.158 -897.194 759.582 -904.117C704.856 -914.212 656.869 -932.883 612.029 -967.129C543.326 -1019.57 586.042 -1102.41 547.391 -1170.77" stroke="#383838" stroke-width="1.31112" stroke-miterlimit="10"/>
<path d="M2115.85 245.236C2056.8 211.042 2002.1 261.835 1940.71 254.02C1874.84 245.629 1862.54 137.882 1836.85 92.0977C1807.9 40.4921 1760.64 34.0414 1714.7 4.22665C1674.74 -21.7072 1628.69 -57.6055 1611.96 -102.76C1605.49 -120.224 1604.86 -140.993 1590.36 -154.759C1568.83 -175.16 1517.75 -180.142 1491.81 -186.042C1449.07 -195.771 1416.5 -205.84 1390.41 -242.106C1372.29 -267.305 1361.23 -296.753 1341.95 -321.271C1329.55 -337.057 1316.07 -350.325 1304.35 -367.029C1285.23 -394.274 1269.84 -428.546 1242.33 -448.213C1204.34 -475.38 1152.08 -479.654 1108.76 -495.099C1061.77 -511.829 1038.43 -542.22 1008.88 -580.531C981.291 -616.298 955.147 -653.219 925.805 -687.597C901.47 -716.074 885.37 -732.83 886.314 -772.059C887.179 -808.35 884.059 -832.842 853.955 -855.97C822.489 -880.147 784.676 -882.796 747.126 -888.774C691.744 -897.585 643.364 -915.757 598.026 -950.108C527.933 -1003.18 574.006 -1088.2 536.141 -1158.16" stroke="#383838" stroke-width="1.31112" stroke-miterlimit="10"/>
<path d="M2104.6 257.901C2044.13 224.362 1989.04 278.223 1926.68 271.956C1860 265.243 1848.15 153.195 1823.21 107.463C1794.45 54.7037 1746.72 49.5642 1700.07 19.8019C1659.79 -5.89602 1613.12 -42.45 1597.23 -88.0768C1591.09 -105.672 1591.12 -126.86 1576.62 -140.757C1555.04 -161.421 1501.33 -166.272 1475.42 -171.91C1432.42 -181.297 1399.33 -190.396 1373.52 -227.317C1355.88 -252.569 1345.57 -282.122 1326.67 -306.692C1314.39 -322.635 1300.89 -336.009 1289.22 -352.791C1270.05 -380.325 1254.66 -415.305 1226.86 -435.024C1188.5 -462.217 1135.48 -465.757 1091.74 -480.808C1044.22 -497.171 1021.18 -527.537 991.649 -566.241C964.194 -602.218 938.234 -639.427 908.944 -673.988C884.557 -702.807 868.955 -719.222 871.603 -758.791C874.016 -795.057 872.233 -819.758 841.789 -842.939C810.217 -866.985 772.195 -868.322 734.67 -873.357C678.66 -880.882 629.886 -898.609 584.049 -933.065C512.62 -986.768 561.97 -1073.96 524.892 -1145.44" stroke="#383838" stroke-width="1.31112" stroke-miterlimit="10"/>
<path d="M2093.33 270.592C2031.47 237.736 1975.96 294.638 1912.63 289.892C1845.16 284.831 1833.75 168.509 1809.55 122.856C1798.72 102.455 1784.48 86.1445 1765.73 72.6925C1741.14 55.0449 1710.74 51.3213 1685.36 35.3782C1644.79 9.89007 1597.62 -27.2669 1582.52 -73.3395C1576.7 -91.092 1577.35 -112.699 1562.8 -126.781C1541.14 -147.732 1484.89 -152.426 1458.96 -157.854C1415.72 -166.927 1382.02 -175.108 1356.53 -212.685C1339.33 -238.042 1329.79 -267.699 1311.22 -292.322C1299.11 -308.397 1285.58 -321.901 1273.93 -338.736C1254.74 -366.505 1239.37 -402.115 1211.29 -421.887C1172.61 -449.105 1118.88 -451.937 1074.75 -466.622C1026.76 -482.618 1003.97 -512.983 974.5 -552.028C947.176 -588.215 921.373 -625.634 892.162 -660.379C867.644 -689.512 852.592 -705.665 856.919 -745.549C860.826 -781.736 860.406 -806.699 829.595 -829.985C797.945 -853.899 759.66 -853.952 722.188 -858.069C665.574 -864.283 616.408 -881.59 570.073 -916.204C497.332 -970.536 549.882 -1059.88 513.616 -1132.83" stroke="#383838" stroke-width="1.31112" stroke-miterlimit="10"/>
<path d="M2082.08 283.257C2018.83 251.109 1962.85 310.974 1898.63 307.749C1830.37 304.314 1819.46 183.77 1795.97 138.221C1785.24 117.427 1771.21 101.143 1752.12 87.6648C1727.19 70.0696 1696.43 66.8705 1670.73 51.006C1629.85 25.7539 1582.33 -11.98 1567.99 -58.4459C1562.46 -76.3558 1563.66 -98.4612 1549.06 -112.7C1527.32 -133.914 1468.55 -138.477 1442.62 -143.721C1399.14 -152.505 1364.82 -159.795 1339.65 -198.027C1322.86 -223.516 1314.05 -253.278 1295.8 -278.032C1283.84 -294.237 1270.26 -307.847 1258.7 -324.707C1239.5 -352.687 1224.14 -388.847 1195.84 -408.645C1156.85 -435.916 1102.49 -438.014 1057.99 -452.384C1009.59 -468.012 987.034 -498.404 957.612 -537.738C930.394 -574.108 904.775 -611.763 875.615 -646.639C850.966 -676.113 836.439 -692.056 842.392 -732.176C847.741 -768.232 848.685 -793.536 817.48 -816.927C785.725 -840.71 747.231 -839.478 709.812 -842.703C652.594 -847.659 603.034 -864.546 556.201 -899.291C522.899 -924.019 516.632 -938.336 515.163 -979.689C513.406 -1029.17 524.393 -1074.01 502.419 -1120.06" stroke="#383838" stroke-width="1.31112" stroke-miterlimit="10"/>
<path d="M2070.8 295.924C2006.19 264.483 1949.73 327.286 1884.6 325.529C1815.61 323.693 1805.22 199.006 1782.38 153.563C1771.74 132.375 1757.94 116.091 1738.49 102.586C1713.21 85.0438 1682.06 82.3953 1656.02 66.5571C1614.85 41.5147 1567.18 3.28259 1553.51 -43.5767C1548.22 -61.6963 1549.97 -84.2999 1535.26 -98.7484C1513.39 -120.251 1452.24 -124.682 1426.23 -129.743C1382.55 -138.265 1347.49 -144.716 1322.65 -183.604C1306.26 -209.249 1298.19 -239.143 1280.23 -264.028C1268.43 -280.364 1254.82 -294.052 1243.28 -310.966C1224.08 -339.102 1208.77 -375.761 1180.29 -395.559C1141.04 -422.856 1086.08 -424.299 1041.26 -438.328C992.515 -453.589 970.121 -484.033 940.778 -523.603C913.664 -560.13 888.202 -597.969 859.095 -632.976C834.289 -662.817 820.286 -678.524 827.812 -718.906C834.499 -754.805 836.859 -780.503 805.235 -803.998C773.348 -827.677 734.67 -825.159 697.33 -827.545C639.536 -831.217 589.609 -847.737 542.251 -882.665C508.241 -907.76 502.498 -922.208 501.685 -964.321C500.715 -1014.62 512.699 -1060.35 491.091 -1107.47" stroke="#383838" stroke-width="1.31112" stroke-miterlimit="10"/>
<path d="M2059.58 308.585C1993.63 277.852 1936.65 343.513 1870.62 343.251C1800.9 342.962 1791.06 214.263 1768.85 168.872C1758.31 147.291 1744.7 131.033 1724.9 117.529C1699.26 100.039 1667.74 97.9409 1641.39 82.155C1599.9 57.3225 1552.26 18.6445 1539.22 -28.5294C1534.16 -46.8851 1536.37 -70.0131 1521.52 -84.6976C1499.5 -106.488 1436.06 -110.789 1409.97 -115.719C1366.08 -123.979 1330.26 -129.643 1305.77 -169.212C1289.77 -195.041 1282.38 -225.092 1264.68 -250.134C1253.06 -266.576 1239.37 -280.369 1227.91 -297.282C1208.74 -325.523 1193.46 -362.576 1164.85 -382.373C1125.36 -409.697 1069.84 -410.51 1024.77 -424.224C975.732 -439.171 953.496 -469.668 924.231 -509.421C897.222 -546.106 871.892 -584.102 842.811 -619.214C817.795 -649.422 804.343 -664.971 813.39 -705.537C821.361 -741.252 825.137 -767.37 793.041 -791.048C761.05 -814.648 722.162 -810.872 684.926 -812.42C626.582 -814.832 576.261 -831.037 528.432 -866.149C493.766 -891.611 488.495 -906.191 488.338 -949.012C488.128 -1000.09 501.082 -1046.69 479.868 -1094.83" stroke="#383838" stroke-width="1.31112" stroke-miterlimit="10"/>
<path d="M2048.33 321.256C1981.04 291.257 1923.54 359.724 1856.64 360.904C1786.21 362.136 1776.95 229.504 1755.37 184.192C1744.91 162.244 1731.54 145.986 1711.35 132.481C1685.33 115.043 1653.42 113.47 1626.73 97.7367C1584.93 73.0877 1537.55 34.0426 1525.04 -13.4198C1520.13 -32.0114 1522.76 -55.7426 1507.76 -70.6631C1485.55 -92.7686 1419.94 -96.9378 1393.72 -101.737C1349.61 -109.787 1313 -114.717 1288.83 -154.968C1273.17 -181.007 1266.49 -211.241 1249.02 -236.467C1237.56 -252.987 1223.85 -266.911 1212.44 -283.772C1193.3 -312.092 1178.12 -349.406 1149.43 -369.204C1109.75 -396.58 1053.77 -396.764 1008.46 -410.19C959.212 -424.796 937.107 -455.397 907.895 -495.281C880.965 -532.071 855.791 -570.198 826.737 -605.389C801.485 -635.964 788.583 -651.383 799.098 -692.106C808.25 -727.611 813.442 -754.227 780.9 -778.036C748.804 -801.558 709.733 -796.549 672.602 -797.31C613.733 -798.49 562.993 -814.381 514.691 -849.702C479.37 -875.531 474.597 -890.242 475.043 -933.745C475.567 -985.56 489.492 -1033.02 468.645 -1082.14" stroke="#383838" stroke-width="1.31112" stroke-miterlimit="10"/>
<path d="M2037.11 333.865C1968.54 304.549 1910.48 375.821 1842.75 378.391C1771.63 381.091 1763 244.63 1742 199.423C1731.62 177.082 1718.45 160.876 1697.89 147.372C1671.52 130.013 1639.21 128.964 1612.17 113.257C1570.09 88.7913 1523.15 49.4577 1511.11 1.73309C1506.34 -17.147 1509.3 -41.5074 1494.12 -56.6639C1471.67 -79.084 1404.07 -83.1222 1377.64 -87.816C1333.33 -95.6827 1295.91 -99.9308 1272.04 -140.838C1256.73 -167.112 1250.67 -197.556 1233.42 -223.018C1222.14 -239.617 1208.38 -253.62 1197.05 -270.455C1177.96 -298.801 1162.85 -336.299 1134.14 -356.044C1094.31 -383.447 1037.93 -383.053 992.409 -396.243C943.033 -410.534 920.98 -441.241 891.899 -481.203C865.048 -518.072 839.979 -556.33 810.951 -591.547C785.437 -622.489 773.086 -637.803 784.965 -678.684C795.217 -713.979 801.799 -741.093 768.812 -765.112C736.584 -788.555 697.382 -782.367 660.356 -782.341C600.963 -782.341 549.855 -797.943 501.055 -833.474C465.105 -859.644 460.778 -874.46 461.827 -918.644C463.086 -971.167 477.954 -1019.44 457.448 -1069.53" stroke="#383838" stroke-width="1.31112" stroke-miterlimit="10"/>
<path d="M2025.91 346.479C1956.05 317.844 1897.45 391.844 1828.9 395.777C1757.13 399.894 1749.13 259.762 1728.68 214.607C1718.37 191.872 1705.39 175.746 1684.47 162.241C1657.7 144.961 1625 144.436 1597.62 128.755C1555.22 104.473 1508.96 64.9039 1497.32 16.9695C1492.65 -2.22528 1495.9 -27.2414 1480.46 -42.6863C1457.72 -65.4211 1388.29 -69.3544 1361.59 -73.9695C1317.07 -81.6789 1278.78 -85.2976 1255.26 -126.912C1240.24 -153.476 1234.83 -184.156 1217.74 -209.854C1206.65 -226.531 1192.83 -240.586 1181.55 -257.368C1162.51 -285.662 1147.54 -323.239 1118.85 -342.958C1078.92 -370.413 1022.2 -369.469 976.519 -382.396C927.09 -396.399 905.063 -427.237 876.087 -467.173C849.314 -504.094 824.351 -542.431 795.323 -577.674C769.52 -608.983 757.72 -624.219 770.883 -665.257C782.133 -700.316 790.104 -727.98 756.645 -752.21C724.313 -775.6 684.979 -768.232 648.058 -767.497C588.166 -766.291 536.692 -781.71 487.42 -817.477C450.866 -844.014 446.933 -858.908 448.585 -903.722C450.525 -956.901 466.364 -1005.96 446.172 -1056.94" stroke="#383838" stroke-width="1.31112" stroke-miterlimit="10"/>
<path d="M2014.71 359.067C1943.62 331.088 1884.41 407.762 1815.08 413.033C1742.68 418.513 1735.37 274.815 1715.44 229.765C1705.21 206.637 1692.44 190.589 1671.12 177.111C1643.96 159.909 1610.86 159.909 1583.15 144.228C1540.46 120.13 1495.07 80.4028 1483.76 32.3111C1479.17 12.7492 1482.61 -12.9749 1466.88 -28.6821C1443.8 -51.7577 1372.71 -55.5599 1345.7 -60.1226C1300.94 -67.7009 1261.79 -70.7427 1238.58 -113.065C1223.85 -139.943 1219 -170.886 1202.06 -196.872C1191.15 -213.602 1177.3 -227.709 1166.08 -244.413C1147.12 -272.628 1132.31 -310.126 1103.72 -329.793C1063.71 -357.3 1006.75 -355.832 960.995 -368.576C911.619 -382.29 889.539 -413.337 860.721 -453.169C834.001 -490.116 809.142 -528.506 780.088 -563.722C753.97 -595.373 742.721 -610.555 757.09 -651.724C769.258 -686.574 778.593 -714.815 744.635 -739.255C712.198 -762.619 672.759 -754.123 635.97 -752.68C575.606 -750.347 523.764 -765.556 474.047 -801.585C436.916 -828.489 433.376 -843.436 435.579 -888.853C438.201 -942.661 454.957 -992.484 435.054 -1044.3" stroke="#383838" stroke-width="1.31112" stroke-miterlimit="10"/>
<path d="M2003.57 371.625C1931.27 344.249 1871.49 423.571 1801.34 430.101C1728.31 436.892 1721.73 289.811 1702.3 244.814C1692.15 221.318 1679.54 205.349 1657.85 191.871C1630.27 174.748 1596.81 175.246 1568.72 159.617C1525.77 135.676 1481.48 95.8972 1470.42 47.7005C1465.83 27.7454 1469.39 1.26081 1453.35 -14.7348C1429.9 -38.1513 1357.32 -41.8487 1329.92 -46.3852C1284.87 -53.8323 1244.9 -56.402 1221.96 -99.4329C1207.46 -126.652 1203.18 -157.882 1186.35 -184.21C1175.62 -200.966 1161.73 -215.1 1150.58 -231.725C1131.73 -259.782 1117.1 -297.097 1088.65 -316.685C1048.63 -344.244 991.492 -342.33 945.681 -354.865C896.436 -368.343 874.278 -399.574 845.591 -439.248C818.896 -476.169 794.142 -514.611 765.062 -549.775C738.604 -581.766 727.879 -596.949 743.376 -638.249C756.382 -672.915 767.029 -701.733 732.599 -726.409C700.345 -749.537 660.304 -740.595 623.881 -738.078C563.36 -733.882 510.338 -750.087 460.699 -786.012C423.018 -813.283 419.819 -828.23 422.572 -874.25C425.824 -928.635 443.524 -979.166 423.883 -1031.77" stroke="#383838" stroke-width="1.31112" stroke-miterlimit="10"/>
<path d="M1992.42 384.16C1918.98 357.361 1858.56 439.279 1787.68 447.015C1714.05 455.039 1708.23 304.732 1689.27 259.787C1679.2 235.925 1666.74 220.034 1644.66 206.608C1616.66 189.59 1582.8 190.587 1554.35 174.932C1511.14 151.148 1468.16 111.369 1457.28 63.1199C1452.66 42.7452 1456.28 15.4739 1439.87 -0.862602C1415.98 -24.6462 1342.14 -28.2387 1314.29 -32.7751C1268.95 -40.1436 1228.15 -42.2676 1205.47 -86.0327C1191.17 -113.619 1187.4 -145.19 1170.64 -171.885C1160.1 -188.667 1146.18 -202.801 1135.09 -219.347C1116.36 -247.221 1101.91 -284.195 1073.67 -303.704C1033.68 -331.316 976.492 -328.956 930.656 -341.333C881.646 -354.549 859.331 -386.042 830.828 -425.481C804.159 -462.349 779.432 -500.765 750.377 -535.85C723.578 -568.209 713.325 -583.313 729.845 -624.796C743.612 -659.305 755.491 -688.7 720.589 -713.664C688.23 -736.792 648.163 -726.801 611.871 -723.655C550.93 -718.384 497.516 -734.511 447.457 -770.698C409.277 -798.336 406.367 -813.256 409.645 -859.853C413.525 -914.763 432.143 -965.975 412.739 -1019.29" stroke="#383838" stroke-width="1.31112" stroke-miterlimit="10"/>
<path d="M1981.33 396.671C1906.78 370.37 1845.71 454.858 1774.12 463.747C1699.91 472.951 1694.88 319.551 1676.37 274.684C1666.38 250.455 1654.08 234.695 1631.61 221.322C1603.18 204.409 1568.93 205.903 1540.12 190.248C1498.42 167.592 1452.14 126.738 1444.46 78.6988C1441.18 58.2191 1442.65 29.086 1426.49 13.0642C1402.11 -11.0866 1327.24 -14.6003 1298.82 -19.163C1253.14 -26.479 1211.52 -28.2359 1189.08 -72.7614C1174.94 -100.767 1171.67 -132.706 1154.94 -159.793C1144.58 -176.576 1130.65 -190.709 1119.59 -207.125C1101 -234.71 1086.78 -271.264 1058.83 -290.669C1018.95 -318.36 961.756 -315.606 915.972 -327.852C867.303 -340.858 844.778 -372.614 816.458 -411.711C789.79 -448.501 765.115 -486.864 736.008 -521.819C708.815 -554.465 699.061 -569.596 716.525 -611.237C730.947 -645.64 744.006 -675.586 708.632 -700.838C676.195 -723.967 636.127 -712.979 599.94 -709.256C538.58 -702.936 484.798 -719.063 434.372 -755.538C395.695 -783.544 393.046 -798.412 396.848 -845.533C401.306 -900.915 420.816 -952.783 401.621 -1006.75" stroke="#383838" stroke-width="1.31112" stroke-miterlimit="10"/>
<path d="M1970.27 409.126C1894.64 383.27 1832.94 470.276 1760.65 480.241C1685.89 490.546 1681.66 334.261 1663.57 289.421C1653.66 264.824 1641.49 249.196 1618.62 235.875C1589.78 219.066 1555.11 221.059 1525.93 205.378C1484.18 182.958 1439.26 142.156 1431.84 94.2217C1428.59 73.2701 1429.69 43.1144 1413.15 26.8303C1388.18 2.28622 1312.51 -1.14886 1283.5 -5.73777C1237.43 -13.0538 1195.06 -14.496 1172.79 -59.7557C1158.79 -88.2069 1155.96 -120.565 1139.23 -148.099C1129.03 -164.855 1115.13 -178.962 1104.09 -195.246C1085.66 -222.518 1071.71 -258.442 1044.12 -277.716C1004.39 -305.459 947.307 -302.391 901.628 -314.532C853.405 -327.328 830.618 -359.398 802.481 -398.076C775.813 -434.761 751.191 -473.02 722.005 -507.817C694.393 -540.752 685.084 -555.908 703.387 -597.733C718.413 -632.058 732.546 -662.581 696.701 -688.121C664.185 -711.276 624.143 -699.371 588.114 -695.096C526.36 -687.78 472.211 -703.933 421.419 -740.749C382.295 -769.096 379.83 -783.885 384.13 -831.505C389.165 -887.28 409.566 -939.777 390.502 -994.293" stroke="#383838" stroke-width="1.31112" stroke-miterlimit="10"/>
<path d="M1959.23 421.525C1882.58 396.011 1820.22 485.534 1747.25 496.521C1671.93 507.849 1668.58 348.863 1650.9 304.102C1641.05 279.138 1629.01 263.667 1605.75 250.425C1576.46 233.721 1541.4 236.186 1511.85 220.505C1469.81 198.19 1427.2 157.729 1419.55 109.899C1416.08 88.3444 1417.03 57.3497 1399.93 40.6723C1374.36 15.7086 1298.08 12.3521 1268.37 7.68456C1221.85 0.368537 1178.77 -0.890156 1156.67 -46.9103C1142.77 -75.8598 1140.3 -108.664 1123.55 -136.669C1113.53 -153.425 1099.63 -167.428 1088.65 -183.581C1070.37 -210.433 1056.73 -245.623 1029.57 -264.765C990.05 -292.613 933.173 -289.231 887.652 -301.293C839.979 -313.932 816.851 -346.343 788.977 -384.496C762.283 -420.998 737.66 -459.151 708.422 -493.739C680.364 -526.91 671.475 -542.145 690.512 -584.153C706.088 -618.478 721.166 -649.552 684.848 -675.407C652.228 -698.614 612.317 -685.817 576.393 -681.071C514.246 -672.811 459.782 -689.069 408.648 -726.2C369.105 -754.913 366.824 -769.545 371.57 -817.663C377.129 -873.779 398.395 -926.853 379.463 -981.867" stroke="#383838" stroke-width="1.31112" stroke-miterlimit="10"/>
<path d="M1948.24 433.904C1870.65 408.678 1807.58 500.666 1733.98 512.571C1658.17 524.843 1655.68 363.366 1638.4 318.631C1628.62 293.326 1616.66 278.038 1593.03 264.849C1563.3 248.25 1527.84 251.213 1497.92 235.48C1455.65 213.269 1415.59 173.175 1407.59 125.582C1403.86 103.372 1404.52 71.4851 1386.85 54.3619C1360.65 28.9787 1283.98 25.6747 1253.51 20.9285C1206.49 13.56 1162.75 12.4588 1140.75 -34.3481C1126.9 -63.822 1124.81 -97.1506 1107.94 -125.654C1098.09 -142.358 1084.24 -156.256 1073.28 -172.278C1055.21 -198.657 1041.89 -232.93 1015.22 -251.915C975.994 -279.842 919.433 -276.223 874.12 -288.259C827.13 -300.741 803.582 -333.571 775.944 -371.095C749.224 -407.413 724.601 -445.409 695.258 -479.734C666.728 -513.115 658.206 -528.455 677.899 -570.647C693.947 -605.024 709.864 -636.622 673.1 -662.818C640.427 -686.104 600.648 -672.495 564.854 -667.276C502.314 -658.125 447.536 -674.54 396.114 -712.038C356.203 -741.118 354.001 -755.541 359.219 -804.104C365.25 -860.509 387.408 -914.107 368.554 -969.541" stroke="#383838" stroke-width="1.31112" stroke-miterlimit="10"/>
<path d="M1937.28 446.227C1858.72 421.919 1795.15 514.982 1720.92 527.857C1644.51 541.099 1643.25 378.18 1626.28 333.366C1616.53 307.59 1604.65 292.381 1580.52 279.27C1550.24 262.802 1514.31 266.08 1483.95 250.189C1441.39 227.926 1404.39 188.54 1395.87 141.157C1391.8 118.606 1391.72 85.3817 1373.63 68.1275C1346.94 42.6394 1269.82 39.1518 1238.87 34.222C1190.83 26.5651 1147.91 24.651 1125.64 -22.8639C1111.69 -52.6262 1109.23 -86.1647 1092.32 -114.957C1082.56 -131.582 1068.85 -145.375 1057.89 -161.213C1039.95 -187.12 1027.15 -220.266 1000.8 -238.936C961.913 -266.495 906.348 -263.611 861.534 -275.778C814.701 -288.496 791.101 -321.353 763.095 -358.562C736.244 -394.251 711.201 -431.329 682.252 -465.392C653.591 -499.14 645.619 -514.69 665.522 -557.091C681.701 -591.574 698.378 -623.748 661.248 -650.102C628.417 -673.387 587.93 -660.014 551.927 -654.953C489.57 -646.195 434.739 -661.849 383.265 -699.085C343.381 -727.956 341.702 -742.798 347.183 -791.152C353.555 -847.739 375.844 -901.364 357.541 -957.191" stroke="#383838" stroke-width="1.31112" stroke-miterlimit="10"/>
<path d="M1926.37 458.526C1847 435.11 1782.99 528.068 1708.12 541.52C1631.11 555.366 1631.74 393.181 1615.08 348.183C1589.31 278.537 1525.61 293.719 1469.94 264.429C1427.12 241.878 1393.17 203.174 1383.86 156.026C1379.4 133.396 1378.04 99.307 1359.78 82.1839C1332.7 56.7744 1255.79 52.7623 1224.45 47.4916C1175.34 39.2054 1134.32 35.7702 1111.72 -12.1642C1097.67 -41.9527 1094.36 -75.4123 1077.48 -104.204C1067.77 -120.751 1054.22 -134.439 1043.15 -150.067C1025.11 -175.582 1012.73 -207.442 986.536 -225.85C948.251 -252.728 894.6 -251.548 850.678 -264.161C804.002 -277.534 780.219 -310.443 751.295 -347.128C724.024 -381.715 698.169 -417.378 669.587 -450.89C640.663 -484.795 633.636 -501.053 653.381 -543.454C669.534 -578.147 686.815 -610.82 649.474 -637.278C616.565 -660.59 574.898 -648.449 538.475 -644.148C476.774 -636.858 422.232 -651.333 371.046 -687.913C331.66 -716.076 330.611 -731.731 336.039 -779.272C342.489 -835.781 364.306 -888.907 346.659 -944.787" stroke="#383838" stroke-width="1.31112" stroke-miterlimit="10"/>
<path d="M1915.51 470.744C1835.59 447.589 1771 540.233 1695.56 553.79C1618.02 567.714 1621.06 408.02 1604.7 362.813C1579.21 292.406 1511.82 307.982 1455.99 278.219C1412.99 255.301 1381.73 216.99 1371.45 170.079C1366.29 146.452 1363.4 114.723 1345.36 96.3939C1320.4 71.0369 1239.37 65.8187 1210.16 60.5218C1160.28 51.4751 1121.24 46.388 1098.43 -1.73C1084.32 -31.4661 1080.25 -64.716 1063.45 -93.5081C1053.8 -110.054 1040.34 -123.559 1029.09 -138.978C1010.74 -164.125 998.624 -194.726 972.507 -213.056C935.061 -239.331 883.797 -240.17 841.028 -253.412C795.034 -267.651 770.542 -300.848 740.675 -336.51C712.775 -369.813 685.739 -403.849 657.262 -436.68C627.841 -470.585 621.809 -487.551 641.345 -530.031C657.446 -564.986 675.172 -598.052 637.726 -624.772C604.844 -648.241 562.258 -637.595 525.442 -634.212C464.502 -628.601 410.326 -642.184 359.665 -678.161C320.961 -705.642 320.226 -721.874 325.497 -768.497C331.843 -824.665 353.083 -877.136 335.75 -932.701" stroke="#383838" stroke-width="1.31112" stroke-miterlimit="10"/>
<path d="M1904.71 482.912C1824.44 459.443 1759.18 551.693 1683.24 564.909C1605.28 578.492 1611.1 422.706 1595.02 377.288C1569.93 306.357 1497.87 321.933 1442.15 291.673C1399.04 268.256 1370.19 230.155 1358.79 183.532C1353.02 160.01 1348.64 128.858 1330.52 110.791C1305.03 85.3816 1226.05 79.3505 1196.1 73.4504C1145.81 63.5122 1108.68 56.642 1085.79 8.6027C1071.68 -21.0285 1066.88 -53.9901 1050.15 -82.6511C1040.5 -99.2236 1027.18 -112.492 1015.67 -127.701C996.92 -152.455 984.805 -181.876 958.819 -200.258C922.448 -225.982 873.911 -229.103 832.532 -243.184C787.639 -258.472 761.994 -292.167 731.157 -326.361C702.391 -358.248 673.992 -390.475 645.383 -422.492C615.228 -456.24 610.193 -473.993 629.545 -516.526C645.593 -551.847 663.582 -585.176 626.189 -612.237C593.411 -635.942 550.144 -627.053 512.961 -624.693C452.885 -620.89 399.182 -633.923 349.202 -669.323C311.39 -696.096 310.682 -712.747 315.638 -758.322C321.695 -813.939 342.306 -865.545 324.999 -920.48" stroke="#383838" stroke-width="1.31112" stroke-miterlimit="10"/>
<path d="M1893.96 495.003C1813.54 470.826 1747.51 562.551 1671.12 575.112C1592.8 587.987 1601.68 437.261 1585.93 391.634C1561.3 320.415 1483.84 335.571 1428.36 304.786C1385.17 280.819 1358.5 242.77 1345.81 196.462C1339.41 173.124 1333.43 143.021 1315.26 125.321C1289.06 99.78 1213.04 92.936 1182.18 86.2231C1131.75 75.2884 1096.51 66.5825 1073.59 18.8317C1059.46 -10.5897 1053.98 -43.2104 1037.38 -71.6878C1027.68 -88.3127 1014.54 -101.293 1002.66 -116.344C983.415 -140.731 971.143 -169.051 945.367 -187.617C910.281 -212.895 864.68 -218.506 824.927 -233.611C781.398 -250.131 754.337 -284.351 722.529 -316.814C692.819 -347.179 662.821 -377.361 633.898 -408.461C602.824 -441.868 598.839 -460.512 617.902 -503.097C633.898 -538.812 652.017 -572.298 614.729 -599.858C582.161 -623.904 538.37 -616.902 500.82 -615.722C441.688 -613.86 388.536 -626.604 339.369 -661.454C302.579 -687.545 301.687 -704.406 306.224 -748.853C311.835 -803.71 331.764 -854.345 314.248 -908.363" stroke="#383838" stroke-width="1.31112" stroke-miterlimit="10"/>
<path d="M1883.26 507.039C1802.81 481.813 1735.97 572.909 1659.19 584.578C1580.6 596.51 1592.77 451.657 1577.32 405.821C1553.3 334.522 1469.73 348.84 1414.67 317.583C1371.35 293.012 1346.78 254.938 1332.62 208.944C1325.51 185.92 1317.91 157.207 1299.74 139.926C1272.7 114.229 1200.4 106.546 1168.47 98.8886C1118.22 86.8525 1084.74 76.2587 1061.82 29.006C1047.69 -0.153178 1041.47 -32.3279 1025 -60.5693C1015.25 -77.2992 1002.24 -89.9384 989.997 -104.833C970.252 -128.852 957.639 -156.15 932.151 -175.082C898.534 -200.02 856.001 -208.28 818.031 -224.538C776.023 -242.526 747.414 -277.113 714.584 -307.741C683.799 -336.481 652.122 -364.407 622.701 -394.563C590.579 -427.498 587.642 -447.086 606.391 -489.75C622.308 -525.937 640.453 -559.528 603.323 -587.586C570.991 -612.051 526.806 -607.121 488.967 -607.226C430.858 -607.384 378.309 -620.049 330.06 -654.426C294.398 -679.836 293.139 -696.749 297.203 -740.016C302.264 -793.955 321.433 -843.463 303.549 -896.354" stroke="#383838" stroke-width="1.31112" stroke-miterlimit="10"/>
<path d="M1872.61 518.992C1792.24 492.508 1724.56 582.948 1647.47 593.542C1568.7 604.372 1584.22 465.892 1569.17 419.898C1545.86 348.731 1455.71 361.763 1401.16 330.113C1357.69 304.887 1335.14 266.733 1319.35 221.08C1311.72 199.054 1302.49 170.393 1284.08 154.528C1254.16 128.725 1190.02 120.649 1154.96 111.392C1105.14 98.2025 1073.31 85.6682 1050.39 39.0973C1036.2 10.279 1029.28 -21.3975 1012.92 -49.3243C1003.03 -66.159 990.207 -78.4048 977.594 -93.2204C957.429 -116.899 944.318 -143.331 919.223 -162.657C887.127 -187.385 847.688 -198.241 811.738 -215.888C771.25 -235.765 741.304 -270.221 707.268 -299.066C675.408 -326.101 641.922 -351.589 611.924 -380.748C578.674 -413.08 576.786 -433.744 595.167 -476.407C610.98 -513.119 629.021 -546.709 592.1 -575.397C560.03 -600.308 515.583 -597.581 477.456 -599.075C420.422 -601.304 368.554 -614.048 321.249 -648.006C286.793 -672.734 285.036 -689.595 288.55 -731.629C292.955 -784.546 311.363 -832.795 292.929 -884.4" stroke="#383838" stroke-width="1.31112" stroke-miterlimit="10"/>
<path d="M1862.05 530.874C1781.86 503.052 1713.34 592.733 1635.93 602.199C1557.03 611.822 1575.93 480.003 1561.3 433.878C1538.83 362.999 1441.7 374.405 1387.79 342.414C1344.13 316.507 1323.47 278.274 1305.98 233.015C1297.58 211.276 1286.73 184.713 1268.37 169.19C1237.72 143.229 1177.62 134.34 1141.69 123.851C1092.5 109.481 1062.19 95.0066 1039.19 49.2487C1024.93 20.8499 1017.22 -10.276 1000.91 -37.8095C990.889 -54.7229 978.197 -66.6279 965.269 -81.3649C944.763 -104.729 931.049 -130.427 906.479 -150.277C875.982 -174.926 839.533 -188.431 805.759 -207.599C766.74 -229.757 735.772 -263.531 700.267 -290.724C667.305 -316.002 632.062 -338.894 601.408 -367.004C566.952 -398.602 566.113 -420.419 584.075 -463.109C599.783 -500.397 617.588 -533.962 580.929 -563.279C549.095 -588.74 504.517 -588.216 466.075 -591.179C410.195 -595.48 358.957 -608.512 312.674 -642.077C238.701 -695.727 310.682 -797.759 282.309 -872.492" stroke="#383838" stroke-width="1.31112" stroke-miterlimit="10"/>
<path d="M1851.53 542.699C1771.55 513.514 1702.22 602.486 1624.58 610.772C1545.6 619.19 1567.81 493.952 1553.65 447.748C1532.09 377.341 1427.83 386.755 1374.57 354.502C1330.65 327.912 1311.88 289.654 1292.58 244.787C1283.37 223.39 1271 198.951 1252.69 183.742C1221.33 157.651 1165.35 147.975 1128.61 136.175C1080.25 120.625 1051.25 104.183 1028.12 59.4219C1013.68 31.4689 1005.13 0.998575 988.817 -26.1153C978.643 -43.0287 966.056 -54.6976 952.893 -69.3821C932.203 -92.4578 917.807 -117.631 893.945 -138.006C865.074 -162.655 831.614 -179.123 799.938 -199.628C762.125 -224.12 730.632 -257.003 693.475 -282.701C659.491 -306.196 622.544 -326.282 591.156 -353.37C555.493 -384.155 555.677 -407.23 573.193 -449.868C588.743 -487.785 606.234 -521.271 569.837 -551.243C538.239 -577.256 493.53 -579.013 454.852 -583.523C400.179 -589.895 349.57 -603.295 304.31 -636.518C232.277 -689.409 301.242 -787.821 271.794 -860.641" stroke="#383838" stroke-width="1.31112" stroke-miterlimit="10"/>
<path d="M1841.09 554.449C1761.35 524.005 1691.26 612.269 1613.38 619.454C1534.32 626.744 1559.73 507.747 1546.12 461.543C1537.99 433.905 1520.03 423.364 1494.12 412.219C1450.17 393.313 1403.63 392.343 1361.59 366.409C1317.33 339.111 1300.52 300.879 1279.28 256.511C1245.72 186.419 1184.72 172.678 1115.84 148.396C1068.45 131.693 1040.61 113.285 1017.19 69.6245C1002.51 42.2221 992.986 12.4074 976.624 -14.2082C952.106 -54.1186 916.207 -94.5272 881.699 -125.863C854.375 -150.669 823.774 -170.074 794.221 -191.969C757.536 -219.109 725.912 -250.707 686.815 -274.937C651.86 -296.596 613.34 -313.824 581.27 -339.863C544.454 -369.757 545.634 -394.17 562.599 -436.755C577.966 -475.302 595.036 -508.735 558.928 -539.363C527.566 -565.952 482.674 -570.069 443.786 -576.074C390.345 -584.308 340.26 -598.363 296.102 -631.246C226.062 -683.402 291.985 -778.117 261.436 -848.943" stroke="#383838" stroke-width="1.31112" stroke-miterlimit="10"/>
<path d="M1830.74 566.09C1751.2 534.571 1680.43 622.206 1602.37 628.473C1523.23 634.818 1551.65 521.407 1538.65 475.23C1530.88 447.644 1511.61 437.391 1485.94 426.535C1440.13 407.156 1392.46 405.504 1348.85 378.155C1327.95 365.043 1308.86 346.766 1293.91 327.231C1280.02 309.032 1276.45 288.081 1266.12 268.309C1231.48 201.967 1169.04 185.788 1103.33 160.562C1057.02 142.783 1030.09 122.408 1006.28 79.928C991.23 53.1026 980.636 24.0745 964.116 -2.0167C938.811 -42.032 903.516 -80.9721 869.663 -113.776C813.128 -168.528 748.909 -229.023 679.997 -267.282C644.23 -287.132 604.319 -301.371 571.62 -326.334C533.702 -355.284 535.826 -381.139 552.215 -423.593C567.346 -462.821 583.944 -496.203 548.072 -527.433C516.789 -554.652 471.844 -560.972 432.694 -568.602C380.485 -578.75 330.978 -593.33 287.763 -625.977C219.743 -677.346 282.597 -768.443 251.052 -837.25" stroke="#383838" stroke-width="1.31112" stroke-miterlimit="10"/>
<path d="M1820.46 577.681C1741.08 545.401 1669.71 632.485 1591.51 638.044C1512.21 643.682 1543.45 534.938 1531.09 488.892C1523.7 461.306 1503.14 451.236 1477.71 440.643C1430.09 420.792 1381.47 418.511 1336.34 389.798C1315.36 376.477 1296.04 358.305 1281.01 338.559C1267.3 320.518 1263.99 299.514 1253.14 280.241C1217.71 217.255 1153.91 198.768 1091.08 172.624C1045.9 153.823 1019.68 131.534 995.241 90.365C953.522 20.1154 915.63 -42.0053 857.836 -101.818C802.009 -159.586 745.788 -223.621 672.917 -259.808C636.52 -277.901 595.456 -289.046 562.206 -312.961C523.318 -340.94 526.334 -368.316 542.067 -410.586C556.935 -450.523 573.01 -483.851 537.321 -515.685C506.064 -543.586 460.988 -552.003 421.576 -561.233C370.547 -573.165 321.59 -588.321 279.267 -620.706C213.266 -671.236 273.131 -758.924 240.773 -825.686" stroke="#383838" stroke-width="1.31112" stroke-miterlimit="10"/>
<path d="M1810.26 589.167C1730.99 556.494 1659.09 643.211 1580.79 648.351C1501.28 653.595 1535 548.287 1523.39 502.45C1516.36 474.786 1494.65 464.821 1469.39 454.411C1420.12 434.115 1370.67 431.283 1324.12 401.337C1303.2 387.859 1283.5 369.896 1268.4 350.125C1254.76 332.267 1251.7 311.289 1240.45 292.436C1204.55 232.203 1139.57 211.645 1079.18 184.662C1035.1 164.969 1009.35 140.792 984.071 100.986C941.119 33.3328 900.448 -30.0729 846.22 -89.886C790.813 -151.036 743.062 -217.851 665.365 -252.333C628.549 -268.67 586.619 -276.72 553.002 -299.586C513.302 -326.621 517.156 -355.623 532.156 -397.605C546.683 -438.249 562.206 -471.578 526.649 -503.936C495.287 -532.492 450.053 -542.929 410.327 -553.733C360.452 -567.29 311.94 -583.023 270.431 -615.198C206.422 -664.81 263.429 -749.43 230.546 -814.146" stroke="#383838" stroke-width="1.31112" stroke-miterlimit="10"/>
<path d="M1800.14 600.549C1720.81 567.981 1648.6 654.462 1570.22 659.628C1490.37 664.873 1526.32 561.557 1515.41 515.982C1508.73 488.082 1486.1 478.144 1460.85 467.838C1410.1 447.149 1359.97 443.845 1312.19 412.798C1291.4 399.293 1271.28 381.593 1256.05 362.005C1242.33 344.384 1239.55 323.458 1228.04 304.919C1191.91 246.705 1126.04 224.364 1067.54 196.568C1024.45 176.089 998.965 150.102 972.638 111.713C928.138 46.865 885.763 -18.376 834.813 -78.1367C779.877 -142.565 739.888 -212.211 657.236 -244.963C620.288 -259.595 577.808 -264.525 544.034 -286.394C503.678 -312.486 508.345 -343.218 522.558 -384.807C536.692 -426.186 551.612 -459.54 516.107 -492.397C484.509 -521.609 439.04 -533.907 398.972 -546.258C350.198 -561.283 302.028 -577.567 261.252 -609.506C199.21 -658.07 253.517 -740.119 220.477 -802.869" stroke="#383838" stroke-width="1.31112" stroke-miterlimit="10"/>
<path d="M1790.09 611.876C1710.61 579.99 1638.16 666.471 1559.76 672.109C1479.46 677.878 1517.28 574.719 1507.08 529.512C1500.7 501.218 1477.44 491.253 1452.01 480.948C1400.04 459.918 1349.43 456.246 1300.57 424.281C1280.04 410.856 1259.43 393.575 1244.07 374.433C1230.14 357.1 1227.65 336.253 1216.03 317.924C1179.93 260.838 1113.4 237.107 1056.23 208.498C1014.02 187.363 988.502 159.62 960.864 122.751C942.823 98.6789 926.329 73.5054 907.895 49.748C878.342 11.647 853.667 -29.0238 823.564 -66.3644C769.31 -133.651 735.405 -206.47 648.294 -237.386C611.504 -250.445 568.919 -252.228 535.223 -273.075C494.448 -298.301 499.823 -330.843 513.197 -371.933C526.885 -414.046 541.202 -447.506 505.618 -480.729C473.653 -510.57 427.843 -524.599 387.356 -538.392C339.579 -554.676 291.67 -571.485 251.445 -603.135C191.265 -650.519 243.212 -730.55 210.407 -791.49" stroke="#383838" stroke-width="1.31112" stroke-miterlimit="10"/>
<path d="M1780.13 623.098C1700.28 592.602 1627.83 679.319 1549.42 685.953C1468.55 692.823 1507.84 587.751 1498.29 542.963C1492.13 514.04 1468.71 503.996 1442.78 493.56C1389.86 472.241 1338.96 468.36 1289.27 435.713C1269.13 422.497 1248 405.794 1232.45 387.386C1218.13 370.42 1215.96 349.678 1204.47 331.427C1168.6 274.472 1101.76 249.797 1045.25 220.376C1003.66 198.716 977.882 169.347 948.671 134.026C929.397 110.74 910.963 86.7731 891.585 63.5663C860.459 26.3044 841.789 -16.5166 812.525 -54.7225C759.372 -124.054 728.875 -201.122 638.408 -229.783C602.143 -241.268 559.846 -240.088 526.57 -259.912C485.637 -284.325 491.668 -318.834 504.124 -359.269C517.314 -402.09 531.002 -435.733 495.234 -469.271C462.745 -499.715 416.436 -515.265 375.477 -530.395C328.565 -547.728 280.788 -564.956 241.009 -596.292C182.559 -642.338 232.513 -721.032 200.443 -780.32" stroke="#383838" stroke-width="1.31112" stroke-miterlimit="10"/>
<path d="M1770.27 634.217C1689.82 605.923 1617.63 693.112 1539.22 701.425C1457.65 710.078 1497.92 600.731 1488.98 556.468C1482.95 526.653 1459.88 516.505 1433.13 505.754C1379.61 484.251 1328.66 480.318 1278.36 447.252C1258.75 434.35 1237.06 418.512 1221.33 401.101C1206.38 384.581 1204.68 363.97 1193.43 345.64C1157.87 287.715 1091.37 262.594 1034.6 232.281C993.327 210.254 967.026 179.364 935.953 145.643C915.211 123.144 894.627 100.514 874.042 77.858C840.871 41.3303 830.277 -3.90323 801.59 -43.0794C750.01 -113.513 719.645 -195.772 627.342 -221.889C592.021 -231.88 550.459 -227.842 518.022 -246.67C477.22 -270.375 483.828 -306.955 495.287 -346.577C507.428 -388.48 522.139 -425.768 484.877 -457.733C449.765 -487.862 405.738 -505.195 363.205 -521.925C317.001 -540.124 269.25 -557.64 229.733 -588.556C172.883 -633.029 221.316 -711.303 190.557 -769.123" stroke="#383838" stroke-width="1.31112" stroke-miterlimit="10"/>
<path d="M1760.51 645.204C1679.83 619.375 1608.5 706.171 1530.41 716.031C1448.68 726.363 1488.22 613.03 1479.23 569.134C1472.99 538.716 1450.36 528.437 1422.95 517.423C1369.36 495.895 1318.46 491.83 1268.06 458.79C1248.86 446.203 1227.07 430.994 1211.42 414.238C1196.24 397.98 1194.87 377.344 1183.75 359.04C1148.22 300.433 1081.7 274.683 1024.58 243.819C983.127 221.426 956.459 189.775 924.127 156.735C902.336 134.472 880.309 112.446 858.912 89.7896C824.744 53.629 820.129 6.92712 790.629 -31.5672C738.892 -99.0635 699.27 -184.706 610.744 -209.984C577.73 -219.424 538.606 -214.311 508.424 -232.43C468.828 -256.188 476.144 -294.997 486.424 -333.57C497.699 -375.84 512.121 -414.597 474.624 -446.483C438.935 -476.822 394.514 -494.968 351.667 -512.537C305.804 -531.338 258.08 -549.301 218.589 -580.06C163.076 -623.326 210.093 -701.416 180.829 -758.24" stroke="#383838" stroke-width="1.31112" stroke-miterlimit="10"/>
<path d="M1750.99 655.955C1670.62 631.936 1600.53 717.316 1523.12 727.988C1441.89 739.185 1479.46 624.2 1469.89 580.435C1463.23 549.938 1440.78 539.502 1413.17 528.384C1359.86 506.908 1308.94 502.581 1258.75 469.856C1239.79 457.505 1218.26 442.532 1202.97 425.828C1188.11 409.597 1186.85 388.829 1175.6 370.761C1139.57 312.889 1072.6 285.906 1015.77 254.754C974.08 231.888 947.333 200.002 914.477 166.909C892.135 144.41 869.479 122.279 847.741 99.2294C813.914 63.3835 811.266 15.9473 780.245 -20.4493C727.145 -82.7011 673.835 -169.445 591.47 -195.116C561.446 -204.478 525.442 -200.492 498.381 -218.139C460.883 -242.605 468.461 -283.145 477.456 -320.721C487.577 -363.044 501.685 -403.793 464.213 -435.47C428.367 -465.757 383.999 -484.375 341.204 -502.468C295.525 -521.82 248.063 -540.385 208.651 -571.275C154.344 -613.86 199.42 -691.19 171.126 -747.332" stroke="#383838" stroke-width="1.31112" stroke-miterlimit="10"/>
<path d="M1741.71 666.414C1661.81 643.889 1592.87 727.748 1516.15 738.998C1435.41 750.824 1471.1 634.554 1461 590.894C1453.95 560.345 1431.71 549.804 1403.94 538.528C1351.03 517.078 1300.1 512.568 1250.25 480.21C1231.53 468.069 1210.24 453.306 1195.34 436.628C1180.84 420.397 1179.61 399.497 1168.18 381.692C1131.68 324.895 1064.28 296.496 1008.04 265.029C966.344 241.692 939.362 209.491 906.007 176.503C883.088 153.847 859.724 131.689 837.593 108.272C824.744 94.6891 813.232 83.0465 805.811 65.2678C793.906 36.7117 792.333 13.1378 770.831 -10.0165C716.446 -68.571 652.385 -154.502 574.294 -181.275C546.813 -190.688 513.564 -187.961 489.177 -205.294C453.75 -230.468 460.935 -272.03 468.671 -308.925C477.56 -351.3 490.907 -393.492 453.619 -424.906C417.773 -455.088 373.563 -474.152 331.03 -492.769C285.692 -512.62 238.649 -531.814 199.473 -562.783C146.346 -604.791 189.167 -681.255 161.503 -736.689" stroke="#383838" stroke-width="1.31112" stroke-miterlimit="10"/>
<path d="M1732.64 676.646C1653.32 655.327 1585.45 737.613 1509.46 749.177C1429.27 761.37 1463.1 644.157 1452.53 600.575C1445.11 570.052 1423.11 559.353 1395.24 547.973C1342.82 526.549 1291.92 521.882 1242.47 489.969C1224.14 478.143 1202.58 463.511 1188.45 446.781C1174.55 430.313 1173.13 409.545 1161.44 391.976C1124.52 336.516 1056.68 306.623 1001.33 274.789C959.841 250.953 932.491 218.385 898.638 185.685C875.091 162.951 850.992 140.819 828.415 117.088C815.592 103.636 804.028 92.0455 796.843 74.293C785.174 45.4485 784.807 22.4777 762.335 -0.125939C731.628 -31.0158 698.667 -61.6435 666.125 -90.7765C635.55 -118.126 597.973 -153.605 559.112 -168.342C533.729 -177.966 502.917 -176.602 480.786 -193.752C447.378 -219.607 453.619 -261.563 460.123 -298.012C467.675 -340.387 479.894 -383.575 442.921 -414.675C407.153 -444.725 363.336 -464.209 321.144 -483.325C276.278 -503.647 229.812 -523.419 191.029 -554.44C139.109 -595.95 179.308 -671.444 151.984 -726.117" stroke="#383838" stroke-width="1.31112" stroke-miterlimit="10"/>
<path d="M1723.75 686.662C1645.11 666.261 1578.24 746.895 1502.98 758.564C1423.35 770.915 1455.44 653.071 1444.38 609.542C1436.64 579.098 1414.88 568.242 1386.95 556.73C1335.14 535.359 1284.32 530.534 1235.33 499.146C1217.61 487.766 1195.08 473.16 1182.21 456.273C1169.31 439.359 1167.26 418.906 1155.3 401.625C1118.01 347.765 1049.78 316.272 995.504 284.018C954.44 259.632 926.565 226.67 892.24 194.417C868.011 171.63 843.126 149.629 820.076 125.635C807.254 112.288 795.637 100.751 788.636 82.9981C777.177 53.8389 777.937 31.3926 754.625 9.20849C722.346 -21.5503 686.264 -51.0505 651.65 -79.3968C620.367 -105.016 583.315 -140.442 545.712 -156.254C522.06 -166.219 493.32 -166.324 473.05 -183.394C441.557 -209.931 446.435 -251.677 451.679 -287.943C457.789 -330.266 468.566 -374.031 432.038 -404.737C396.481 -434.631 353.162 -454.507 311.442 -474.095C267.179 -494.889 221.447 -515.212 183.189 -546.233C132.475 -587.323 169.737 -661.742 142.492 -715.629" stroke="#383838" stroke-width="1.31112" stroke-miterlimit="10"/>
<path d="M1715.07 696.442C1637.22 676.671 1571.27 755.6 1496.8 767.19C1417.74 779.489 1448.15 661.304 1436.62 617.828C1428.57 587.515 1407.06 576.475 1379.16 564.859C1328.03 543.514 1277.32 538.61 1228.88 507.747C1211.21 496.497 1189.31 482.075 1176.67 465.135C1164.06 448.222 1162.09 427.637 1149.82 410.645C1112.19 358.568 1043.62 325.501 990.626 292.75C950.165 267.76 921.635 234.431 886.891 202.729C861.953 179.968 836.256 158.151 812.656 133.947C799.754 120.705 788.085 109.246 781.294 91.4147C770.097 61.9408 771.801 39.8879 747.808 17.9922C714.217 -12.6354 675.487 -41.0341 639.142 -68.6463C619.423 -83.6454 598.419 -96.6517 579.434 -112.385C564.645 -124.657 551.901 -136.772 534.148 -145.032C511.833 -155.442 484.85 -157.094 466.101 -174.27C436.418 -201.462 439.564 -242.553 443.498 -278.739C448.06 -320.957 457.107 -364.88 421.13 -395.167C385.887 -424.85 343.224 -445.12 302.107 -465.154C258.578 -486.368 213.712 -507.267 176.056 -538.262C126.549 -579.011 160.559 -652.25 133.13 -705.324" stroke="#383838" stroke-width="1.31112" stroke-miterlimit="10"/>
<path d="M1706.57 706.011C1629.59 686.633 1564.53 763.779 1490.82 775.081C1412.33 787.09 1441.18 668.906 1429.19 625.43C1420.88 595.274 1399.62 584.077 1371.82 572.33C1321.45 551.037 1270.89 546.055 1223.03 515.794C1205.41 504.65 1184.17 490.411 1171.74 473.367C1159.39 456.453 1157.51 435.737 1144.89 419.06C1106.92 368.871 1038.19 334.31 986.562 300.955C946.835 275.309 917.597 241.64 882.433 210.593C856.735 187.91 830.198 166.329 806.047 141.969C793.015 128.805 781.294 117.477 774.686 99.5149C763.725 69.7263 766.321 47.9355 741.724 26.2497C707.111 -4.24688 666.125 -31.5706 628.417 -58.5009C608.016 -73.0543 586.435 -85.4837 567.424 -101.61C553.186 -113.673 541.123 -125.918 524.236 -134.65C502.944 -145.638 477.377 -148.863 459.808 -166.275C431.75 -194.044 432.982 -234.112 435.474 -270.377C438.384 -312.385 445.438 -356.124 410.09 -385.992C375.241 -415.439 333.39 -436.05 292.929 -456.556C250.239 -478.189 206.395 -499.613 169.448 -530.529C121.147 -570.99 151.617 -642.996 123.821 -695.205" stroke="#383838" stroke-width="1.31112" stroke-miterlimit="10"/>
<path d="M1698.24 715.402C1622.19 696.181 1557.95 771.491 1485.05 782.321C1407.17 793.885 1434.49 675.911 1422.06 632.434C1413.51 602.515 1392.48 591.108 1364.84 579.255C1315.28 557.989 1264.94 553.007 1217.74 523.376C1200.09 512.31 1179.58 498.255 1167.36 481.079C1155.3 464.113 1153.47 443.345 1140.46 426.956C1123.97 406.162 1097.4 390.769 1077.19 373.725C1048.45 349.495 1014.17 329.776 983.232 308.746C944.344 282.34 914.372 248.461 878.762 218.122C852.304 195.57 824.849 174.304 800.121 149.786C786.931 136.701 775.131 125.504 768.707 107.385C758.008 77.2815 761.365 55.6219 736.296 34.0934C700.922 3.7279 658.075 -22.5469 619.292 -48.8216C598.393 -62.9817 576.287 -74.9129 557.329 -91.3281C543.536 -103.259 531.945 -115.715 515.792 -124.893C495.208 -136.588 470.769 -141.439 454.039 -159.191C427.423 -187.459 426.584 -226.294 427.554 -262.586C428.656 -304.306 433.533 -347.546 398.92 -376.942C364.542 -406.101 323.609 -427.105 283.961 -448.03C242.215 -470.057 199.473 -492.005 163.391 -522.843C116.295 -563.094 142.937 -633.789 114.591 -685.08" stroke="#383838" stroke-width="1.31112" stroke-miterlimit="10"/>
<path d="M1690.05 724.602C1615.03 705.329 1551.52 778.751 1479.49 788.926C1402.21 799.834 1428.12 682.411 1415.24 638.882C1406.46 609.224 1385.72 597.634 1358.29 585.65C1309.62 564.41 1259.51 559.428 1213.02 530.505C1195.34 519.491 1175.57 505.646 1163.56 488.287C1151.74 471.242 1150.01 450.448 1136.58 434.348C1119.27 413.632 1091.98 399.498 1071.36 382.218C1042.91 358.355 1010.77 337.771 980.662 316.164C942.692 288.919 912.012 254.934 875.956 225.356C848.685 202.988 820.339 182.089 794.955 157.492C781.556 144.486 769.703 133.42 763.41 115.091C752.973 84.6991 757.038 63.0133 731.55 41.5372C695.651 11.3029 651.336 -13.9492 611.766 -39.5946C590.5 -53.3876 568.027 -64.9254 549.147 -81.5766C535.643 -93.4815 524.367 -106.147 508.817 -115.797C488.679 -128.305 465.052 -134.782 448.899 -153.032C423.542 -181.641 420.527 -219.165 419.819 -255.483C419.006 -296.783 421.55 -339.29 387.67 -368.187C353.87 -397.057 313.933 -418.376 275.177 -439.747C234.479 -462.167 192.97 -484.614 157.779 -515.346C111.89 -555.44 134.468 -624.746 105.387 -675.066" stroke="#383838" stroke-width="1.31112" stroke-miterlimit="10"/>
<path d="M1682.03 733.653C1608.08 714.118 1545.28 785.599 1474.09 794.961C1397.41 805.056 1422.01 688.393 1408.66 644.812C1399.69 615.469 1379.21 603.643 1352.02 591.58C1304.3 570.367 1254.48 565.437 1208.74 537.222C1190.96 526.261 1172.01 512.599 1160.18 495.03C1148.62 477.854 1146.99 457.112 1133.07 441.3C1114.92 420.716 1086.91 407.972 1065.88 390.403C1037.77 366.934 1007.78 345.353 978.695 323.195C941.669 294.954 910.36 261.074 873.806 232.256C845.722 210.124 816.431 189.645 790.419 164.97C776.757 152.016 764.878 141.133 758.716 122.568C748.542 91.9142 753.236 70.0449 727.433 48.595C691.272 18.518 645.75 -5.76396 605.683 -30.8325C584.18 -44.2845 561.446 -55.5077 542.67 -72.3162C529.349 -84.2474 518.231 -97.1749 503.18 -107.323C483.224 -120.775 460.175 -128.904 444.258 -147.732C419.95 -176.524 414.732 -212.789 412.188 -248.95C409.33 -289.778 409.33 -331.13 376.342 -359.66C343.25 -388.269 304.283 -409.876 266.549 -431.641C227.006 -454.454 186.781 -477.372 152.587 -507.974C107.904 -547.963 126.129 -615.826 96.2091 -665.15" stroke="#383838" stroke-width="1.31112" stroke-miterlimit="10"/>
<path d="M1674.11 742.567C1601.29 722.586 1539.17 792.049 1468.82 800.493C1392.75 809.618 1416.08 693.951 1402.32 650.291C1393.17 621.289 1372.95 609.253 1346.07 597.06C1299.34 575.872 1249.83 571.047 1204.89 543.54C1187.01 532.605 1168.89 519.127 1157.24 501.348C1145.91 484.041 1144.39 463.326 1129.95 447.802C1110.93 427.349 1082.19 416.178 1060.74 398.321C1033.08 375.298 1005.18 352.589 977.305 329.854C941.25 300.485 909.442 266.947 872.285 238.863C843.336 216.993 813.127 196.986 786.407 172.284C772.457 159.383 760.525 148.684 754.494 129.83C744.582 98.9405 749.827 76.7564 723.788 55.2541C687.575 25.3344 641.188 1.97024 600.832 -22.5214C579.172 -35.6588 556.358 -46.6458 537.714 -63.5592C524.472 -75.5691 513.38 -88.8113 498.696 -99.4314C478.714 -113.88 455.953 -123.687 440.062 -143.223C416.593 -172.067 409.173 -207.126 404.689 -242.999C399.47 -284.587 396.14 -321.403 364.936 -351.375C334.413 -380.718 294.057 -401.827 258.08 -423.749C219.795 -447.087 180.986 -470.267 147.815 -500.764C104.312 -540.753 118 -607.043 87.1362 -655.318" stroke="#383838" stroke-width="1.31112" stroke-miterlimit="10"/>
<path d="M1666.32 751.35C1594.68 730.792 1533.17 798.183 1463.68 805.552C1388.21 813.549 1410.42 699.141 1396.21 655.324C1386.92 626.689 1366.97 614.443 1340.41 602.145C1294.73 580.984 1245.59 576.264 1201.45 549.517C1183.41 538.582 1166.16 525.287 1154.73 507.246C1143.63 489.756 1142.24 469.145 1127.24 453.91C1107.32 433.667 1077.89 424.174 1056 405.976C1028.88 383.451 1003 359.405 976.493 336.198C941.433 305.518 909.232 272.583 871.42 245.207C841.631 223.652 810.479 204.143 783.024 179.467C768.759 166.618 756.802 156.103 750.85 136.961C741.2 105.835 746.916 83.2315 720.72 61.6243C684.638 31.8619 637.648 9.38943 597.239 -14.5516C575.527 -27.4005 552.74 -38.2303 534.253 -55.1962C520.985 -67.3633 509.788 -80.9202 495.366 -92.0385C475.174 -107.588 452.492 -119.074 436.339 -139.396C413.499 -168.188 403.902 -202.12 397.32 -237.546C389.795 -278.06 383.973 -314.011 353.503 -343.301C323.452 -372.198 284.722 -393.648 249.794 -416.015C212.794 -439.694 175.453 -463.373 143.41 -493.686C101.061 -533.727 110.029 -598.365 78.1422 -645.592" stroke="#383838" stroke-width="1.31112" stroke-miterlimit="10"/>
<path d="M1658.61 760.032C1588.21 738.766 1527.27 804.007 1458.62 810.196C1383.78 816.935 1404.89 703.995 1390.23 660.02C1366.16 587.83 1254.37 588.853 1198.31 555.236C1180.08 544.301 1163.72 531.19 1152.47 512.861C1141.59 495.135 1140.36 474.681 1124.75 459.734C1103.85 439.727 1073.78 432.017 1051.41 413.452C1024.98 391.478 1000.93 365.885 975.994 342.311C941.958 310.136 909.494 278.066 870.921 251.372C840.268 230.158 808.145 211.225 779.982 186.576C765.35 173.754 753.367 163.475 747.519 143.965C738.105 112.656 744.268 89.4752 717.94 67.7106C682.199 38.1581 634.842 16.4984 594.591 -6.89189C572.879 -19.5048 550.301 -30.2035 531.946 -47.1693C518.572 -59.5201 507.192 -73.4704 492.9 -85.0606C439.459 -128.432 407.704 -162.049 389.952 -232.456C380.066 -271.685 371.675 -306.744 341.939 -335.353C312.412 -363.751 275.386 -385.595 241.507 -408.408C205.871 -432.428 170.051 -456.578 139.161 -486.708C97.9399 -526.907 102.004 -589.762 69.0691 -635.887" stroke="#383838" stroke-width="1.31112" stroke-miterlimit="10"/>
<path d="M1651.01 768.582C1581.86 746.476 1521.44 809.541 1453.69 814.419C1379.45 819.794 1399.59 708.507 1384.46 664.322C1359.89 592.551 1251.54 593.836 1195.53 560.613C1177.09 549.678 1161.65 536.724 1150.58 518.08C1139.91 500.118 1138.86 479.795 1122.63 465.163C1100.79 445.47 1069.98 439.623 1047.21 420.664C1021.54 399.293 999.254 371.917 976.073 348.081C943.138 314.254 910.465 283.285 871.026 257.22C839.507 236.374 806.415 218.044 777.491 193.448C762.466 180.678 750.483 170.608 744.687 150.732C735.51 119.265 742.039 95.4025 715.685 73.4544C680.443 44.1116 632.954 23.2649 592.991 0.34657C571.358 -12.0566 549.069 -22.6766 530.897 -39.59C517.34 -52.2029 505.671 -66.5203 491.406 -78.5825C439.04 -122.977 404.872 -159.924 382.741 -227.866C370.442 -265.626 359.403 -299.715 330.375 -327.668C301.373 -355.569 266.104 -377.779 233.378 -401.012C199.158 -425.347 164.938 -449.996 135.254 -479.915C95.1081 -520.376 94.1903 -581.291 60.1275 -626.314" stroke="#383838" stroke-width="1.31112" stroke-miterlimit="10"/>
<path d="M1643.46 777.073C1575.59 754.049 1515.68 814.833 1448.76 818.346C1375.12 822.227 1394.35 712.802 1378.77 668.381C1353.75 597.082 1248.86 598.603 1192.93 565.799C1174.26 554.865 1159.73 542.042 1148.85 523.083C1138.36 504.832 1137.5 484.694 1120.61 470.376C1097.82 451.05 1066.23 447.117 1043.07 427.765C1018.24 406.997 997.602 377.628 976.283 353.713C944.554 318.103 911.645 288.419 871.341 263.01C838.93 242.583 804.92 224.883 775.21 200.365C759.765 187.621 747.782 177.788 742.065 157.518C733.123 125.894 739.994 101.245 713.614 79.0605C678.974 49.9275 631.59 29.8412 592.1 7.44735C570.597 -4.74603 548.728 -15.3924 530.713 -32.1747C516.894 -45.0499 504.884 -59.7868 490.567 -72.3473C438.935 -117.686 402.119 -158.042 375.503 -223.493C360.793 -259.653 347.078 -292.667 318.679 -319.991C290.254 -347.367 256.716 -369.944 225.249 -393.649C192.471 -418.325 159.877 -443.419 131.452 -473.155C92.3808 -514.01 86.3235 -572.8 51.1331 -616.723" stroke="#383838" stroke-width="1.31112" stroke-miterlimit="10"/>
<path d="M1635.98 785.465C1569.43 761.446 1509.96 819.895 1443.93 821.967C1370.9 824.248 1389.31 716.868 1373.26 672.185C1347.85 601.411 1246.45 603.115 1190.62 570.81C1171.69 559.849 1158.11 547.157 1147.41 527.884C1137.1 509.344 1136.47 489.389 1118.88 475.386C1095.17 456.506 1062.74 454.514 1039.24 434.742C1015.33 414.629 996.264 383.058 976.938 359.169C946.573 321.671 913.323 293.404 872.128 268.65C838.851 248.668 803.871 231.598 773.4 207.237C757.536 194.546 745.552 184.948 739.862 164.232C731.13 132.477 738.289 106.963 711.962 84.5165C678.082 55.6458 630.935 36.2676 592.047 14.3195C570.728 2.28345 549.357 -8.38906 531.5 -25.0402C517.34 -38.2563 504.936 -53.3604 490.462 -66.4191C439.249 -112.702 399.628 -156.467 368.397 -219.4C351.326 -253.804 334.858 -285.664 307.01 -312.463C279.162 -339.289 247.381 -362.286 217.199 -386.41C185.916 -411.4 155 -436.967 127.807 -466.493C89.7584 -507.793 78.5091 -564.355 42.1649 -607.176" stroke="#383838" stroke-width="1.31112" stroke-miterlimit="10"/>
<path d="M1628.56 793.832C1563.32 768.789 1504.3 824.826 1439.11 825.377C1366.68 825.98 1384.33 720.802 1367.81 675.805C1342.03 605.608 1244.14 607.47 1188.47 575.662C1169.28 564.701 1156.61 552.088 1146.1 532.5C1135.95 513.62 1135.56 493.874 1117.23 480.213C1092.68 461.883 1059.22 461.778 1035.49 441.613C1012.55 422.13 995.032 388.172 977.725 364.493C948.907 325.055 915.132 298.256 873.098 274.21C838.956 254.674 803.032 238.312 771.775 214.082C755.438 201.417 743.507 192.082 737.843 170.92C729.295 139.06 736.742 112.576 710.467 89.8409C677.401 61.2323 630.699 42.5359 592.519 21.0598C550.852 -2.38297 525.416 -28.7365 490.881 -60.6491C439.722 -107.928 397.32 -155.023 361.343 -215.439C320.777 -283.539 268.988 -328.379 209.254 -379.198C179.57 -404.424 149.808 -430.253 124.346 -459.858C87.8704 -502.233 70.7735 -555.884 33.328 -597.604" stroke="#383838" stroke-width="1.31112" stroke-miterlimit="10"/>
<path d="M1621.17 802.143C1557.24 776.025 1498.63 829.597 1434.28 828.575C1362.46 827.421 1379.45 724.603 1362.41 679.265C1336.29 609.697 1241.91 611.638 1186.43 580.381C1166.95 569.393 1155.22 556.859 1144.87 536.956C1134.88 517.735 1134.72 498.174 1115.68 484.853C1090.35 467.126 1055.76 468.883 1031.85 448.351C1009.87 429.471 993.957 393.022 978.643 369.632C951.581 328.279 917.073 302.922 874.226 279.61C839.245 260.573 802.376 244.918 770.333 220.82C753.524 208.181 741.646 199.108 735.982 177.501C727.617 145.509 735.3 118.028 709.104 94.979C676.929 66.6589 630.804 48.618 593.411 27.5615C551.822 4.14496 525.941 -22.9164 491.668 -55.1699C440.168 -103.629 395.196 -153.74 354.237 -211.743C310.262 -273.995 257.267 -321.222 201.204 -372.145C172.988 -397.765 145.324 -424.17 120.806 -453.382C84.9338 -496.098 62.9071 -547.52 24.3865 -588.139" stroke="#383838" stroke-width="1.31112" stroke-miterlimit="10"/>
<path d="M1613.8 810.428C1551.18 783.236 1492.94 834.264 1429.46 831.642C1358.24 828.679 1374.6 728.352 1357.08 682.594C1330.68 613.682 1239.82 615.701 1184.51 584.995C1165.29 574.322 1152.81 561.631 1143.76 541.256C1134.95 521.458 1133.64 502.08 1114.24 489.362C1088.25 472.344 1052.33 475.884 1028.33 454.985C1007.28 436.655 993.065 397.636 979.718 374.666C954.597 331.399 919.118 307.484 875.537 284.933C839.717 266.394 801.931 251.447 769.1 227.559C751.794 214.972 739.994 206.135 734.33 184.056C726.122 151.96 734.015 123.43 707.95 100.013C676.719 71.9815 631.302 54.5698 594.722 33.9328C553.264 10.5425 526.885 -17.3842 492.848 -49.8212C440.561 -99.6961 393.387 -152.482 347.236 -208.152C300.036 -265.08 246.096 -313.723 193.232 -365.171C166.511 -391.183 140.945 -418.14 117.345 -447.011C82.0231 -490.199 55.1452 -539.13 15.5233 -578.699" stroke="#383838" stroke-width="1.31112" stroke-miterlimit="10"/>
<path d="M1606.46 818.717C1545.15 790.475 1487.25 838.882 1424.61 834.608C1353.99 829.783 1369.83 732.052 1351.76 685.875C1325.09 617.644 1237.72 619.69 1182.65 589.586C1163.17 578.94 1151.45 566.196 1142.69 545.533C1134.14 525.342 1132.88 506.121 1112.8 493.849C1086.26 477.617 1048.81 482.861 1024.82 461.648C1004.63 443.816 992.279 402.175 980.767 379.677C957.744 334.6 921.111 312.049 876.874 290.285C840.215 272.27 801.537 258.058 767.92 234.353C750.115 221.792 738.394 213.244 732.73 190.666C724.654 158.465 732.73 128.834 706.822 105.077C676.562 77.3333 631.931 60.551 596.243 40.3074C555.021 16.9433 527.986 -11.9276 494.212 -44.4695C440.718 -96.0225 391.814 -151.116 340.208 -204.53C289.651 -256.87 235.502 -305.539 185.208 -358.167C121.54 -424.824 73.3435 -506.008 6.63391 -569.23" stroke="#383838" stroke-width="1.31112" stroke-miterlimit="10"/>
<path d="M1599.09 826.976C1539.09 797.686 1481.48 843.444 1419.68 837.518C1349.66 830.805 1365 735.749 1346.44 689.126C1319.56 621.629 1235.62 623.622 1180.76 594.149C1139.28 571.86 1148.22 519.336 1111.3 498.254C1084.35 482.861 1045.17 489.705 1021.31 468.255C1001.93 450.844 991.544 406.606 981.816 384.658C961.048 337.852 923.052 316.559 878.211 295.607C840.766 278.117 801.196 264.665 766.819 241.17C748.516 228.662 736.873 220.349 731.209 197.3C723.264 164.968 731.524 134.235 705.721 110.084C676.431 82.6559 632.666 66.4506 597.895 46.6003C556.909 23.2362 529.219 -6.63114 495.68 -39.1993C440.587 -92.6928 390.45 -149.779 333.18 -200.965C278.874 -249.502 225.512 -296.624 177.131 -351.271C116.138 -420.131 66.5257 -497.854 -2.25549 -559.791" stroke="#383838" stroke-width="1.31112" stroke-miterlimit="10"/>
<path d="M1591.72 835.287C1532.98 805.001 1475.63 848.031 1414.69 840.453C1345.31 831.826 1360.18 739.523 1341.09 692.428C1314 625.666 1233.5 627.607 1178.88 598.762C1137.21 576.762 1147.59 522.849 1109.78 502.71C1082.51 488.209 1041.47 496.547 1017.79 474.914C999.122 457.843 990.889 411.036 982.76 389.665C964.325 341.206 924.835 321.12 879.47 300.981C841.238 284.016 800.829 271.324 765.691 248.065C746.89 235.609 735.352 227.559 729.662 203.985C721.795 171.522 730.239 139.688 704.567 115.144C676.221 88.0299 633.374 72.4539 599.494 52.9445C558.797 29.5018 530.477 -1.33563 497.122 -33.8513C440.036 -89.4688 389.244 -148.312 326.153 -197.269C267.703 -242.607 216.019 -286.871 169.029 -344.35C110.133 -416.356 60.547 -488.887 -11.0924 -550.326" stroke="#383838" stroke-width="1.31112" stroke-miterlimit="10"/>
<path d="M1584.3 843.603C1526.82 812.372 1469.71 852.623 1409.58 843.419C1340.8 832.904 1355.27 743.381 1335.63 695.788C1308.39 629.786 1231.22 631.621 1176.83 603.432C1134.93 581.72 1146.83 526.444 1108.08 507.196C1080.65 493.587 1037.54 503.368 1014.15 481.603C996.107 464.821 990.154 415.497 983.494 394.703C967.472 344.697 926.382 325.738 880.519 306.412C841.552 289.997 800.305 278.066 764.406 255.016C745.107 242.613 733.7 234.825 727.957 210.753C720.169 178.133 728.77 145.197 703.23 120.26C675.775 93.4083 633.872 78.6189 600.91 59.3193C560.528 35.7192 531.526 4.0688 498.355 -28.4207C439.145 -86.3982 387.985 -146.788 318.994 -193.464C287.213 -214.966 252.573 -234.318 224.987 -261.17C201.387 -284.141 180.514 -311.123 160.716 -337.398C140.079 -364.801 122.405 -394.143 102.319 -421.887C69.1478 -467.697 23.4685 -505.169 -20.0868 -540.805" stroke="#383838" stroke-width="1.31112" stroke-miterlimit="10"/>
<path d="M1576.85 851.991C1520.58 819.895 1463.68 857.288 1404.39 846.484C1336.24 834.055 1350.32 747.39 1330.15 699.272C1302.8 634.031 1228.88 635.709 1174.71 608.202C1132.52 586.778 1146.02 530.138 1106.27 511.782C1078.76 499.091 1033.5 510.209 1010.45 488.366C992.96 471.767 989.394 420.004 984.071 399.813C970.487 348.365 927.771 330.455 881.437 311.916C841.736 296.051 799.702 284.854 763.095 262.067C743.297 249.743 732.022 242.164 726.253 217.62C718.543 184.842 727.275 150.832 701.866 125.475C675.277 98.9381 634.317 84.752 602.169 65.7932C562.075 42.1669 532.391 9.59868 499.456 -22.8383C467.753 -54.0691 436.942 -85.8767 406.603 -118.445C378.65 -148.417 347.131 -168.582 311.888 -189.481C278.481 -209.253 241.297 -226.507 213.37 -253.805C190.321 -276.329 170.707 -304.02 152.43 -330.479C133.288 -358.196 117.423 -388.194 98.1234 -415.701C65.529 -462.22 15.392 -496.623 -28.9762 -531.289" stroke="#383838" stroke-width="1.31112" stroke-miterlimit="10"/>
<path d="M1569.35 860.438C1514.26 827.529 1457.52 862.09 1399.07 849.713C1331.54 835.422 1345.28 751.563 1324.57 702.921C1297.11 638.44 1226.37 639.961 1172.45 613.135C1129.92 591.974 1145.05 534.023 1104.27 516.506C1076.79 504.706 1029.33 517.135 1006.65 495.24C989.604 478.772 988.555 424.649 984.386 405.061C973.267 352.617 928.873 334.917 882.092 317.584C841.684 302.611 798.81 291.781 761.627 269.308C741.331 257.036 730.239 249.694 724.391 224.678C716.708 191.716 725.624 156.657 700.293 130.881C674.49 104.632 634.423 91.0752 603.061 72.4574C563.229 48.8311 532.89 15.3977 500.191 -16.9607C467.439 -49.3715 434.871 -82.0184 404.033 -116.265C375.897 -147.548 341.781 -165.851 304.703 -185.125C269.854 -203.27 230.074 -218.427 201.728 -246.196C179.151 -268.328 160.795 -296.727 143.96 -323.369C126.26 -351.374 112.126 -382.028 93.5872 -409.404C61.6484 -456.578 7.10594 -487.887 -37.9178 -521.609" stroke="#383838" stroke-width="1.31112" stroke-miterlimit="10"/>
<path d="M1561.77 868.958C1507.78 835.341 1451.22 866.991 1393.56 853.12C1326.67 837.019 1340.06 755.914 1318.8 706.773C1291.27 643.079 1223.59 644.338 1169.88 618.22C1126.98 597.347 1143.79 538.059 1101.97 521.355C1074.56 510.42 1024.87 524.056 1002.56 502.186C985.854 485.797 987.375 429.419 984.254 410.382C975.47 356.705 929.528 339.923 882.302 323.298C841.264 308.875 797.63 298.78 759.817 276.569C739.076 264.376 728.115 257.244 722.241 231.756C714.584 198.584 723.657 162.502 698.379 136.333C673.31 110.346 634.029 97.4448 603.349 79.1417C563.753 55.5154 532.837 21.3215 500.374 -10.9844C466.599 -44.6014 433.271 -78.6642 401.149 -113.855C371.911 -145.872 336.458 -162.759 297.387 -180.695C261.252 -197.294 218.825 -210.458 190.111 -238.725C167.98 -260.516 150.752 -289.649 135.307 -316.448C118.996 -344.742 106.515 -376.052 88.6571 -403.349C57.3739 -451.152 -1.36408 -479.341 -46.9385 -512.119" stroke="#383838" stroke-width="1.31112" stroke-miterlimit="10"/>
<path d="M1554.12 877.558C1501.2 843.312 1444.74 872.078 1387.87 856.738C1321.6 838.88 1334.66 760.502 1312.9 710.837C1303.62 689.676 1286.44 673.785 1267.95 660.49C1236.62 637.939 1200.82 639.538 1167.1 623.49C1123.81 602.906 1142.3 542.306 1099.42 526.389C1072.15 516.267 1020.28 531.109 998.336 509.24C981.921 492.877 985.985 434.349 983.783 415.862C977.253 361.031 929.817 345.088 882.171 329.197C840.53 315.299 796.214 305.938 757.772 283.99C736.585 271.875 725.807 264.926 719.855 238.992C712.198 205.611 721.454 168.533 696.202 141.97C671.763 116.246 633.19 104 603.113 86.0377C563.701 62.49 532.26 27.5619 500.059 -4.69151C465.367 -39.4361 431.383 -74.8887 398.055 -110.918C367.715 -143.696 330.978 -159.193 290.045 -175.871C252.809 -191.027 207.707 -202.277 178.574 -231.095C156.783 -252.624 140.683 -282.491 126.549 -309.421C111.55 -338.003 100.641 -369.995 83.4129 -397.24C52.8115 -445.594 -9.91229 -470.662 -55.9062 -502.496" stroke="#383838" stroke-width="1.31112" stroke-miterlimit="10"/>
<path d="M1546.38 886.265C1494.46 851.495 1438.11 877.35 1382.02 860.672C1316.39 841.163 1329.1 765.38 1306.84 715.243C1297.64 694.528 1280.59 678.48 1262.63 665.133C1231.92 642.319 1197.44 644.548 1164.06 629.051C1120.32 608.755 1140.49 546.896 1096.59 531.713C1069.45 522.326 1015.54 538.348 993.878 516.531C977.646 500.168 984.281 439.568 982.865 421.606C980.137 386.888 973.136 377.343 943.872 360.927C924.179 349.888 903.07 342.152 881.594 335.361C839.428 322.014 794.431 313.36 755.438 291.648C733.831 279.638 723.237 272.847 717.232 246.493C709.576 212.876 718.989 174.854 693.711 147.95C669.77 122.462 631.748 110.898 602.169 93.2499C562.888 69.8334 531.028 34.276 499.063 2.0488C463.558 -33.7447 429.049 -70.5084 394.619 -107.298C363.231 -140.837 325.261 -155.049 282.624 -170.547C244.392 -184.418 196.667 -193.884 167.114 -223.227C145.612 -244.572 130.534 -275.121 117.607 -302.235C103.84 -331.106 94.3999 -363.779 77.7225 -391.05C47.8028 -439.902 -18.6183 -461.824 -64.9269 -492.74" stroke="#383838" stroke-width="1.31112" stroke-miterlimit="10"/>
<path d="M1538.52 895.104C1487.51 859.914 1431.27 882.885 1375.94 864.923C1310.93 843.84 1323.31 770.575 1300.57 719.939C1291.45 699.617 1274.51 683.438 1257.05 670.038C1226.94 646.91 1193.72 649.821 1160.63 634.848C1116.47 614.84 1138.26 551.723 1093.34 537.275C1066.33 528.595 1010.5 545.745 989.105 523.98C972.979 507.565 982.13 445.051 981.396 427.534C979.901 392.16 973.267 382.904 943.452 366.567C923.523 355.659 902.152 348.212 880.466 341.682C837.803 328.86 792.202 320.914 752.659 299.438C730.684 287.507 720.248 280.873 714.191 254.152C706.508 220.299 716.131 181.359 690.748 154.114C667.174 128.81 629.571 117.98 600.307 100.673C561.105 77.4664 528.904 41.3582 497.227 9.1572C461.067 -27.6327 426.165 -65.6026 390.765 -103.101C358.406 -137.399 319.204 -150.432 275.019 -164.828C235.922 -177.572 185.627 -185.36 155.655 -215.253C134.337 -236.493 120.229 -267.698 108.429 -294.995C95.7897 -324.155 87.7133 -357.536 71.5079 -384.859C42.27 -434.105 -27.4814 -452.88 -74.026 -482.957" stroke="#383838" stroke-width="1.31112" stroke-miterlimit="10"/>
<path d="M1530.54 904.071C1481.19 869.038 1425 888.076 1370.96 869.982C1306.76 848.506 1316.73 778.965 1295.25 727.91C1286.55 707.22 1271.02 691.697 1253.98 677.641C1224.79 653.596 1195.55 655.195 1161.75 642.635C1137.5 633.614 1130.94 621.998 1124.12 597.873C1113.82 561.398 1113.06 544.616 1070 540.577C1045.96 538.322 1010.27 547.684 989.263 534.258C961.493 516.505 981.895 454.804 979.01 428.188C975.522 395.751 969.885 386.285 939.834 370.893C922.632 362.082 904.276 355.789 885.79 350.282C842.969 337.486 797.316 330.589 756.75 311.001C728.639 297.444 719.645 288.24 711.018 259.212C701.001 225.542 712.565 188.281 687.549 160.406C663.503 133.607 621.154 123.564 591.549 104.92C555.598 82.2637 525.993 48.8827 496.519 18.7008C462.509 -16.0962 429.862 -52.1518 396.534 -87.6044C360.058 -126.387 323.242 -142.226 272.948 -157.041C230.94 -169.418 173.906 -176.262 142.597 -209.197C122.143 -230.726 108.98 -262.035 98.412 -289.254C87.0315 -318.597 80.3186 -352.424 64.3492 -379.59C35.8193 -428.101 -37.1574 -444.254 -83.1776 -473.125" stroke="#383838" stroke-width="1.31112" stroke-miterlimit="10"/>
<path d="M1522.44 913.194C1473.85 877.951 1417.76 894.262 1364.4 875.093C1300.86 852.28 1310.38 784.81 1288.54 733.44C1279.86 713.039 1264.44 697.516 1247.79 683.408C1219.1 659.074 1191.1 661.119 1157.45 649.057C1133.09 640.325 1126.83 628.262 1120.27 604.138C1110.2 567.112 1109.26 550.487 1065.65 547.209C1041.47 545.374 1005.05 555.548 983.887 542.175C955.803 524.422 978.669 461.148 976.493 434.663C973.792 401.833 968.573 392.497 938.024 377.21C920.665 368.53 902.152 362.447 883.535 357.124C840.294 344.799 794.143 338.532 753.131 319.232C724.627 305.807 715.869 296.629 707.216 267.365C697.173 233.485 709.025 195.279 683.694 167.274C659.596 140.606 617.352 131.559 587.747 113.151C551.744 90.7574 522.086 57.1403 492.874 26.8798C458.549 -8.65149 425.824 -45.6512 392.023 -81.6545C354.788 -121.355 317.132 -136.354 265.448 -150.252C222.706 -161.764 163.155 -167.192 131.426 -200.782C110.999 -222.416 98.6481 -254.25 88.9196 -281.783C78.4307 -311.467 72.8191 -345.975 57.1119 -373.325C29.1589 -421.994 -46.2302 -435.026 -92.3029 -463.137" stroke="#383838" stroke-width="1.31112" stroke-miterlimit="10"/>
<path d="M1514.18 922.505C1466.22 887.183 1410.29 900.819 1357.53 880.68C1294.57 856.66 1303.69 791.105 1281.51 739.473C1272.86 719.308 1257.54 703.863 1241.23 689.65C1213.02 665.054 1186.14 667.493 1152.65 655.902C1128.21 647.433 1122.21 634.924 1115.86 610.826C1106.03 573.302 1104.88 556.808 1060.77 554.212C1036.44 552.77 999.411 563.678 978.066 550.331C949.615 532.553 974.788 467.836 973.162 441.404C971.117 408.285 966.318 399.002 935.297 383.793C917.807 375.219 899.137 369.345 880.414 364.232C836.675 352.327 790.498 346.4 748.83 327.651C719.96 314.671 711.411 304.995 702.758 275.705C692.688 241.616 704.829 202.518 679.158 174.408C654.85 147.845 612.369 139.768 582.581 121.675C546.473 99.7007 516.868 65.8739 487.971 35.5609C453.515 -0.599711 420.894 -38.4386 386.805 -74.94C348.94 -115.48 310.498 -129.797 257.66 -142.934C214.21 -153.764 152.404 -157.986 120.229 -192.259C99.7493 -214.076 88.0542 -246.408 79.0337 -274.282C69.3052 -304.333 64.6901 -339.523 49.1402 -367.135C21.6592 -415.935 -55.4868 -425.742 -101.559 -453.145" stroke="#383838" stroke-width="1.31112" stroke-miterlimit="10"/>
<path d="M1505.76 931.968C1458.35 896.647 1402.58 907.739 1350.4 886.761C1287.99 861.666 1296.69 797.867 1274.19 745.973C1265.54 726.018 1250.36 710.626 1234.36 696.334C1206.57 671.476 1180.74 674.281 1147.38 663.111C1122.84 654.903 1117.04 641.976 1110.93 617.877C1101.31 579.907 1099.97 563.518 1055.45 561.552C1030.98 560.477 993.432 572.041 971.877 558.746C942.98 540.915 970.278 474.887 969.098 448.481C967.629 415.126 963.145 405.817 931.757 390.713C914.188 382.243 895.387 376.553 876.559 371.65C832.506 360.164 785.987 354.815 744.005 336.328C714.846 323.479 706.507 313.751 697.854 284.329C687.759 250.031 700.24 210.068 674.097 181.957C649.421 155.42 606.312 148.419 576.13 130.614C539.891 109.217 510.391 75.2325 481.913 44.8408C447.536 8.15581 415.204 -30.3909 381.062 -67.2857C342.778 -108.612 303.549 -122.353 249.793 -134.913C205.582 -145.245 141.915 -148.496 109.189 -183.477C88.5523 -205.53 77.4078 -238.334 68.938 -266.602C59.8389 -297.072 56.0366 -332.944 40.5655 -360.871C13.4778 -409.697 -64.7958 -416.252 -110.816 -443.025" stroke="#383838" stroke-width="1.31112" stroke-miterlimit="10"/>
<path d="M1497.16 941.62C1450.2 906.429 1394.58 915.083 1342.92 893.397C1281.01 867.411 1289.33 805.159 1266.56 753.029C1257.94 733.257 1242.81 717.943 1227.1 703.574C1199.67 678.479 1174.81 681.573 1141.54 670.822C1116.89 662.85 1111.3 649.503 1105.38 625.431C1095.96 587.068 1094.44 570.757 1049.52 569.368C1024.9 568.607 986.955 580.774 965.191 567.506C935.769 549.596 964.981 482.441 964.142 455.956C963.093 422.497 958.897 413.056 927.221 398.057C909.573 389.692 890.693 384.159 871.787 379.439C827.497 368.347 780.691 363.549 738.42 345.298C709.051 332.606 700.922 322.799 692.269 293.273C682.147 258.764 694.944 218.015 668.276 189.957C642.997 163.394 598.891 157.494 568.132 140.056C531.683 119.393 502.446 85.3298 474.44 54.8333C440.351 17.7287 408.57 -21.4211 374.559 -58.6043C336.065 -100.665 296.128 -114.012 241.691 -126.101C196.641 -136.118 131.557 -138.687 98.2023 -174.428C77.3031 -196.822 66.5257 -229.993 58.5017 -258.759C49.8746 -289.675 46.7279 -326.256 31.2043 -354.549C4.37882 -403.375 -74.2357 -406.548 -120.177 -432.797" stroke="#383838" stroke-width="1.31112" stroke-miterlimit="10"/>
<path d="M1488.4 951.507C1441.07 916.133 1385.53 923.292 1333.85 900.138C1271.97 872.421 1282.22 810.667 1257.41 757.987C1248.6 739.264 1232.29 722.901 1217.08 709.161C1189.47 684.25 1162.83 690.333 1130.65 677.851C1083.79 659.705 1114 589.928 1064.05 578.757C1036.78 572.674 974.604 595.959 952.866 574.168C935.402 556.652 956.695 486.297 958.189 469.751C961.624 432.201 956.249 423.18 924.179 407.342C903.463 397.115 881.174 391.084 858.728 385.971C814.307 375.849 766.111 371.627 724.758 351.357C701.473 339.924 692.059 333.578 685.766 305.599C677.846 270.514 689.227 226.382 661.536 198.691C636.468 173.622 595.954 168.142 564.933 153.09C524.708 133.607 492.822 96.345 463.61 63.5147C427.554 23.0012 394.383 -20.0558 357.41 -59.7302C321.695 -98.0672 276.776 -107.035 226.849 -117.786C182.953 -127.253 122.405 -129.35 89.1029 -162.941C66.9451 -185.283 56.2464 -219.398 48.2223 -248.977C39.6476 -280.601 36.8418 -318.02 21.4756 -347.179C-4.95654 -397.369 -83.1253 -396.267 -129.565 -422.385" stroke="#383838" stroke-width="1.31112" stroke-miterlimit="10"/>
<path d="M1479.44 961.599C1432.37 926.619 1377.01 931.575 1325.7 908.053C1264.13 879.812 1274.04 819.238 1249.05 766.348C1240.24 747.73 1224.06 731.472 1209.03 717.653C1181.66 692.479 1155.8 698.851 1123.63 686.711C1076.37 668.853 1107.58 598.236 1057.07 587.38C1029.46 581.454 967.341 605.579 945.157 583.683C927.116 565.852 949.641 494.947 951.293 478.164C955.017 440.509 949.615 431.331 917.493 415.545C896.777 405.371 874.435 399.55 851.989 394.62C807.516 384.839 759.11 381.142 717.678 360.977C694.367 349.622 685.137 343.198 678.817 315.245C670.845 279.976 682.645 235.11 654.194 207.655C628.077 182.455 585.938 178.024 553.789 163.444C512.935 144.905 481.887 108.325 453.095 74.9961C417.957 34.2991 385.94 -9.12498 349.596 -48.7994C313.907 -87.7395 268.438 -96.6552 218.143 -107.38C173.303 -116.951 112.389 -119.023 78.3258 -153.348C55.6697 -176.187 44.971 -210.512 37.0519 -240.799C28.6083 -273.026 26.0385 -311.049 10.4624 -340.785C-15.8123 -390.922 -92.8798 -386.254 -139.136 -411.979" stroke="#383838" stroke-width="1.31112" stroke-miterlimit="10"/>
<path d="M1470.23 971.934C1423.29 937.478 1368.12 940.414 1317.17 916.683C1255.81 888.101 1265.44 828.498 1240.29 775.424C1231.48 756.858 1215.38 740.731 1200.48 726.807C1173.32 701.424 1148.07 708.006 1115.92 696.127C1068.27 678.532 1100.31 607.181 1049.39 596.587C1021.36 590.74 959.632 615.625 936.897 593.624C918.148 575.478 941.643 504.285 943.4 487.109C947.255 449.428 941.748 440.04 909.626 424.307C888.963 414.185 866.621 408.521 844.201 403.748C799.754 394.308 751.19 391.083 709.812 370.997C686.552 359.721 677.48 353.192 671.134 325.291C663.083 289.839 675.329 244.317 646.065 217.177C618.637 191.741 574.4 188.516 540.888 174.408C499.194 156.839 469.353 121.439 440.954 87.3499C407.023 46.6004 376.473 2.99271 341.073 -36.5243C305.621 -76.0938 259.758 -85.1405 209.28 -95.9965C163.417 -105.856 102.608 -108.269 67.7319 -143.354C44.4727 -166.744 33.5905 -201.227 25.5664 -232.353C17.0966 -265.262 14.5268 -303.861 -1.36391 -334.253C-27.5338 -384.232 -102.713 -375.946 -148.733 -401.355" stroke="#383838" stroke-width="1.31112" stroke-miterlimit="10"/>
<path d="M1460.82 982.526C1413.93 948.751 1358.97 949.852 1308.26 926.069C1247.03 897.355 1256.36 838.434 1231.11 785.229C1222.3 766.637 1206.28 750.694 1191.46 736.691C1164.43 711.124 1139.67 717.811 1107.5 706.195C1059.51 688.836 1092.21 616.908 1041 606.445C1012.42 600.597 951.529 626.138 928.06 603.98C908.445 585.441 932.649 514.274 934.432 496.573C938.208 458.944 932.544 449.321 900.5 433.614C879.916 423.518 857.627 418.011 835.259 413.396C790.917 404.219 742.275 401.439 701.001 381.405C677.873 370.182 668.931 363.495 662.611 335.778C654.482 300.063 667.2 254.069 636.992 227.323C607.938 201.625 561.21 199.632 526.019 185.996C483.198 169.424 455.009 135.807 426.977 100.643C394.619 59.9981 365.853 16.3904 331.738 -22.8644C296.784 -63.0894 250.685 -72.5034 200.181 -83.6479C153.19 -94.0319 93.01 -97.0998 57.2428 -133.024C33.2494 -157.096 21.9738 -191.631 13.6875 -223.675C4.9817 -257.371 2.20214 -296.494 -14.1344 -327.594C-40.278 -377.364 -112.757 -365.354 -158.436 -390.58" stroke="#383838" stroke-width="1.31112" stroke-miterlimit="10"/>
<path d="M329.168 1.57593C364.909 -48.5087 400.782 -92.1163 442.187 -136.17C515.766 -214.391 569.05 -309.998 636.022 -393.594C736.926 -519.54 861.01 -622.515 987.506 -721.636C1122.71 -827.574 1267.9 -926.642 1385.06 -1053.22" stroke="#383838" stroke-width="1.31112" stroke-miterlimit="10"/>
<path d="M358.039 40.4913C387.408 5.93031 427.581 -33.4294 442.737 -77.8763C448.27 -94.1079 450.447 -107.56 460.385 -122.349C488.967 -164.908 529.061 -199.522 563.045 -237.465C599.258 -277.926 630.358 -322.714 664.945 -364.539C879.68 -624.218 1189.13 -779.926 1416.08 -1025.73" stroke="#383838" stroke-width="1.31112" stroke-miterlimit="10"/>
<path d="M387.775 82.6566C420.186 49.6689 472.106 5.14341 474.151 -46.0426C475.095 -69.9835 468.356 -86.3987 480.314 -109.448C506.012 -158.956 559.322 -195.903 599.966 -231.644C635.497 -262.901 663.739 -299.875 694.629 -335.458C915.159 -589.631 1220.39 -751.606 1447.05 -998.201" stroke="#383838" stroke-width="1.31112" stroke-miterlimit="10"/>
<path d="M417.957 123.748C455.639 90.5764 513.905 45.2642 507.48 -12.1889C504.229 -41.217 490.042 -61.6441 502.078 -91.2754C525.285 -148.361 594.669 -189.609 642.446 -222.833C675.696 -245.961 699.375 -275.146 725.624 -305.407C945.97 -559.422 1251.7 -723.364 1478.02 -970.693" stroke="#383838" stroke-width="1.31112" stroke-miterlimit="10"/>
<path d="M448.139 159.463C491.983 126.974 558.063 82.5007 541.359 18.9377C532.89 -13.237 515.032 -36.2601 529.297 -70.2442C554.13 -129.454 630.778 -167.005 682.042 -197.842C716.184 -218.374 734.67 -241.922 758.087 -273.126C796.083 -323.709 845.879 -367.081 892.529 -409.456C957.481 -468.456 1025.06 -524.546 1092.89 -580.163C1234.55 -696.355 1384.98 -807.485 1509.02 -943.133" stroke="#383838" stroke-width="1.31112" stroke-miterlimit="10"/>
<path d="M479.212 185.476C524.079 154.744 590.683 113.234 575.448 49.4875C567.66 16.867 550.301 -6.94294 565.405 -40.8484C592.1 -100.714 669.403 -132.548 721.061 -164.801C754.704 -185.805 770.201 -211.346 791.363 -243.468C826.265 -296.437 877.372 -338.865 924.205 -380.899C989.525 -439.533 1057.07 -495.648 1124.83 -551.449C1266.35 -668.008 1415.48 -780.318 1539.96 -915.625" stroke="#383838" stroke-width="1.31112" stroke-miterlimit="10"/>
<path d="M519.726 201.494C560.685 170.499 614.755 132.162 611.478 74.3944C609.721 43.6093 596.295 19.0914 609.668 -11.5362C634.947 -69.3565 702.915 -99.9316 750.377 -135.463C783.627 -160.374 806.546 -192.968 832.086 -225.091C924.1 -340.731 1051.04 -433.375 1164.11 -527.224C1303.17 -642.655 1448.44 -754.651 1570.95 -888.148" stroke="#383838" stroke-width="1.31112" stroke-miterlimit="10"/>
<path d="M565.274 213.477C602.379 181.853 646.694 145.325 648.687 92.6448C649.71 65.5834 643.312 42.4291 655.007 16.4427C677.374 -33.2486 729.399 -63.6141 769.336 -97.2311C809.273 -130.822 842.575 -171.466 877.896 -209.646C1098.58 -448.217 1383.04 -619.894 1601.92 -860.615" stroke="#383838" stroke-width="1.31112" stroke-miterlimit="10"/>
<path d="M608.698 227.795C641.555 195.227 676.063 160.43 685.163 113.387C689.935 88.7644 689.62 65.7937 700.844 42.6131C722.215 -1.4928 762.886 -33.1955 796.896 -66.9699C838.616 -108.401 879.024 -151.144 920.98 -192.365C1148.56 -415.989 1418.68 -595.9 1632.92 -833.107" stroke="#383838" stroke-width="1.31112" stroke-miterlimit="10"/>
<path d="M642.158 253.992C671.973 219.588 700.345 184.241 715.554 140.816C723.84 117.164 728.98 93.2229 740.597 70.7766C788.138 -21.1589 881.043 -97.7543 955.305 -167.532C1187.01 -385.256 1448.7 -569.94 1663.86 -805.6" stroke="#383838" stroke-width="1.31112" stroke-miterlimit="10"/>
<path d="M653.67 348.915C685.818 310.919 712.198 271.638 725.545 223.362C733.805 193.495 738.394 163.077 752.764 135.229C775.184 91.7788 813.049 59.8401 849.786 28.8978C901.418 -14.6051 947.465 -63.8244 997.366 -109.137C1051.12 -157.963 1112.56 -197.611 1168.54 -243.841C1229.22 -293.978 1287.31 -347.209 1343.71 -402.066C1466.72 -521.666 1581.63 -649.185 1694.83 -778.016" stroke="#383838" stroke-width="1.31112" stroke-miterlimit="10"/>
<path d="M682.304 387.595C716.682 348.393 742.799 308.037 754.206 256.824C761.024 226.249 764.171 195.726 778.567 167.38C799.046 127.024 834.63 98.2318 869.296 70.5411C925.176 25.9107 973.556 -26.0358 1026.52 -73.7867C1079.42 -121.459 1141.12 -158.17 1196.42 -203.01C1260.64 -255.114 1321.26 -311.571 1379.79 -369.968C1501.31 -491.167 1612.96 -621.44 1725.82 -750.559" stroke="#383838" stroke-width="1.31112" stroke-miterlimit="10"/>
<path d="M722.503 403.381C755.438 367.456 783.077 329.984 791.363 281.08C796.293 252.052 795.401 222.788 806.729 195.071C824.849 150.755 863.684 119.472 899.399 89.7617C949.457 48.1206 994.271 0.972905 1042.94 -42.1628C1097.35 -90.3857 1159.13 -129.824 1215.27 -176.054C1277.76 -227.502 1337.63 -282.071 1395.84 -338.291C1522.42 -460.487 1641.2 -590.472 1756.82 -723.025" stroke="#383838" stroke-width="1.31112" stroke-miterlimit="10"/>
</g>
</g>
</svg>
