<svg width="61" height="78" viewBox="0 0 61 78" fill="none" xmlns="http://www.w3.org/2000/svg">
<g clip-path="url(#clip0_491_704)">
<g style="mix-blend-mode:multiply">
<path d="M21.3579 49.7247L20.9649 49.6194L21.0148 49.2164C21.186 47.8729 21.3169 46.6977 21.4354 45.6595C21.9736 40.9044 22.1949 38.9401 24.1846 37.1156C26.2319 35.2387 28.6096 34.3508 30.9074 33.49C33.3343 32.5814 35.8455 31.647 37.9638 29.5229C39.9956 27.4869 40.6362 24.8071 39.6388 22.5308C38.4459 19.8099 35.2581 18.2828 31.1107 18.4399C28.6351 18.5367 26.9412 18.8961 25.7095 19.1567C22.0713 19.9247 21.9378 19.5016 19.66 12.4283C19.425 11.6972 19.1663 10.892 18.8773 10.0013L18.75 9.60893L19.1262 9.43377C28.9401 4.8597 39.3198 5.41884 46.8884 10.9228C52.4276 14.9487 55.3002 20.85 54.5778 26.708C53.7568 33.3673 48.4112 39.0079 39.5293 42.5972C33.7526 44.932 33.3041 47.4551 33.0015 49.1265C32.855 49.9442 32.7161 50.7155 32.0098 51.1652C30.8254 51.9178 28.2314 51.5713 21.3522 49.728L21.3579 49.7247ZM35.1417 17.9224C37.6802 18.6026 39.586 20.0718 40.4993 22.1562C41.6516 24.7936 40.9385 27.8703 38.6287 30.1852C36.3707 32.451 33.7613 33.4268 31.2386 34.3678C28.9203 35.2329 26.7309 36.0502 24.8185 37.8034C23.0857 39.3918 22.8921 41.1263 22.366 45.7636C22.2607 46.6988 22.1398 47.746 21.9929 48.9266C27.9724 50.5143 30.6516 50.9223 31.515 50.3742C31.8589 50.1566 31.9465 49.7395 32.0878 48.9592C32.4244 47.0887 32.9269 44.2557 39.1809 41.7293C47.7373 38.2706 52.8754 32.8988 53.6553 26.5915C54.3333 21.0799 51.6016 15.5019 46.3426 11.677C39.146 6.44701 29.2895 5.86831 19.8896 10.1079C20.1279 10.8447 20.3445 11.5176 20.545 12.1426C21.6305 15.5173 22.2265 17.3762 22.854 18.1059C23.3413 18.6722 23.8769 18.5882 25.5094 18.2413C26.7775 17.9711 28.5124 17.6033 31.0708 17.5046C32.5475 17.45 33.9131 17.5932 35.1371 17.9212L35.1417 17.9224Z" fill="#00B8AD"/>
</g>
<g style="mix-blend-mode:multiply">
<path d="M20.6565 69.5038C17.1288 68.5586 13.9325 65.3106 15.2445 60.4143C16.5564 55.518 20.9437 54.3213 24.4714 55.2666C27.9991 56.2118 31.1836 59.6842 29.9334 64.3502C29.3452 66.5454 28.0462 68.1774 26.1832 69.0773C24.5388 69.8663 22.5762 70.0182 20.661 69.505L20.6565 69.5038ZM24.2293 56.17C21.1352 55.3409 17.2904 56.3924 16.1478 60.6563C15.0053 64.9203 17.809 67.7726 20.8986 68.6005C23.9881 69.4283 27.8839 68.3856 29.03 64.1081C30.1762 59.8306 27.3414 57.0039 24.2293 56.17Z" fill="#00B8AD"/>
</g>
<g style="mix-blend-mode:multiply">
<path d="M20.835 51.6765L18.7392 51.1149L19.0114 48.9609C19.1746 47.683 19.3013 46.5599 19.4133 45.5636L19.4304 45.4277C19.9927 40.4564 20.2752 37.9566 22.8224 35.6231C23.0136 35.4516 23.2036 35.2846 23.3969 35.1234L23.9927 35.8447C23.8121 35.9948 23.6303 36.1494 23.4563 36.3109C21.1705 38.4095 20.9002 40.7916 20.361 45.5319L20.344 45.6677C20.2307 46.6685 20.1029 47.7961 19.9396 49.074L19.7684 50.4176L21.0783 50.7686C28.486 52.7535 31.0695 53.0487 32.5991 52.074C33.1884 51.6994 33.5749 51.1784 33.8165 50.4395L34.7066 50.7313C34.3958 51.6743 33.8735 52.3768 33.0997 52.8617C31.2617 54.0298 28.7375 53.7842 20.8374 51.6674L20.835 51.6765Z" fill="#00B8AD"/>
<path d="M38.674 26.5462L37.8018 26.206C37.861 26.0572 37.91 25.9106 37.9499 25.7615C38.1254 25.1066 38.1295 24.459 37.9619 23.8379C37.5381 22.2575 35.9825 21.0709 33.7983 20.6406L33.9771 19.7203C36.5345 20.2216 38.3434 21.6551 38.8655 23.5911C39.0769 24.3739 39.0724 25.186 38.8533 26.0036C38.8049 26.1843 38.7462 26.367 38.674 26.5462Z" fill="#00B8AD"/>
<path d="M22.6387 21.3292C20.186 20.6721 19.5177 18.5952 17.7347 13.0536L17.7185 13.0057C17.4889 12.2906 17.2323 11.4957 16.952 10.6266L16.2693 8.5314L18.2666 7.5997C23.0123 5.39049 27.8232 4.29287 32.5707 4.3353L32.5618 5.27209C27.9595 5.22983 23.2817 6.3002 18.6629 8.45143L17.4133 9.0316L17.8371 10.3409C18.1219 11.2112 18.374 12.0049 18.6081 12.7212L18.1795 12.9114L18.6243 12.7691C20.3415 18.1043 20.9192 19.9051 22.8795 20.4304C23.5751 20.6168 24.2704 20.5513 25.1068 20.393L25.2819 21.3113C24.3238 21.4903 23.5047 21.5661 22.642 21.335L22.6387 21.3292Z" fill="#00B8AD"/>
<path d="M47.6081 40.5589L47.0719 39.7956C51.3294 36.8068 54.1599 33.0726 55.2516 28.9984C55.5384 27.9279 55.7078 26.8259 55.7595 25.7117L56.6923 25.7535C56.6385 26.93 56.4542 28.1055 56.1505 29.2392C55.0019 33.5258 52.0458 37.4393 47.6081 40.5589Z" fill="#00B8AD"/>
</g>
<g style="mix-blend-mode:multiply">
<path d="M20.1787 71.4701L20.1381 71.4592C15.5309 70.2247 11.7 65.8578 13.2976 59.8955C13.5917 58.7979 14.0327 57.8026 14.6055 56.9297L15.3874 57.4442C14.866 58.234 14.4685 59.1393 14.201 60.1375C12.7632 65.5036 16.2201 69.4411 20.3802 70.5558L20.1787 71.4701ZM29.7779 68.8718L29.084 68.2453C29.966 67.2665 30.6024 66.0476 30.9825 64.6293C31.4799 62.7728 31.422 61.0194 30.8059 59.4164L31.6792 59.084C32.3647 60.8798 32.4341 62.8252 31.8846 64.8759C31.4659 66.4387 30.757 67.7834 29.7779 68.8718Z" fill="#00B8AD"/>
</g>
</g>
<defs>
<clipPath id="clip0_491_704">
<rect width="43.8818" height="68.0532" fill="white" transform="translate(18.4102 0.544922) rotate(15)"/>
</clipPath>
</defs>
</svg>
