<svg width="509" height="51" viewBox="0 0 509 51" fill="none" xmlns="http://www.w3.org/2000/svg">
<path d="M20.5035 50.8202C16.3175 50.8202 12.6605 50.2222 9.5325 49.0262C6.4505 47.7842 3.5985 45.8292 0.9765 43.1612L9.6015 34.5362C11.3955 36.2382 13.2815 37.5492 15.2595 38.4692C17.2375 39.3432 19.3535 39.7802 21.6075 39.7802C23.4935 39.7802 24.9195 39.5042 25.8855 38.9522C26.8515 38.3542 27.3345 37.5492 27.3345 36.5372C27.3345 35.5252 26.9205 34.6972 26.0925 34.0532C25.2645 33.3632 24.1605 32.7652 22.7805 32.2592C21.4465 31.7072 19.9515 31.1552 18.2955 30.6032C16.6855 30.0512 15.0755 29.3842 13.4655 28.6022C11.8555 27.8202 10.3605 26.8772 8.9805 25.7732C7.6465 24.6232 6.5655 23.2202 5.7375 21.5642C4.9095 19.8622 4.4955 17.7922 4.4955 15.3542C4.4955 12.1802 5.2545 9.44318 6.7725 7.14318C8.2905 4.84319 10.4295 3.09519 13.1895 1.89919C15.9495 0.657185 19.1925 0.036185 22.9185 0.036185C26.5985 0.036185 30.0025 0.634185 33.1305 1.83019C36.3045 2.98019 38.9265 4.63618 40.9965 6.79818L32.3025 15.4232C30.7845 13.9512 29.2665 12.8702 27.7485 12.1802C26.2305 11.4442 24.5745 11.0762 22.7805 11.0762C21.3545 11.0762 20.2045 11.3062 19.3305 11.7662C18.5025 12.2262 18.0885 12.9162 18.0885 13.8362C18.0885 14.8022 18.5025 15.6072 19.3305 16.2512C20.1585 16.8492 21.2395 17.4012 22.5735 17.9072C23.9535 18.4132 25.4485 18.9422 27.0585 19.4942C28.7145 20.0462 30.3475 20.7132 31.9575 21.4952C33.5675 22.2312 35.0395 23.1972 36.3735 24.3932C37.7535 25.5432 38.8575 26.9922 39.6855 28.7402C40.5135 30.4882 40.9275 32.6042 40.9275 35.0882C40.9275 40.1022 39.1335 43.9892 35.5455 46.7492C32.0035 49.4632 26.9895 50.8202 20.5035 50.8202ZM41.7431 49.9922L60.4421 0.864187H74.5181L93.0101 49.9922H78.6581L64.9271 8.24719H69.8951L55.8191 49.9922H41.7431ZM53.8871 41.7122V30.9482H81.3491V41.7122H53.8871ZM96.948 49.9922V0.864187H110.748V49.9922H96.948ZM108.195 49.9922V38.2622H131.172V49.9922H108.195ZM136.434 49.9922V0.864187H150.234V49.9922H136.434ZM147.612 49.9922V38.5382H173.97V49.9922H147.612ZM147.612 30.5342V19.3562H171.417V30.5342H147.612ZM147.612 12.3182V0.864187H173.556V12.3182H147.612ZM195.16 50.8202C190.974 50.8202 187.317 50.2222 184.189 49.0262C181.107 47.7842 178.255 45.8292 175.633 43.1612L184.258 34.5362C186.052 36.2382 187.938 37.5492 189.916 38.4692C191.894 39.3432 194.01 39.7802 196.264 39.7802C198.15 39.7802 199.576 39.5042 200.542 38.9522C201.508 38.3542 201.991 37.5492 201.991 36.5372C201.991 35.5252 201.577 34.6972 200.749 34.0532C199.921 33.3632 198.817 32.7652 197.437 32.2592C196.103 31.7072 194.608 31.1552 192.952 30.6032C191.342 30.0512 189.732 29.3842 188.122 28.6022C186.512 27.8202 185.017 26.8772 183.637 25.7732C182.303 24.6232 181.222 23.2202 180.394 21.5642C179.566 19.8622 179.152 17.7922 179.152 15.3542C179.152 12.1802 179.911 9.44318 181.429 7.14318C182.947 4.84319 185.086 3.09519 187.846 1.89919C190.606 0.657185 193.849 0.036185 197.575 0.036185C201.255 0.036185 204.659 0.634185 207.787 1.83019C210.961 2.98019 213.583 4.63618 215.653 6.79818L206.959 15.4232C205.441 13.9512 203.923 12.8702 202.405 12.1802C200.887 11.4442 199.231 11.0762 197.437 11.0762C196.011 11.0762 194.861 11.3062 193.987 11.7662C193.159 12.2262 192.745 12.9162 192.745 13.8362C192.745 14.8022 193.159 15.6072 193.987 16.2512C194.815 16.8492 195.896 17.4012 197.23 17.9072C198.61 18.4132 200.105 18.9422 201.715 19.4942C203.371 20.0462 205.004 20.7132 206.614 21.4952C208.224 22.2312 209.696 23.1972 211.03 24.3932C212.41 25.5432 213.514 26.9922 214.342 28.7402C215.17 30.4882 215.584 32.6042 215.584 35.0882C215.584 40.1022 213.79 43.9892 210.202 46.7492C206.66 49.4632 201.646 50.8202 195.16 50.8202ZM233.735 49.9922V0.864187H247.535V49.9922H233.735ZM244.913 32.5352V21.0812H269.063V32.5352H244.913ZM244.913 12.3182V0.864187H270.098V12.3182H244.913ZM296.75 50.8202C292.426 50.8202 288.654 49.9462 285.434 48.1982C282.214 46.4042 279.707 43.9432 277.913 40.8152C276.119 37.6872 275.222 34.0992 275.222 30.0512V0.864187H289.022V31.2932C289.022 32.8572 289.367 34.1912 290.057 35.2952C290.747 36.3992 291.667 37.2502 292.817 37.8482C294.013 38.4002 295.324 38.6762 296.75 38.6762C298.222 38.6762 299.51 38.4002 300.614 37.8482C301.764 37.2502 302.661 36.4222 303.305 35.3642C303.949 34.2602 304.271 32.9262 304.271 31.3622V0.864187H318.14V30.1202C318.14 34.1682 317.243 37.7562 315.449 40.8842C313.701 43.9662 311.217 46.4042 307.997 48.1982C304.823 49.9462 301.074 50.8202 296.75 50.8202ZM325.376 49.9922V0.864187H335.036L339.176 11.2142V49.9922H325.376ZM359.186 49.9922L330.689 14.1812L335.036 0.864187L363.533 36.6752L359.186 49.9922ZM359.186 49.9922L355.736 39.0902V0.864187H369.536V49.9922H359.186ZM377.665 49.9922V0.864187H387.325L391.465 11.2142V49.9922H377.665ZM411.475 49.9922L382.978 14.1812L387.325 0.864187L415.822 36.6752L411.475 49.9922ZM411.475 49.9922L408.025 39.0902V0.864187H421.825V49.9922H411.475ZM429.954 49.9922V0.864187H443.754V49.9922H429.954ZM441.132 49.9922V38.5382H467.49V49.9922H441.132ZM441.132 30.5342V19.3562H464.937V30.5342H441.132ZM441.132 12.3182V0.864187H467.076V12.3182H441.132ZM474.022 49.9922V0.864187H487.822V49.9922H474.022ZM485.269 49.9922V38.2622H508.246V49.9922H485.269Z" fill="url(#paint0_linear_1582_3685)"/>
<defs>
<linearGradient id="paint0_linear_1582_3685" x1="509.5" y1="23.8334" x2="0.5" y2="23.8335" gradientUnits="userSpaceOnUse">
<stop offset="0.176041" stop-color="#00CCFF"/>
<stop offset="1" stop-color="#B300FF"/>
</linearGradient>
</defs>
</svg>
