<svg width="43" height="43" viewBox="0 0 43 43" fill="none" xmlns="http://www.w3.org/2000/svg">
<path d="M40.9394 25.2064C41.1789 23.9752 41.3059 22.7037 41.3059 21.4023C41.3059 10.464 32.4385 1.5966 21.5001 1.5966C20.1988 1.5966 18.9273 1.72356 17.6961 1.96311C16.0033 0.972541 14.0348 0.402344 11.932 0.402344C5.61824 0.402344 0.5 5.52059 0.5 11.8343C0.5 13.9371 1.07033 15.9057 2.06077 17.5983C1.82121 18.8295 1.69426 20.101 1.69426 21.4023C1.69426 32.3407 10.5616 41.2081 21.5 41.2081C22.8013 41.2081 24.0729 41.0811 25.3041 40.8416C26.9968 41.8321 28.9654 42.4023 31.068 42.4023C37.3818 42.4023 42.5 37.2841 42.5 30.9704C42.5003 28.8676 41.9299 26.8991 40.9394 25.2064ZM21.8764 35.0041C14.8386 35.0041 11.3197 32.3649 10.2369 29.0491C9.1542 25.7332 11.5227 24.7858 12.2671 24.7181C13.0115 24.6504 14.5905 24.8308 15.0416 26.2069C15.5106 27.637 17.0717 30.4702 20.4553 30.8085C23.8389 31.1469 26.072 29.5904 26.7487 27.9663C27.4254 26.3422 26.2073 24.1091 20.9967 23.3647C15.786 22.6203 10.3723 20.3195 10.3723 15.1088C10.3723 9.8981 16.3273 7.8003 22.0117 7.8003C27.6961 7.8003 30.578 11.0108 31.215 12.2666C32.0045 13.823 31.7338 16.4163 29.8616 16.8682C27.8991 17.3419 26.8841 16.2592 25.463 13.62C23.9934 10.8908 18.7635 11.5899 17.0041 13.1463C15.2446 14.7028 15.7183 16.9359 23.0268 18.357C30.3353 19.7781 33.0421 22.4173 33.0421 26.5452C33.0421 30.6732 28.9142 35.0041 21.8764 35.0041Z" fill="white"/>
</svg>
