<svg width="125" height="23" viewBox="0 0 125 23" fill="none" xmlns="http://www.w3.org/2000/svg">
<path d="M11.2371 2.37888C11.4616 1.6879 12.4392 1.6879 12.6637 2.37888L14.2825 7.36111C14.3829 7.67012 14.6709 7.87934 14.9958 7.87934H20.2344C20.961 7.87934 21.263 8.80905 20.6752 9.23611L16.4371 12.3153C16.1743 12.5063 16.0643 12.8448 16.1647 13.1538L17.7835 18.136C18.008 18.827 17.2171 19.4016 16.6294 18.9746L12.3912 15.8954C12.1284 15.7044 11.7724 15.7044 11.5095 15.8954L7.27141 18.9746C6.68363 19.4016 5.89276 18.827 6.11728 18.136L7.7361 13.1538C7.83651 12.8448 7.72651 12.5063 7.46365 12.3153L3.22551 9.2361C2.63773 8.80905 2.93981 7.87934 3.66635 7.87934H8.90497C9.22989 7.87934 9.51786 7.67012 9.61827 7.36111L11.2371 2.37888Z" fill="#FBB837"/>
<path d="M36.512 2.37888C36.7365 1.6879 37.7141 1.6879 37.9386 2.37888L39.5574 7.36111C39.6578 7.67012 39.9458 7.87934 40.2707 7.87934H45.5093C46.2359 7.87934 46.5379 8.80905 45.9501 9.23611L41.712 12.3153C41.4492 12.5063 41.3392 12.8448 41.4396 13.1538L43.0584 18.136C43.2829 18.827 42.492 19.4016 41.9043 18.9746L37.6661 15.8954C37.4033 15.7044 37.0473 15.7044 36.7844 15.8954L32.5463 18.9746C31.9585 19.4016 31.1677 18.827 31.3922 18.136L33.011 13.1538C33.1114 12.8448 33.0014 12.5063 32.7385 12.3153L28.5004 9.2361C27.9126 8.80905 28.2147 7.87934 28.9413 7.87934H34.1799C34.5048 7.87934 34.7928 7.67012 34.8932 7.36111L36.512 2.37888Z" fill="#FBB837"/>
<path d="M61.7866 2.37888C62.0112 1.6879 62.9887 1.6879 63.2132 2.37888L64.8321 7.36111C64.9325 7.67012 65.2204 7.87934 65.5453 7.87934H70.784C71.5105 7.87934 71.8126 8.80905 71.2248 9.23611L66.9867 12.3153C66.7238 12.5063 66.6138 12.8448 66.7142 13.1538L68.333 18.136C68.5576 18.827 67.7667 19.4016 67.1789 18.9746L62.9408 15.8954C62.6779 15.7044 62.322 15.7044 62.0591 15.8954L57.821 18.9746C57.2332 19.4016 56.4423 18.827 56.6668 18.136L58.2857 13.1538C58.3861 12.8448 58.2761 12.5063 58.0132 12.3153L53.7751 9.2361C53.1873 8.80905 53.4894 7.87934 54.2159 7.87934H59.4545C59.7795 7.87934 60.0674 7.67012 60.1678 7.36111L61.7866 2.37888Z" fill="#FBB837"/>
<path d="M87.0613 2.37888C87.2858 1.6879 88.2634 1.6879 88.4879 2.37888L90.1067 7.36111C90.2071 7.67012 90.4951 7.87934 90.82 7.87934H96.0586C96.7852 7.87934 97.0873 8.80905 96.4995 9.23611L92.2613 12.3153C91.9985 12.5063 91.8885 12.8448 91.9889 13.1538L93.6077 18.136C93.8322 18.827 93.0414 19.4016 92.4536 18.9746L88.2154 15.8954C87.9526 15.7044 87.5966 15.7044 87.3338 15.8954L83.0956 18.9746C82.5078 19.4016 81.717 18.827 81.9415 18.136L83.5603 13.1538C83.6607 12.8448 83.5507 12.5063 83.2879 12.3153L79.0497 9.2361C78.4619 8.80905 78.764 7.87934 79.4906 7.87934H84.7292C85.0541 7.87934 85.3421 7.67012 85.4425 7.36111L87.0613 2.37888Z" fill="#FBB837"/>
<path d="M112.336 2.37888C112.561 1.6879 113.538 1.6879 113.763 2.37888L115.382 7.36111C115.482 7.67012 115.77 7.87934 116.095 7.87934H121.334C122.06 7.87934 122.362 8.80905 121.774 9.23611L117.536 12.3153C117.273 12.5063 117.163 12.8448 117.264 13.1538L118.883 18.136C119.107 18.827 118.316 19.4016 117.728 18.9746L113.49 15.8954C113.227 15.7044 112.872 15.7044 112.609 15.8954L108.371 18.9746C107.783 19.4016 106.992 18.827 107.216 18.136L108.835 13.1538C108.936 12.8448 108.826 12.5063 108.563 12.3153L104.325 9.2361C103.737 8.80905 104.039 7.87934 104.765 7.87934H110.004C110.329 7.87934 110.617 7.67012 110.717 7.36111L112.336 2.37888Z" fill="#FBB837"/>
</svg>
