<svg width="45" height="40" viewBox="0 0 45 40" fill="none" xmlns="http://www.w3.org/2000/svg">
<circle cx="17.6667" cy="20.2054" r="17.3333" fill="#24B26B" fill-opacity="0.15"/>
<path d="M42.5865 0.658611C40.7815 -0.284472 38.7683 1.53433 37.5881 2.61214C34.8807 5.17194 32.5897 8.13591 30.021 10.8304C27.1746 13.7944 24.5365 16.7584 21.6208 19.6551C19.9546 21.2718 18.1496 23.0233 17.0388 25.0441C14.5396 22.6863 12.3875 20.1265 9.61055 18.0384C7.59728 16.5564 4.26497 15.4786 4.33439 19.0488C4.47324 23.697 8.70805 28.6819 11.8321 31.8478C13.1511 33.1951 14.8867 34.6097 16.9 34.6771C19.3298 34.8118 21.829 31.9825 23.2869 30.4332C25.8557 27.7387 27.9384 24.7072 30.2986 21.9454C33.3533 18.3078 36.4773 14.7375 39.4625 11.0325C41.3369 8.74218 47.2379 3.08357 42.5865 0.658611Z" fill="#24B36B"/>
</svg>
