<svg width="279" height="193" viewBox="0 0 279 193" fill="none" xmlns="http://www.w3.org/2000/svg">
<path d="M84.1983 1.62232C95.1898 34.684 128.609 52.9986 160.666 60.7455C197.877 69.7205 236.844 68.017 274.792 66.6073C277.783 66.4891 279.507 70.6032 277.275 72.6298C264.104 84.7518 246.973 89.3626 230.306 94.6981C209.789 101.272 189.252 107.852 168.729 114.407C169.286 112.312 169.837 110.197 170.413 108.096C200.413 131.654 229.451 156.34 257.509 182.157C259.569 184.049 258.651 186.883 256.74 188.327C246.796 195.878 230.218 189.802 219.049 187.991C204.347 185.594 189.682 183.022 175.142 179.837C145.449 173.34 116.048 164.302 89.2519 149.762C41.931 124.074 2.65131 77.4727 0.904712 21.8081C0.75836 16.8573 8.4535 16.9073 8.59985 21.8582C10.2903 74.7633 48.3224 118.718 93.141 143.026C116.857 155.886 142.681 164.247 168.866 170.4C181.68 173.405 194.608 175.905 207.575 178.166C214.348 179.332 221.124 180.436 227.915 181.515C235.44 182.708 246.149 186.589 252.774 181.563C252.518 183.619 252.261 185.676 252.005 187.732C223.98 161.885 195.003 137.121 165.118 113.449C162.729 111.563 164.336 107.902 166.802 107.138C184.865 101.449 202.923 95.7409 220.981 90.0327C238.523 84.4836 258.315 80.3811 272.272 67.6345L274.755 73.657C233.502 75.0205 190.15 77.0499 150.236 64.5547C119.247 54.8444 89.5787 35.38 80.368 2.62792C79.6617 0.146182 83.4005 -0.814219 84.2124 1.59782L84.1983 1.62232Z" fill="#5E17EB" fill-opacity="0.2"/>
</svg>
