<svg width="426" height="591" viewBox="0 0 426 591" fill="none" xmlns="http://www.w3.org/2000/svg">
<path d="M240.734 12.528C217.957 22.973 200.054 39.8442 184.395 65.5863C182.798 68.2297 181.209 70.9008 179.61 73.5895C173.492 83.9425 167.143 94.6546 159.106 103.782C149.126 115.095 136.577 122.369 121.799 125.377C114.668 126.841 107.263 127.562 100.104 128.261C93.6868 128.895 87.0603 129.525 80.5826 130.711C66.9564 133.187 54.3226 138.535 43.0171 146.62C15.9374 165.98 2.63177 194.348 -3.76012 214.722C-13.518 245.842 -14.5475 278.459 -14.7823 311.934C-14.7961 315.046 -14.8127 318.202 -14.8117 321.369C-14.7289 327.117 -14.5575 332.751 -14.4084 338.302C-13.265 379.14 -12.2707 414.427 -41.1176 447.613C-42.3124 448.87 -44.2432 451.321 -47.0013 455.123C-59.9554 474.148 -62.6396 498.703 -53.9885 519.225C-43.3879 544.413 -16.859 561.067 10.5485 559.745C20.5429 559.253 30.2794 556.689 39.6931 554.196C43.4289 553.21 47.3033 552.187 51.1141 551.314C67.0482 547.684 81.4813 548.441 95.2296 553.635C105.854 557.658 115.989 563.462 125.78 569.092C141.386 578.055 157.519 587.323 176.188 589.681C198.254 592.452 222.072 585.892 247.021 570.181C271.357 554.842 294.54 534.147 312.265 511.896C316.97 505.981 320.987 500.162 324.318 494.392C328.787 486.652 332.041 478.984 334.2 471.224C337.536 459.148 338.233 445.712 336.327 430.164C335.165 420.721 333.217 411.176 331.313 401.961C327.698 384.417 323.982 366.276 325.683 348.095C329.271 309.989 352.238 279.717 374.443 250.436C392.45 226.682 411.077 202.138 419.671 173.278C434.268 124.311 419.13 67.982 382.02 33.0935C345.469 -1.26083 288.68 -9.53818 240.709 12.4901L240.734 12.528ZM10.9492 191.926C25.2405 164.573 47.716 144.9 72.5187 137.853C81.8046 135.216 91.7003 134.245 101.286 133.282C117.637 131.652 134.538 129.963 149.008 120.094C165.197 109.035 175.217 92.0452 184.902 75.6362C189.217 68.3238 193.675 60.7652 198.581 53.934C227.378 13.8466 284.397 -3.98923 334.155 11.5103C381.69 26.3122 415.823 72.7341 419.091 126.995C420.721 154.112 413.607 181.222 397.74 207.525C389.379 221.438 379.442 234.629 369.821 247.392C359.873 260.6 349.581 274.243 340.983 288.77C340.617 289.403 340.252 290.036 339.896 290.652C323.972 318.234 317.521 344.438 320.193 370.726C321.267 381.338 323.449 391.979 325.58 402.263C328.619 416.988 331.753 432.237 331.609 447.517C331.28 483.471 306.935 511.258 288.622 529.042C272.675 544.556 251.005 563.849 224.932 575.534C212.307 581.192 199.941 584.208 188.194 584.486C175.326 584.797 162.08 581.536 147.74 574.523C141.269 571.35 134.733 567.6 128.418 563.953C110.493 553.604 91.9591 542.927 70.4982 542.968C59.2764 542.986 48.3624 545.762 37.809 548.441C21.6183 552.556 6.33303 556.444 -10.1038 551.316C-37.5028 542.792 -55.5696 516.154 -53.0581 487.957C-52.2465 478.833 -49.4029 469.967 -44.9037 462.174C-42.8826 458.673 -40.5199 455.394 -37.8636 452.377C-3.17901 418.058 -6.41126 370.478 -9.5371 324.462L-10.0166 317.289C-9.93636 305.491 -9.81588 294.842 -9.34955 284.04C-8.21893 257.016 -4.8689 222.127 10.9391 191.943L10.9492 191.926Z" fill="#5E17EB" fill-opacity="0.07"/>
</svg>
