<svg width="276" height="591" viewBox="0 0 276 591" fill="none" xmlns="http://www.w3.org/2000/svg">
<path d="M90.7342 12.528C67.9571 22.973 50.0543 39.8442 34.3946 65.5863C32.7981 68.2297 31.2091 70.9008 29.6098 73.5895C23.4918 83.9425 17.143 94.6546 9.10556 103.782C-0.874013 115.095 -13.4231 122.369 -28.2005 125.377C-35.3321 126.841 -42.7375 127.562 -49.8958 128.261C-56.3132 128.895 -62.9397 129.525 -69.4174 130.711C-83.0436 133.187 -95.6774 138.535 -106.983 146.62C-134.063 165.98 -147.368 194.348 -153.76 214.722C-163.518 245.842 -164.548 278.459 -164.782 311.934C-164.796 315.046 -164.813 318.202 -164.812 321.369C-164.729 327.117 -164.558 332.751 -164.408 338.302C-163.265 379.14 -162.271 414.427 -191.118 447.613C-192.312 448.87 -194.243 451.321 -197.001 455.123C-209.955 474.148 -212.64 498.703 -203.988 519.225C-193.388 544.413 -166.859 561.067 -139.451 559.745C-129.457 559.253 -119.721 556.689 -110.307 554.196C-106.571 553.21 -102.697 552.187 -98.8859 551.314C-82.9518 547.684 -68.5187 548.441 -54.7704 553.635C-44.1461 557.658 -34.011 563.462 -24.2202 569.092C-8.61427 578.055 7.5194 587.323 26.1882 589.681C48.2539 592.452 72.0718 585.892 97.0215 570.181C121.357 554.842 144.54 534.147 162.265 511.896C166.97 505.981 170.987 500.162 174.318 494.392C178.787 486.652 182.041 478.984 184.2 471.224C187.536 459.148 188.233 445.712 186.327 430.164C185.165 420.721 183.217 411.176 181.313 401.961C177.698 384.417 173.982 366.276 175.683 348.095C179.271 309.989 202.238 279.717 224.443 250.436C242.45 226.682 261.077 202.138 269.671 173.278C284.268 124.311 269.13 67.982 232.02 33.0935C195.469 -1.26083 138.68 -9.53818 90.7092 12.4901L90.7342 12.528ZM-139.051 191.926C-124.76 164.573 -102.284 144.9 -77.4813 137.853C-68.1954 135.216 -58.2997 134.245 -48.7139 133.282C-32.3629 131.652 -15.4624 129.963 -0.99202 120.094C15.1969 109.035 25.2168 92.0452 34.9016 75.6362C39.2173 68.3238 43.6751 60.7652 48.5807 53.934C77.3777 13.8466 134.397 -3.98923 184.155 11.5103C231.69 26.3122 265.823 72.7341 269.091 126.995C270.721 154.112 263.607 181.222 247.74 207.525C239.379 221.438 229.442 234.629 219.821 247.392C209.873 260.6 199.581 274.243 190.983 288.77C190.617 289.403 190.252 290.036 189.896 290.652C173.972 318.234 167.521 344.438 170.193 370.726C171.267 381.338 173.449 391.979 175.58 402.263C178.619 416.988 181.753 432.237 181.609 447.517C181.28 483.471 156.935 511.258 138.622 529.042C122.675 544.556 101.005 563.849 74.9322 575.534C62.3072 581.192 49.9408 584.208 38.1939 584.486C25.3256 584.797 12.0802 581.536 -2.25956 574.523C-8.73054 571.35 -15.2669 567.6 -21.5821 563.953C-39.5074 553.604 -58.0409 542.927 -79.5018 542.968C-90.7236 542.986 -101.638 545.762 -112.191 548.441C-128.382 552.556 -143.667 556.444 -160.104 551.316C-187.503 542.792 -205.57 516.154 -203.058 487.957C-202.247 478.833 -199.403 469.967 -194.904 462.174C-192.883 458.673 -190.52 455.394 -187.864 452.377C-153.179 418.058 -156.411 370.478 -159.537 324.462L-160.017 317.289C-159.936 305.491 -159.816 294.842 -159.35 284.04C-158.219 257.016 -154.869 222.127 -139.061 191.943L-139.051 191.926Z" fill="#5E17EB" fill-opacity="0.07"/>
</svg>
