<svg width="26" height="26" viewBox="0 0 26 26" fill="none" xmlns="http://www.w3.org/2000/svg">
<path fill-rule="evenodd" clip-rule="evenodd" d="M13 26C20.1797 26 26 20.1797 26 13C26 5.82031 20.1797 0 13 0C5.82024 0 -6.10352e-05 5.82031 -6.10352e-05 13C-6.10352e-05 20.1797 5.82024 26 13 26ZM17.0555 6.05596C17.2529 5.35474 16.5725 4.9401 15.951 5.38286L7.27548 11.5632C6.6015 12.0434 6.70751 13 7.43473 13H9.71923V12.9823H14.1716L10.5438 14.2624L8.94443 19.9441C8.74702 20.6453 9.42744 21.06 10.049 20.6172L18.7245 14.4368C19.3985 13.9567 19.2924 13 18.5652 13H15.1009L17.0555 6.05596Z" fill="#333333"/>
</svg>
