<svg width="354" height="627" viewBox="0 0 354 627" fill="none" xmlns="http://www.w3.org/2000/svg">
<path d="M487.006 509.194C489.349 484.246 483.689 460.306 469.226 433.873C467.735 431.169 466.216 428.457 464.687 425.728C458.78 415.253 452.678 404.399 448.792 392.875C443.984 378.575 443.96 364.071 448.743 349.769C451.041 342.861 454.119 336.087 457.094 329.539C459.753 323.664 462.52 317.61 464.732 311.407C469.401 298.368 471.086 284.753 469.737 270.92C466.511 237.788 448.596 212.081 434.148 196.359C412.076 172.348 384.344 155.148 355.471 138.207C352.783 136.64 350.057 135.047 347.314 133.464C342.296 130.662 337.33 127.994 332.449 125.347C296.51 105.918 265.454 89.1359 251.137 47.5606C250.646 45.8974 249.489 43.0001 247.575 38.7104C237.576 17.9795 217.653 3.37722 195.555 0.608467C168.441 -2.8056 140.754 11.8424 128.195 36.2388C123.624 45.1402 120.976 54.8545 118.428 64.2533C117.414 67.9816 116.363 71.8486 115.213 75.5851C110.39 91.1995 102.518 103.32 91.146 112.63C82.3498 119.819 72.2553 125.694 62.4849 131.359C46.9196 140.392 30.8265 149.731 19.4499 164.719C6.0169 182.443 -0.210544 206.35 0.920857 235.813C2.03646 264.557 8.36728 294.982 18.7747 321.458C21.5446 328.49 24.5763 334.878 27.9075 340.648C32.3762 348.388 37.3893 355.04 43.0308 360.789C51.8206 369.717 63.1077 377.039 77.5261 383.162C86.2852 386.877 95.5252 389.963 104.457 392.921C121.458 398.562 139.028 404.415 153.922 414.978C185.128 437.139 199.862 472.164 214.117 506.035C225.685 533.507 237.628 561.911 258.324 583.783C293.432 620.907 349.784 635.962 398.553 621.268C446.58 606.792 482.143 561.749 487.051 509.191L487.006 509.194ZM446.535 220.496C463.078 246.549 468.877 275.849 462.579 300.853C460.22 310.213 456.113 319.269 452.154 328.051C445.39 343.027 438.402 358.507 439.714 375.974C441.197 395.524 450.901 412.696 460.269 429.288C464.444 436.681 468.761 444.321 472.224 451.985C492.542 496.968 479.479 555.266 441.177 590.608C404.591 624.373 347.321 630.723 298.696 606.422C274.397 594.276 254.476 574.559 239.63 547.667C231.762 533.469 225.307 518.268 219.064 503.554C212.599 488.335 205.931 472.601 197.649 457.891C197.283 457.258 196.918 456.625 196.562 456.009C180.638 428.426 161.17 409.738 137.068 398.908C127.341 394.533 117.034 391.102 107.062 387.805C92.7911 383.074 78.0178 378.164 64.8568 370.4C33.8844 352.138 21.993 317.16 15.7479 292.409C10.2854 270.842 4.41204 242.428 7.32899 214.006C8.74159 200.243 12.3127 188.026 17.9457 177.714C24.1109 166.414 33.5578 156.574 46.8007 147.662C52.7842 143.644 59.3003 139.859 65.6155 136.213C83.5407 125.863 102.054 115.151 112.749 96.5454C118.345 86.818 121.398 75.9783 124.354 65.4993C128.886 49.4201 133.162 34.2389 145.82 22.5678C166.902 3.10182 199.005 0.774508 222.168 17.0479C229.664 22.3129 235.921 29.2085 240.42 37.0014C242.441 40.502 244.1 44.1881 245.384 47.9968C257.763 95.1942 300.584 116.185 341.999 136.486L348.45 139.657C358.628 145.626 367.79 151.055 376.911 156.859C399.749 171.35 428.29 191.696 446.525 220.478L446.535 220.496Z" fill="#5E17EB" fill-opacity="0.07"/>
</svg>
