<svg width="1284" height="747" viewBox="0 0 1284 747" fill="none" xmlns="http://www.w3.org/2000/svg">
<mask id="mask0_1_45" style="mask-type:alpha" maskUnits="userSpaceOnUse" x="0" y="0" width="1284" height="747">
<rect x="0.791687" y="0.222656" width="1282.42" height="746.667" rx="26.5057" fill="white" fill-opacity="0.06"/>
</mask>
<g mask="url(#mask0_1_45)">
<g opacity="0.6" filter="url(#filter0_f_1_45)">
<path fill-rule="evenodd" clip-rule="evenodd" d="M1329.4 752.753L1330.95 750.993L1332.54 749.193L1334.15 747.35L1335.77 745.464L1337.42 743.534L1339.08 741.558L1340.76 739.536L1342.45 737.468L1344.14 735.351L1345.84 733.186L1347.54 730.973L1349.24 728.711L1350.94 726.399L1352.63 724.038L1354.32 721.628L1356 719.169L1357.66 716.661L1359.31 714.104L1360.94 711.499L1362.55 708.847L1364.13 706.148L1365.69 703.403L1367.21 700.615L1368.7 697.784L1370.14 694.913L1371.54 692.004L1372.89 689.06L1374.18 686.084L1375.41 683.079L1376.58 680.048L1377.67 676.994L1378.7 673.921L1379.65 670.831L1380.52 667.728L1381.31 664.615L1382.02 661.496L1382.64 658.373L1383.19 655.248L1383.65 652.126L1384.02 649.008L1384.31 645.896L1384.52 642.794L1384.65 639.703L1384.7 636.625L1384.67 633.562L1384.56 630.515L1384.38 627.486L1384.12 624.476L1383.79 621.485L1383.39 618.516L1382.92 615.569L1382.39 612.644L1381.79 609.743L1381.14 606.865L1380.42 604.012L1379.64 601.185L1378.81 598.382L1377.93 595.606L1376.99 592.857L1376 590.135L1374.95 587.442L1373.86 584.777L1372.73 582.142L1371.54 579.538L1370.31 576.966L1369.03 574.427L1367.7 571.923L1366.33 569.454L1364.91 567.023L1363.45 564.631L1361.95 562.28L1360.4 559.972L1358.8 557.71L1357.16 555.494L1355.48 553.328L1353.75 551.214L1351.97 549.154L1350.15 547.151L1348.29 545.206L1346.38 543.324L1344.43 541.505L1342.44 539.754L1340.4 538.071L1338.33 536.46L1336.21 534.922L1334.05 533.46L1331.85 532.076L1329.61 530.772L1327.33 529.55L1325.02 528.411L1322.67 527.357L1320.29 526.389L1317.88 525.507L1315.45 524.714L1312.98 524.009L1310.49 523.393L1307.97 522.866L1305.44 522.428L1302.89 522.079L1300.32 521.817L1297.73 521.643L1295.14 521.555L1292.53 521.551L1289.92 521.631L1287.31 521.792L1284.69 522.032L1282.08 522.35L1279.46 522.743L1276.86 523.208L1274.26 523.743L1271.67 524.345L1269.09 525.01L1266.52 525.735L1263.98 526.518L1261.45 527.354L1258.94 528.239L1256.45 529.17L1253.98 530.143L1251.54 531.154L1249.12 532.197L1246.74 533.27L1244.37 534.366L1242.04 535.481L1239.74 536.61L1237.47 537.747L1235.23 538.887L1233.02 540.026L1230.85 541.158L1228.71 542.28L1226.59 543.387L1224.51 544.476L1222.46 545.542L1220.44 546.583L1218.45 547.593L1216.48 548.571L1214.54 549.512L1212.63 550.413L1210.75 551.272L1208.88 552.084L1207.04 552.847L1205.22 553.558L1203.41 554.214L1201.63 554.814L1199.85 555.354L1198.09 555.833L1196.34 556.249L1194.6 556.6L1192.87 556.886L1191.14 557.105L1189.41 557.258L1187.68 557.343L1185.96 557.361L1184.22 557.313L1182.48 557.2L1180.73 557.024L1178.98 556.786L1177.21 556.488L1175.42 556.134L1173.62 555.725L1171.81 555.267L1169.97 554.763L1168.12 554.216L1166.24 553.633L1164.34 553.016L1162.43 552.372L1160.48 551.706L1158.52 551.023L1156.53 550.33L1154.53 549.632L1152.49 548.936L1150.44 548.246L1148.37 547.571L1146.28 546.915L1144.17 546.285L1142.05 545.687L1139.91 545.126L1137.76 544.609L1135.6 544.141L1133.43 543.727L1131.25 543.372L1129.07 543.081L1126.9 542.859L1124.72 542.709L1122.55 542.635L1120.38 542.641L1118.23 542.729L1116.09 542.901L1113.96 543.161L1111.85 543.51L1109.77 543.948L1107.71 544.478L1105.67 545.099L1103.66 545.811L1101.68 546.615L1099.74 547.509L1097.83 548.492L1095.96 549.565L1094.13 550.724L1092.33 551.968L1090.58 553.295L1088.87 554.704L1087.21 556.19L1085.59 557.752L1084.02 559.388L1082.49 561.094L1081.01 562.868L1079.58 564.706L1078.2 566.607L1076.87 568.566L1075.59 570.581L1074.36 572.65L1073.17 574.77L1072.04 576.937L1070.96 579.149L1069.93 581.403L1068.95 583.696L1068.01 586.027L1067.13 588.391L1066.3 590.787L1065.51 593.211L1064.78 595.66L1064.09 598.13L1063.44 600.619L1062.84 603.123L1062.28 605.637L1061.75 608.156L1061.26 610.675L1060.8 613.19L1060.36 615.694L1059.93 618.182L1059.53 620.65L1059.12 623.092L1058.72 625.505L1058.32 627.885L1057.91 630.228L1057.48 632.53L1057.04 634.791L1056.57 637.007L1056.06 639.177L1055.53 641.302L1054.96 643.379L1054.34 645.41L1053.68 647.395L1052.98 649.336L1052.22 651.233L1051.42 653.09L1050.56 654.907L1049.64 656.689L1048.68 658.437L1047.66 660.155L1046.58 661.847L1045.46 663.516L1044.28 665.166L1043.05 666.8L1041.78 668.422L1040.46 670.037L1039.1 671.648L1037.7 673.258L1036.27 674.872L1034.81 676.494L1033.32 678.126L1031.8 679.772L1030.27 681.436L1028.72 683.12L1027.17 684.826L1025.61 686.558L1024.05 688.318L1022.5 690.107L1020.95 691.928L1019.42 693.782L1017.91 695.67L1016.43 697.594L1014.98 699.553L1013.56 701.549L1012.17 703.581L1010.83 705.649L1009.54 707.753L1008.3 709.893L1007.11 712.068L1005.97 714.276L1004.9 716.517L1003.89 718.789L1002.95 721.09L1002.07 723.418L1001.27 725.773L1000.54 728.151L999.875 730.551L999.289 732.971L998.777 735.408L998.34 737.859L997.978 740.324L997.691 742.798L997.478 745.281L997.338 747.769L997.27 750.26L997.273 752.753L997.345 755.245L997.483 757.734L997.685 760.217L997.95 762.695L998.273 765.164L998.653 767.623L999.085 770.071L999.567 772.507L1000.1 774.929L1000.67 777.338L1001.28 779.732L1001.92 782.111L1002.6 784.475L1003.31 786.823L1004.03 789.156L1004.79 791.474L1005.55 793.778L1006.34 796.068L1007.13 798.344L1007.93 800.609L1008.73 802.861L1009.54 805.104L1010.35 807.337L1011.16 809.562L1011.96 811.779L1012.76 813.99L1013.55 816.196L1014.34 818.397L1015.13 820.594L1015.91 822.785L1016.7 824.972L1017.49 827.154L1018.28 829.331L1019.07 831.501L1019.88 833.664L1020.7 835.82L1021.53 837.967L1022.37 840.104L1023.23 842.231L1024.11 844.346L1025 846.449L1025.92 848.538L1026.85 850.613L1027.81 852.674L1028.79 854.718L1029.79 856.746L1030.81 858.758L1031.85 860.753L1032.91 862.73L1034 864.689L1035.1 866.631L1036.22 868.556L1037.37 870.463L1038.53 872.353L1039.7 874.226L1040.89 876.082L1042.1 877.923L1043.32 879.747L1044.55 881.557L1045.8 883.352L1047.06 885.133L1048.32 886.9L1049.6 888.655L1050.89 890.397L1052.19 892.128L1053.49 893.847L1054.8 895.555L1056.12 897.252L1057.45 898.939L1058.79 900.617L1060.13 902.284L1061.48 903.942L1062.84 905.59L1064.21 907.228L1065.58 908.857L1066.97 910.476L1068.36 912.085L1069.76 913.684L1071.17 915.272L1072.58 916.849L1074.01 918.414L1075.45 919.967L1076.9 921.508L1078.35 923.036L1079.82 924.55L1081.3 926.049L1082.8 927.534L1084.3 929.003L1085.82 930.456L1087.35 931.892L1088.89 933.31L1090.44 934.71L1092.01 936.09L1093.59 937.451L1095.18 938.791L1096.79 940.11L1098.41 941.406L1100.04 942.679L1101.69 943.929L1103.35 945.153L1105.02 946.352L1106.71 947.524L1108.41 948.668L1110.13 949.784L1111.86 950.869L1113.6 951.923L1115.36 952.945L1117.13 953.933L1118.91 954.885L1120.71 955.801L1122.52 956.678L1124.34 957.515L1126.17 958.311L1128.02 959.063L1129.88 959.77L1131.75 960.431L1133.64 961.044L1135.53 961.607L1137.44 962.119L1139.35 962.579L1141.27 962.987L1143.2 963.34L1145.14 963.64L1147.08 963.887L1149.03 964.08L1150.98 964.224L1152.93 964.319L1154.88 964.37L1156.83 964.38L1158.78 964.354L1160.73 964.298L1162.67 964.216L1164.6 964.114L1166.53 964L1168.45 963.878L1170.36 963.755L1172.27 963.639L1174.17 963.535L1176.05 963.45L1177.94 963.39L1179.81 963.361L1181.68 963.37L1183.55 963.42L1185.41 963.518L1187.27 963.668L1189.14 963.875L1191 964.142L1192.87 964.472L1194.74 964.867L1196.63 965.331L1198.52 965.864L1200.43 966.466L1202.35 967.138L1204.29 967.88L1206.25 968.689L1208.24 969.564L1210.24 970.503L1212.28 971.502L1214.34 972.557L1216.43 973.664L1218.55 974.818L1220.7 976.012L1222.89 977.242L1225.11 978.5L1227.36 979.779L1229.65 981.071L1231.97 982.37L1234.32 983.667L1236.7 984.953L1239.12 986.22L1241.56 987.46L1244.03 988.663L1246.52 989.82L1249.04 990.924L1251.58 991.965L1254.13 992.934L1256.7 993.825L1259.27 994.627L1261.85 995.334L1264.43 995.938L1267.01 996.432L1269.58 996.809L1272.14 997.063L1274.68 997.189L1277.19 997.182L1279.68 997.037L1282.14 996.749L1284.57 996.317L1286.95 995.736L1289.28 995.006L1291.56 994.124L1293.79 993.09L1295.96 991.904L1298.06 990.566L1300.1 989.077L1302.06 987.44L1303.95 985.657L1305.76 983.73L1307.49 981.664L1309.13 979.461L1310.69 977.127L1312.15 974.666L1313.53 972.083L1314.82 969.385L1316.01 966.578L1317.11 963.666L1318.11 960.658L1319.03 957.559L1319.85 954.377L1320.57 951.118L1321.21 947.79L1321.75 944.4L1322.21 940.954L1322.57 937.461L1322.86 933.926L1323.06 930.359L1323.18 926.765L1323.22 923.151L1323.19 919.525L1323.1 915.895L1322.93 912.266L1322.71 908.645L1322.43 905.041L1322.09 901.458L1321.71 897.903L1321.29 894.38L1320.83 890.894L1320.34 887.449L1319.81 884.049L1319.26 880.698L1318.68 877.399L1318.09 874.153L1317.48 870.964L1316.87 867.832L1316.24 864.76L1315.61 861.748L1314.98 858.797L1314.34 855.907L1313.71 853.079L1313.09 850.313L1312.47 847.607L1311.86 844.963L1311.27 842.378L1310.69 839.852L1310.12 837.385L1309.56 834.974L1309.03 832.62L1308.51 830.32L1308.02 828.074L1307.55 825.88L1307.1 823.737L1306.67 821.644L1306.27 819.598L1305.89 817.599L1305.55 815.646L1305.23 813.736L1304.94 811.869L1304.69 810.043L1304.47 808.256L1304.28 806.507L1304.13 804.795L1304.02 803.118L1303.95 801.474L1303.92 799.862L1303.93 798.28L1303.98 796.726L1304.08 795.199L1304.22 793.697L1304.41 792.218L1304.66 790.76L1304.95 789.321L1305.29 787.899L1305.69 786.492L1306.14 785.098L1306.64 783.713L1307.2 782.337L1307.81 780.967L1308.48 779.6L1309.21 778.234L1309.99 776.866L1310.83 775.493L1311.72 774.115L1312.67 772.727L1313.67 771.327L1314.73 769.913L1315.84 768.482L1316.99 767.032L1318.2 765.561L1319.46 764.066L1320.76 762.545L1322.1 760.995L1323.49 759.415L1324.91 757.803L1326.37 756.156L1327.87 754.473L1329.4 752.753Z" fill="#FFAA9D"/>
</g>
<g opacity="0.6" filter="url(#filter1_f_1_45)">
<path fill-rule="evenodd" clip-rule="evenodd" d="M228.13 127.124L228.092 124.873L228.169 122.618L228.36 120.352L228.662 118.07L229.071 115.765L229.582 113.431L230.189 111.062L230.886 108.654L231.666 106.202L232.521 103.701L233.441 101.149L234.418 98.5422L235.441 95.8794L236.498 93.1593L237.578 90.3819L238.667 87.548L239.753 84.6596L240.821 81.7195L241.858 78.7315L242.851 75.7001L243.786 72.6311L244.651 69.5305L245.433 66.4055L246.122 63.2636L246.706 60.1128L247.176 56.9616L247.525 53.8186L247.744 50.6926L247.828 47.5925L247.772 44.5274L247.571 41.5061L247.223 38.5375L246.725 35.6301L246.077 32.7923L245.278 30.0318L244.331 27.3559L243.238 24.7713L242.001 22.284L240.626 19.8992L239.117 17.6213L237.481 15.4539L235.726 13.3995L233.857 11.4599L231.884 9.63571L229.816 7.92657L227.662 6.33121L225.431 4.84717L223.133 3.47119L220.778 2.19885L218.378 1.02478L215.941 -0.057251L213.478 -1.05435L210.999 -1.97449L208.513 -2.82642L206.03 -3.61948L203.559 -4.36371L201.108 -5.06961L198.685 -5.74808L196.297 -6.41034L193.951 -7.06784L191.652 -7.73209L189.405 -8.41461L187.214 -9.12686L185.083 -9.87991L183.014 -10.6847L181.008 -11.5514L179.067 -12.4901L177.19 -13.5098L175.376 -14.6191L173.624 -15.8256L171.931 -17.136L170.293 -18.556L168.708 -20.0906L167.17 -21.7434L165.674 -23.517L164.216 -25.4129L162.788 -27.4315L161.386 -29.5718L160.002 -31.8321L158.629 -34.209L157.262 -36.6984L155.892 -39.295L154.513 -41.9922L153.118 -44.7827L151.701 -47.658L150.256 -50.6087L148.774 -53.6237L147.252 -56.6902L145.682 -59.7942L144.059 -62.92L142.378 -66.0514L140.634 -69.1711L138.825 -72.2613L136.946 -75.3036L134.996 -78.2795L132.974 -81.1707L130.879 -83.9588L128.711 -86.626L126.472 -89.1551L124.165 -91.5297L121.791 -93.7342L119.356 -95.7543L116.863 -97.5766L114.318 -99.189L111.727 -100.581L109.095 -101.742L106.43 -102.665L103.739 -103.344L101.029 -103.773L98.3089 -103.949L95.5852 -103.872L92.8663 -103.54L90.1602 -102.956L87.4744 -102.124L84.8164 -101.049L82.1936 -99.7376L79.6125 -98.1979L77.0797 -96.4399L74.6009 -94.4748L72.1812 -92.315L69.8252 -89.9741L67.5368 -87.4668L65.3189 -84.8088L63.1739 -82.0164L61.1031 -79.1067L59.1073 -76.0972L57.1861 -73.0059L55.3385 -69.851L53.5625 -66.6507L51.8553 -63.423L50.2134 -60.186L48.6325 -56.957L47.1076 -53.7531L45.633 -50.5905L44.2024 -47.4848L42.8091 -44.4506L41.4456 -41.5014L40.1045 -38.6499L38.7777 -35.9071L37.4571 -33.2831L36.1344 -30.7867L34.8013 -28.4249L33.4494 -26.2036L32.0707 -24.1273L30.6572 -22.1988L29.2012 -20.4195L27.6957 -18.7895L26.1338 -17.3073L24.5095 -15.97L22.8171 -14.7735L21.0518 -13.7123L19.2095 -12.7796L17.2869 -11.9677L15.2817 -11.2675L13.1923 -10.6692L11.018 -10.1622L8.7592 -9.73502L6.417 -9.3757L3.99355 -9.07172L1.49176 -8.81046L-1.08488 -8.57944L-3.73249 -8.36658L-6.44672 -8.16025L-9.22286 -7.94925L-12.0559 -7.7229L-14.9405 -7.4711L-17.8712 -7.1843L-20.8422 -6.85352L-23.8477 -6.47064L-26.8819 -6.02805L-29.9389 -5.51895L-33.0129 -4.93729L-36.0984 -4.27768L-39.1899 -3.53571L-42.2825 -2.70755L-45.3712 -1.79019L-48.4516 -0.781036L-51.5186 0.322205L-54.5676 1.52158L-57.5936 2.81876L-60.5918 4.21518L-63.5571 5.71191L-66.4847 7.30978L-69.3694 9.00934L-72.2063 10.8108L-74.9904 12.7141L-77.7167 14.7189L-80.3803 16.8246L-82.9762 19.0302L-85.4994 21.3346L-87.9452 23.7362L-90.3086 26.2335L-92.5851 28.8242L-94.7698 31.5062L-96.8584 34.2769L-98.8464 37.1333L-100.73 40.0724L-102.504 43.0908L-104.165 46.1849L-105.71 49.3508L-107.135 52.5843L-108.437 55.8812L-109.612 59.2368L-110.659 62.6465L-111.574 66.1053L-112.356 69.6081L-113.002 73.1497L-113.511 76.7246L-113.882 80.3275L-114.113 83.9527L-114.205 87.5945L-114.157 91.2473L-113.968 94.9053L-113.64 98.5627L-113.172 102.214L-112.567 105.853L-111.826 109.474L-110.95 113.072L-109.942 116.642L-108.804 120.177L-107.54 123.673L-106.152 127.124L-104.644 130.527L-103.021 133.875L-101.286 137.165L-99.4452 140.393L-97.5022 143.555L-95.463 146.648L-93.333 149.667L-91.118 152.611L-88.8244 155.477L-86.4583 158.263L-84.0264 160.967L-81.5354 163.589L-78.9913 166.126L-76.4 168.579L-73.7668 170.946L-71.0966 173.228L-68.3942 175.424L-65.664 177.535L-62.9103 179.561L-60.1375 181.501L-57.3498 183.358L-54.5512 185.132L-51.7462 186.823L-48.9392 188.434L-46.1345 189.967L-43.337 191.423L-40.5515 192.805L-37.783 194.117L-35.0366 195.361L-32.3169 196.541L-29.6287 197.661L-26.9763 198.725L-24.3642 199.737L-21.7963 200.702L-19.2766 201.625L-16.8087 202.51L-14.3961 203.363L-12.042 204.19L-9.74952 204.996L-7.52126 205.786L-5.35965 206.566L-3.26674 207.343L-1.24426 208.122L0.706413 208.909L2.58427 209.709L4.38865 210.53L6.11928 211.375L7.77621 212.252L9.35989 213.165L10.8711 214.12L12.3109 215.121L13.6809 216.175L14.9827 217.284L16.2186 218.455L17.3908 219.69L18.502 220.994L19.5553 222.371L20.5537 223.823L21.5008 225.353L22.4002 226.964L23.2558 228.659L24.0717 230.438L24.852 232.304L25.6013 234.257L26.3239 236.297L27.0246 238.426L27.708 240.642L28.379 242.945L29.0424 245.333L29.7031 247.806L30.3659 250.361L31.0358 252.995L31.7176 255.707L32.4159 258.492L33.1354 261.346L33.8807 264.267L34.6561 267.25L35.4657 270.291L36.3135 273.385L37.2034 276.526L38.1389 279.711L39.1235 282.933L40.1603 286.188L41.2523 289.469L42.4024 292.77L43.613 296.085L44.8868 299.408L46.2263 302.728L47.6339 306.038L49.1119 309.326L50.6622 312.582L52.2863 315.794L53.9854 318.949L55.7604 322.035L57.6114 325.038L59.5382 327.945L61.5401 330.742L63.6157 333.414L65.763 335.948L67.9794 338.329L70.2619 340.542L72.6066 342.575L75.0091 344.412L77.4642 346.043L79.9663 347.456L82.509 348.642L85.0857 349.592L87.6892 350.301L90.312 350.764L92.9466 350.977L95.5852 350.938L98.2199 350.649L100.843 350.111L103.447 349.327L106.024 348.304L108.567 347.047L111.07 345.566L113.526 343.869L115.93 341.968L118.276 339.875L120.56 337.604L122.778 335.169L124.927 332.586L127.005 329.87L129.011 327.039L130.944 324.11L132.803 321.1L134.592 318.029L136.31 314.913L137.961 311.772L139.549 308.622L141.078 305.481L142.553 302.367L143.979 299.295L145.363 296.281L146.713 293.339L148.034 290.484L149.336 287.728L150.625 285.082L151.91 282.556L153.2 280.16L154.503 277.899L155.828 275.78L157.181 273.807L158.572 271.984L160.009 270.311L161.497 268.788L163.045 267.413L164.657 266.184L166.34 265.097L168.099 264.145L169.937 263.322L171.859 262.619L173.865 262.028L175.958 261.539L178.139 261.142L180.406 260.823L182.76 260.573L185.197 260.377L187.715 260.223L190.31 260.097L192.974 259.983L195.701 259.868L198.482 259.735L201.309 259.569L204.169 259.354L207.052 259.077L209.945 258.722L212.836 258.278L215.711 257.731L218.558 257.071L221.362 256.289L224.112 255.376L226.793 254.326L229.395 253.135L231.905 251.798L234.312 250.314L236.605 248.682L238.776 246.903L240.814 244.978L242.712 242.911L244.462 240.704L246.057 238.364L247.492 235.896L248.762 233.307L249.865 230.604L250.799 227.797L251.562 224.894L252.155 221.905L252.579 218.84L252.838 215.709L252.935 212.523L252.875 209.292L252.663 206.027L252.308 202.737L251.816 199.434L251.197 196.127L250.461 192.826L249.617 189.538L248.678 186.274L247.655 183.04L246.559 179.843L245.404 176.69L244.203 173.586L242.968 170.536L241.713 167.543L240.45 164.61L239.193 161.739L237.954 158.931L236.746 156.186L235.579 153.503L234.466 150.88L233.417 148.316L232.441 145.807L231.547 143.348L230.743 140.936L230.037 138.566L229.433 136.231L228.938 133.926L228.554 131.644L228.284 129.379L228.13 127.124Z" fill="#FFC698"/>
</g>
<g filter="url(#filter2_b_1_45)">
<rect x="0.791687" y="0.222656" width="1282.42" height="746.667" rx="26.5057" fill="white" fill-opacity="0.06"/>
<rect x="1.45835" y="0.889323" width="1281.08" height="745.333" rx="25.839" stroke="url(#paint0_linear_1_45)" stroke-width="1.33333"/>
</g>
</g>
<defs>
<filter id="filter0_f_1_45" x="622.335" y="146.615" width="1137.3" height="1225.51" filterUnits="userSpaceOnUse" color-interpolation-filters="sRGB">
<feFlood flood-opacity="0" result="BackgroundImageFix"/>
<feBlend mode="normal" in="SourceGraphic" in2="BackgroundImageFix" result="shape"/>
<feGaussianBlur stdDeviation="187.468" result="effect1_foregroundBlur_1_45"/>
</filter>
<filter id="filter1_f_1_45" x="-644.318" y="-634.062" width="1427.37" height="1515.15" filterUnits="userSpaceOnUse" color-interpolation-filters="sRGB">
<feFlood flood-opacity="0" result="BackgroundImageFix"/>
<feBlend mode="normal" in="SourceGraphic" in2="BackgroundImageFix" result="shape"/>
<feGaussianBlur stdDeviation="265.057" result="effect1_foregroundBlur_1_45"/>
</filter>
<filter id="filter2_b_1_45" x="-25.714" y="-26.283" width="1335.43" height="799.678" filterUnits="userSpaceOnUse" color-interpolation-filters="sRGB">
<feFlood flood-opacity="0" result="BackgroundImageFix"/>
<feGaussianBlur in="BackgroundImageFix" stdDeviation="13.2528"/>
<feComposite in2="SourceAlpha" operator="in" result="effect1_backgroundBlur_1_45"/>
<feBlend mode="normal" in="SourceGraphic" in2="effect1_backgroundBlur_1_45" result="shape"/>
</filter>
<linearGradient id="paint0_linear_1_45" x1="830.385" y1="726.194" x2="1051.81" y2="22.12" gradientUnits="userSpaceOnUse">
<stop stop-color="white" stop-opacity="0.6"/>
<stop offset="1" stop-color="white" stop-opacity="0"/>
</linearGradient>
</defs>
</svg>
