<svg width="431" height="69" viewBox="0 0 431 69" fill="none" xmlns="http://www.w3.org/2000/svg">
<path d="M15.7766 56.9922L0.320555 7.86419H14.0516L24.9536 45.6762H18.6056L29.3696 7.86419H40.7546L51.5186 45.6762H45.2396L56.1416 7.86419H69.7346L54.2786 56.9922H42.8246L32.0606 19.2492H37.9946L27.2306 56.9922H15.7766ZM74.3894 56.9922V7.86419H88.1894V56.9922H74.3894ZM96.3562 56.9922V7.86419H106.016L110.156 18.2142V56.9922H96.3562ZM130.166 56.9922L101.669 21.1812L106.016 7.86419L134.513 43.6752L130.166 56.9922ZM130.166 56.9922L126.716 46.0902V7.86419H140.516V56.9922H130.166ZM177.397 57.8202C173.349 57.8202 169.83 57.2222 166.84 56.0262C163.85 54.7842 161.09 52.8292 158.56 50.1612L166.909 41.5362C168.657 43.2382 170.474 44.5492 172.36 45.4692C174.246 46.3432 176.293 46.7802 178.501 46.7802C180.341 46.7802 181.721 46.5042 182.641 45.9522C183.561 45.3542 184.021 44.5492 184.021 43.5372C184.021 42.5252 183.607 41.6972 182.779 41.0532C181.997 40.3632 180.939 39.7652 179.605 39.2592C178.317 38.7072 176.891 38.1552 175.327 37.6032C173.763 37.0512 172.199 36.3842 170.635 35.6022C169.071 34.8202 167.622 33.8772 166.288 32.7732C165 31.6232 163.942 30.2202 163.114 28.5642C162.332 26.8622 161.941 24.7922 161.941 22.3542C161.941 19.1802 162.677 16.4432 164.149 14.1432C165.621 11.8432 167.691 10.0952 170.359 8.89919C173.027 7.65719 176.155 7.03618 179.743 7.03618C183.285 7.03618 186.574 7.63419 189.61 8.83019C192.692 9.98019 195.222 11.6362 197.2 13.7982L188.782 22.4232C187.356 20.9512 185.907 19.8702 184.435 19.1802C182.963 18.4442 181.353 18.0762 179.605 18.0762C178.225 18.0762 177.121 18.3062 176.293 18.7662C175.465 19.2262 175.051 19.9162 175.051 20.8362C175.051 21.8022 175.442 22.6072 176.224 23.2512C177.052 23.8492 178.11 24.4012 179.398 24.9072C180.732 25.4132 182.181 25.9422 183.745 26.4942C185.309 27.0462 186.873 27.7132 188.437 28.4952C190.001 29.2312 191.427 30.1972 192.715 31.3932C194.049 32.5432 195.107 33.9922 195.889 35.7402C196.717 37.4882 197.131 39.6042 197.131 42.0882C197.131 47.1022 195.406 50.9892 191.956 53.7492C188.552 56.4632 183.699 57.8202 177.397 57.8202ZM173.947 50.2992H183.607V64.0302H173.947V50.2992ZM183.607 12.8322H173.947V0.826187H183.607V12.8322ZM209.97 56.9922V7.86419H223.632V56.9922H209.97ZM200.793 19.1802V7.86419H222.942V19.1802H200.793ZM250.981 57.8202C246.749 57.8202 242.977 56.7392 239.665 54.5772C236.399 52.3692 233.823 49.3562 231.937 45.5382C230.051 41.6742 229.108 37.2812 229.108 32.3592C229.108 27.4372 230.028 23.0672 231.868 19.2492C233.754 15.4312 236.33 12.4412 239.596 10.2792C242.862 8.11718 246.611 7.03618 250.843 7.03618C255.121 7.03618 258.893 8.11718 262.159 10.2792C265.471 12.4412 268.047 15.4312 269.887 19.2492C271.773 23.0672 272.716 27.4602 272.716 32.4282C272.716 37.3962 271.773 41.7892 269.887 45.6072C268.047 49.4252 265.494 52.4152 262.228 54.5772C258.962 56.7392 255.213 57.8202 250.981 57.8202ZM250.912 46.0902C252.614 46.0902 254.063 45.5612 255.259 44.5032C256.455 43.4452 257.352 41.9042 257.95 39.8802C258.594 37.8102 258.916 35.3262 258.916 32.4282C258.916 29.5302 258.594 27.0692 257.95 25.0452C257.352 23.0212 256.455 21.4802 255.259 20.4222C254.063 19.3182 252.591 18.7662 250.843 18.7662C249.187 18.7662 247.761 19.2952 246.565 20.3532C245.369 21.4112 244.449 22.9522 243.805 24.9762C243.207 27.0002 242.908 29.4612 242.908 32.3592C242.908 35.2572 243.207 37.7412 243.805 39.8112C244.449 41.8352 245.369 43.3992 246.565 44.5032C247.761 45.5612 249.21 46.0902 250.912 46.0902ZM276.449 65.5482L281.831 55.4742L285.557 54.4392C285.143 55.2212 284.66 55.8882 284.108 56.4402C283.556 56.9462 282.935 57.1992 282.245 57.1992C280.681 57.1992 279.232 56.5552 277.898 55.2672C276.61 53.9332 275.966 52.2772 275.966 50.2992C275.966 48.1832 276.679 46.3662 278.105 44.8482C279.531 43.3302 281.325 42.5712 283.487 42.5712C285.511 42.5712 287.259 43.3302 288.731 44.8482C290.249 46.3202 291.008 48.1372 291.008 50.2992C291.008 51.1732 290.847 52.1852 290.525 53.3352C290.203 54.4852 289.536 55.9802 288.524 57.8202L282.521 68.8602L276.449 65.5482ZM315.736 57.8202C311.504 57.8202 307.732 56.7392 304.42 54.5772C301.154 52.3692 298.578 49.3562 296.692 45.5382C294.806 41.6742 293.863 37.2812 293.863 32.3592C293.863 27.4372 294.783 23.0672 296.623 19.2492C298.509 15.4312 301.085 12.4412 304.351 10.2792C307.617 8.11718 311.366 7.03618 315.598 7.03618C319.876 7.03618 323.648 8.11718 326.914 10.2792C330.226 12.4412 332.802 15.4312 334.642 19.2492C336.528 23.0672 337.471 27.4602 337.471 32.4282C337.471 37.3962 336.528 41.7892 334.642 45.6072C332.802 49.4252 330.249 52.4152 326.983 54.5772C323.717 56.7392 319.968 57.8202 315.736 57.8202ZM315.667 46.0902C317.369 46.0902 318.818 45.5612 320.014 44.5032C321.21 43.4452 322.107 41.9042 322.705 39.8802C323.349 37.8102 323.671 35.3262 323.671 32.4282C323.671 29.5302 323.349 27.0692 322.705 25.0452C322.107 23.0212 321.21 21.4802 320.014 20.4222C318.818 19.3182 317.346 18.7662 315.598 18.7662C313.942 18.7662 312.516 19.2952 311.32 20.3532C310.124 21.4112 309.204 22.9522 308.56 24.9762C307.962 27.0002 307.663 29.4612 307.663 32.3592C307.663 35.2572 307.962 37.7412 308.56 39.8112C309.204 41.8352 310.124 43.3992 311.32 44.5032C312.516 45.5612 313.965 46.0902 315.667 46.0902ZM362.365 57.8202C358.133 57.8202 354.361 56.7392 351.049 54.5772C347.783 52.3692 345.207 49.3562 343.321 45.5382C341.435 41.6742 340.492 37.2812 340.492 32.3592C340.492 27.4372 341.412 23.0672 343.252 19.2492C345.138 15.4312 347.714 12.4412 350.98 10.2792C354.246 8.11718 357.995 7.03618 362.227 7.03618C366.505 7.03618 370.277 8.11718 373.543 10.2792C376.855 12.4412 379.431 15.4312 381.271 19.2492C383.157 23.0672 384.1 27.4602 384.1 32.4282C384.1 37.3962 383.157 41.7892 381.271 45.6072C379.431 49.4252 376.878 52.4152 373.612 54.5772C370.346 56.7392 366.597 57.8202 362.365 57.8202ZM362.296 46.0902C363.998 46.0902 365.447 45.5612 366.643 44.5032C367.839 43.4452 368.736 41.9042 369.334 39.8802C369.978 37.8102 370.3 35.3262 370.3 32.4282C370.3 29.5302 369.978 27.0692 369.334 25.0452C368.736 23.0212 367.839 21.4802 366.643 20.4222C365.447 19.3182 363.975 18.7662 362.227 18.7662C360.571 18.7662 359.145 19.2952 357.949 20.3532C356.753 21.4112 355.833 22.9522 355.189 24.9762C354.591 27.0002 354.292 29.4612 354.292 32.3592C354.292 35.2572 354.591 37.7412 355.189 39.8112C355.833 41.8352 356.753 43.3992 357.949 44.5032C359.145 45.5612 360.594 46.0902 362.296 46.0902ZM408.994 57.8202C404.762 57.8202 400.99 56.7392 397.678 54.5772C394.412 52.3692 391.836 49.3562 389.95 45.5382C388.064 41.6742 387.121 37.2812 387.121 32.3592C387.121 27.4372 388.041 23.0672 389.881 19.2492C391.767 15.4312 394.343 12.4412 397.609 10.2792C400.875 8.11718 404.624 7.03618 408.856 7.03618C413.134 7.03618 416.906 8.11718 420.172 10.2792C423.484 12.4412 426.06 15.4312 427.9 19.2492C429.786 23.0672 430.729 27.4602 430.729 32.4282C430.729 37.3962 429.786 41.7892 427.9 45.6072C426.06 49.4252 423.507 52.4152 420.241 54.5772C416.975 56.7392 413.226 57.8202 408.994 57.8202ZM408.925 46.0902C410.627 46.0902 412.076 45.5612 413.272 44.5032C414.468 43.4452 415.365 41.9042 415.963 39.8802C416.607 37.8102 416.929 35.3262 416.929 32.4282C416.929 29.5302 416.607 27.0692 415.963 25.0452C415.365 23.0212 414.468 21.4802 413.272 20.4222C412.076 19.3182 410.604 18.7662 408.856 18.7662C407.2 18.7662 405.774 19.2952 404.578 20.3532C403.382 21.4112 402.462 22.9522 401.818 24.9762C401.22 27.0002 400.921 29.4612 400.921 32.3592C400.921 35.2572 401.22 37.7412 401.818 39.8112C402.462 41.8352 403.382 43.3992 404.578 44.5032C405.774 45.5612 407.223 46.0902 408.925 46.0902Z" fill="url(#paint0_linear_1582_3731)"/>
<defs>
<linearGradient id="paint0_linear_1582_3731" x1="-0.124784" y1="-9.9919" x2="421.395" y2="85.8277" gradientUnits="userSpaceOnUse">
<stop stop-color="#13AF9C"/>
<stop offset="1" stop-color="#FF881E"/>
</linearGradient>
</defs>
</svg>
